<?xml version="1.0" encoding="utf-8" standalone="no"?>
<!DOCTYPE svg PUBLIC "-//W3C//DTD SVG 1.1//EN"
  "http://www.w3.org/Graphics/SVG/1.1/DTD/svg11.dtd">
<svg xmlns:xlink="http://www.w3.org/1999/xlink" width="749.735532pt" height="379.031875pt" viewBox="0 0 749.735532 379.031875" xmlns="http://www.w3.org/2000/svg" version="1.1">
 <metadata>
  <rdf:RDF xmlns:dc="http://purl.org/dc/elements/1.1/" xmlns:cc="http://creativecommons.org/ns#" xmlns:rdf="http://www.w3.org/1999/02/22-rdf-syntax-ns#">
   <cc:Work>
    <dc:type rdf:resource="http://purl.org/dc/dcmitype/StillImage"/>
    <dc:date>2026-09-10T23:20:56.373445</dc:date>
    <dc:format>image/svg+xml</dc:format>
    <dc:creator>
     <cc:Agent>
      <dc:title>Matplotlib v3.10.5, https://matplotlib.org/</dc:title>
     </cc:Agent>
    </dc:creator>
   </cc:Work>
  </rdf:RDF>
 </metadata>
 <defs>
  <style type="text/css">*{stroke-linejoin: round; stroke-linecap: butt}</style>
 </defs>
 <g id="figure_1">
  <g id="patch_1">
   <path d="M 0 379.031875 
L 749.735532 379.031875 
L 749.735532 0 
L 0 0 
z
" style="fill: #ffffff"/>
  </g>
  <g id="axes_1">
   <g id="patch_2">
    <path d="M 56.4625 339.8725 
L 361.411544 339.8725 
L 361.411544 22.7925 
L 56.4625 22.7925 
z
" style="fill: #ffffff"/>
   </g>
   <g id="patch_3">
    <path d="M 324.448023 61.226439 
L 235.320605 193.816536 
L 240.002227 196.846268 
z
" clip-path="url(#p18b7fadf2a)" style="fill: #216782; opacity: 0.13; stroke: #216782; stroke-linejoin: miter"/>
   </g>
   <g id="PathCollection_1">
    <defs>
     <path id="m164b9e1c60" d="M 0 2.345208 
C 0.621956 2.345208 1.218523 2.098102 1.658312 1.658312 
C 2.098102 1.218523 2.345208 0.621956 2.345208 0 
C 2.345208 -0.621956 2.098102 -1.218523 1.658312 -1.658312 
C 1.218523 -2.098102 0.621956 -2.345208 0 -2.345208 
C -0.621956 -2.345208 -1.218523 -2.098102 -1.658312 -1.658312 
C -2.098102 -1.218523 -2.345208 -0.621956 -2.345208 0 
C -2.345208 0.621956 -2.098102 1.218523 -1.658312 1.658312 
C -1.218523 2.098102 -0.621956 2.345208 0 2.345208 
z
" style="stroke: #216782"/>
    </defs>
    <g clip-path="url(#p18b7fadf2a)">
     <use xlink:href="#m164b9e1c60" x="324.448023" y="61.226439" style="fill: #216782; stroke: #216782"/>
    </g>
   </g>
   <g id="patch_4">
    <path d="M 300.872909 68.900245 
L 235.907001 192.712412 
L 240.267559 194.904267 
z
" clip-path="url(#p18b7fadf2a)" style="fill: #216782; opacity: 0.13; stroke: #216782; stroke-linejoin: miter"/>
   </g>
   <g id="PathCollection_2">
    <g clip-path="url(#p18b7fadf2a)">
     <use xlink:href="#m164b9e1c60" x="300.872909" y="68.900245" style="fill: #216782; stroke: #216782"/>
    </g>
   </g>
   <g id="patch_5">
    <path d="M 100.673655 232.858475 
L 255.166024 183.278113 
L 253.341582 177.91661 
z
" clip-path="url(#p18b7fadf2a)" style="fill: #216782; opacity: 0.13; stroke: #216782; stroke-linejoin: miter"/>
   </g>
   <g id="PathCollection_3">
    <g clip-path="url(#p18b7fadf2a)">
     <use xlink:href="#m164b9e1c60" x="100.673655" y="232.858475" style="fill: #216782; stroke: #216782"/>
    </g>
   </g>
   <g id="patch_6">
    <path d="M 124.465811 249.353699 
L 254.656869 183.71177 
L 252.286689 179.208155 
z
" clip-path="url(#p18b7fadf2a)" style="fill: #216782; opacity: 0.13; stroke: #216782; stroke-linejoin: miter"/>
   </g>
   <g id="PathCollection_4">
    <g clip-path="url(#p18b7fadf2a)">
     <use xlink:href="#m164b9e1c60" x="124.465811" y="249.353699" style="fill: #216782; stroke: #216782"/>
    </g>
   </g>
   <g id="patch_7">
    <path d="M 93.42602 285.805149 
L 258.297635 181.743098 
L 254.565487 176.052554 
z
" clip-path="url(#p18b7fadf2a)" style="fill: #216782; opacity: 0.13; stroke: #216782; stroke-linejoin: miter"/>
   </g>
   <g id="PathCollection_5">
    <g clip-path="url(#p18b7fadf2a)">
     <use xlink:href="#m164b9e1c60" x="93.42602" y="285.805149" style="fill: #216782; stroke: #216782"/>
    </g>
   </g>
   <g id="patch_8">
    <path d="M 244.076942 301.438561 
L 245.585626 175.363497 
L 241.18475 175.387647 
z
" clip-path="url(#p18b7fadf2a)" style="fill: #216782; opacity: 0.13; stroke: #216782; stroke-linejoin: miter"/>
   </g>
   <g id="PathCollection_6">
    <g clip-path="url(#p18b7fadf2a)">
     <use xlink:href="#m164b9e1c60" x="244.076942" y="301.438561" style="fill: #216782; stroke: #216782"/>
    </g>
   </g>
   <g id="PathCollection_7">
    <defs>
     <path id="m98f3cd64ab" d="M 0 -4.609772 
L -1.034958 -1.424498 
L -4.384154 -1.424498 
L -1.674598 0.54411 
L -2.709556 3.729384 
L -0 1.760776 
L 2.709556 3.729384 
L 1.674598 0.54411 
L 4.384154 -1.424498 
L 1.034958 -1.424498 
z
" style="stroke: #c24543"/>
    </defs>
    <g clip-path="url(#p18b7fadf2a)">
     <use xlink:href="#m98f3cd64ab" x="242.979925" y="184.699187" style="fill: #c24543; stroke: #c24543"/>
    </g>
   </g>
   <g id="matplotlib.axis_1">
    <g id="xtick_1">
     <g id="line2d_1">
      <path d="M 80.814338 339.8725 
L 80.814338 22.7925 
" clip-path="url(#p18b7fadf2a)" style="fill: none; stroke: #b0b0b0; stroke-opacity: 0.18; stroke-width: 0.8; stroke-linecap: square"/>
     </g>
     <g id="line2d_2">
      <defs>
       <path id="m9202d47861" d="M 0 0 
L 0 3.5 
" style="stroke: #000000; stroke-width: 0.8"/>
      </defs>
      <g>
       <use xlink:href="#m9202d47861" x="80.814338" y="339.8725" style="stroke: #000000; stroke-width: 0.8"/>
      </g>
     </g>
     <g id="text_1">
      <!-- -1000 -->
      <g transform="translate(66.922932 354.86625) scale(0.1 -0.1)">
       <defs>
        <path id="MicrosoftYaHei-2d" d="M 2328 1681 
L 488 1681 
L 488 2153 
L 2328 2153 
L 2328 1681 
z
" transform="scale(0.015625)"/>
        <path id="MicrosoftYaHei-31" d="M 1781 0 
L 1781 4141 
Q 1638 3997 1295 3819 
Q 953 3641 663 3569 
L 663 4169 
Q 1047 4275 1484 4508 
Q 1922 4741 2156 4947 
L 2388 4947 
L 2388 0 
L 1781 0 
z
" transform="scale(0.015625)"/>
        <path id="MicrosoftYaHei-30" d="M 284 2325 
Q 284 3606 709 4264 
Q 1134 4922 1941 4922 
Q 3478 4922 3478 2441 
Q 3478 1216 3045 567 
Q 2613 -81 1831 -81 
Q 1094 -81 689 534 
Q 284 1150 284 2325 
z
M 909 2353 
Q 909 425 1888 425 
Q 2850 425 2850 2384 
Q 2850 4413 1906 4413 
Q 909 4413 909 2353 
z
" transform="scale(0.015625)"/>
       </defs>
       <use xlink:href="#MicrosoftYaHei-2d"/>
       <use xlink:href="#MicrosoftYaHei-31" transform="translate(43.261719 0)"/>
       <use xlink:href="#MicrosoftYaHei-30" transform="translate(101.904297 0)"/>
       <use xlink:href="#MicrosoftYaHei-30" transform="translate(160.546875 0)"/>
       <use xlink:href="#MicrosoftYaHei-30" transform="translate(219.189453 0)"/>
      </g>
     </g>
    </g>
    <g id="xtick_2">
     <g id="line2d_3">
      <path d="M 145.680573 339.8725 
L 145.680573 22.7925 
" clip-path="url(#p18b7fadf2a)" style="fill: none; stroke: #b0b0b0; stroke-opacity: 0.18; stroke-width: 0.8; stroke-linecap: square"/>
     </g>
     <g id="line2d_4">
      <g>
       <use xlink:href="#m9202d47861" x="145.680573" y="339.8725" style="stroke: #000000; stroke-width: 0.8"/>
      </g>
     </g>
     <g id="text_2">
      <!-- -500 -->
      <g transform="translate(134.721198 354.86625) scale(0.1 -0.1)">
       <defs>
        <path id="MicrosoftYaHei-35" d="M 3294 1494 
Q 3294 784 2823 350 
Q 2353 -84 1559 -84 
Q 878 -84 544 119 
L 544 744 
Q 1034 425 1544 425 
Q 2050 425 2361 704 
Q 2672 984 2672 1447 
Q 2672 1909 2348 2167 
Q 2025 2425 1434 2425 
Q 978 2425 613 2384 
L 791 4841 
L 3053 4841 
L 3053 4303 
L 1306 4303 
L 1206 2931 
L 1647 2950 
Q 2416 2950 2855 2567 
Q 3294 2184 3294 1494 
z
" transform="scale(0.015625)"/>
       </defs>
       <use xlink:href="#MicrosoftYaHei-2d"/>
       <use xlink:href="#MicrosoftYaHei-35" transform="translate(43.261719 0)"/>
       <use xlink:href="#MicrosoftYaHei-30" transform="translate(101.904297 0)"/>
       <use xlink:href="#MicrosoftYaHei-30" transform="translate(160.546875 0)"/>
      </g>
     </g>
    </g>
    <g id="xtick_3">
     <g id="line2d_5">
      <path d="M 210.546807 339.8725 
L 210.546807 22.7925 
" clip-path="url(#p18b7fadf2a)" style="fill: none; stroke: #b0b0b0; stroke-opacity: 0.18; stroke-width: 0.8; stroke-linecap: square"/>
     </g>
     <g id="line2d_6">
      <g>
       <use xlink:href="#m9202d47861" x="210.546807" y="339.8725" style="stroke: #000000; stroke-width: 0.8"/>
      </g>
     </g>
     <g id="text_3">
      <!-- 0 -->
      <g transform="translate(207.614776 354.86625) scale(0.1 -0.1)">
       <use xlink:href="#MicrosoftYaHei-30"/>
      </g>
     </g>
    </g>
    <g id="xtick_4">
     <g id="line2d_7">
      <path d="M 275.413042 339.8725 
L 275.413042 22.7925 
" clip-path="url(#p18b7fadf2a)" style="fill: none; stroke: #b0b0b0; stroke-opacity: 0.18; stroke-width: 0.8; stroke-linecap: square"/>
     </g>
     <g id="line2d_8">
      <g>
       <use xlink:href="#m9202d47861" x="275.413042" y="339.8725" style="stroke: #000000; stroke-width: 0.8"/>
      </g>
     </g>
     <g id="text_4">
      <!-- 500 -->
      <g transform="translate(266.616948 354.86625) scale(0.1 -0.1)">
       <use xlink:href="#MicrosoftYaHei-35"/>
       <use xlink:href="#MicrosoftYaHei-30" transform="translate(58.642578 0)"/>
       <use xlink:href="#MicrosoftYaHei-30" transform="translate(117.285156 0)"/>
      </g>
     </g>
    </g>
    <g id="xtick_5">
     <g id="line2d_9">
      <path d="M 340.279276 339.8725 
L 340.279276 22.7925 
" clip-path="url(#p18b7fadf2a)" style="fill: none; stroke: #b0b0b0; stroke-opacity: 0.18; stroke-width: 0.8; stroke-linecap: square"/>
     </g>
     <g id="line2d_10">
      <g>
       <use xlink:href="#m9202d47861" x="340.279276" y="339.8725" style="stroke: #000000; stroke-width: 0.8"/>
      </g>
     </g>
     <g id="text_5">
      <!-- 1000 -->
      <g transform="translate(328.551151 354.86625) scale(0.1 -0.1)">
       <use xlink:href="#MicrosoftYaHei-31"/>
       <use xlink:href="#MicrosoftYaHei-30" transform="translate(58.642578 0)"/>
       <use xlink:href="#MicrosoftYaHei-30" transform="translate(117.285156 0)"/>
       <use xlink:href="#MicrosoftYaHei-30" transform="translate(175.927734 0)"/>
      </g>
     </g>
    </g>
    <g id="text_6">
     <!-- x / m -->
     <g transform="translate(196.622178 369.345937) scale(0.1 -0.1)">
      <defs>
       <path id="MicrosoftYaHei-78" d="M 3163 3456 
L 2006 1716 
L 3147 0 
L 2434 0 
L 1775 1100 
Q 1722 1188 1625 1369 
L 1613 1369 
Q 1609 1350 1456 1100 
L 784 0 
L 81 0 
L 1256 1697 
L 134 3456 
L 847 3456 
L 1494 2300 
Q 1553 2194 1638 2025 
L 1650 2025 
L 2491 3456 
L 3163 3456 
z
" transform="scale(0.015625)"/>
       <path id="MicrosoftYaHei-20" transform="scale(0.015625)"/>
       <path id="MicrosoftYaHei-2f" d="M 2791 4841 
L 469 -803 
L -103 -803 
L 2219 4841 
L 2791 4841 
z
" transform="scale(0.015625)"/>
       <path id="MicrosoftYaHei-6d" d="M 5522 0 
L 4909 0 
L 4909 1984 
Q 4909 2547 4734 2789 
Q 4559 3031 4159 3031 
Q 3822 3031 3581 2715 
Q 3341 2400 3341 1969 
L 3341 0 
L 2728 0 
L 2728 2047 
Q 2728 3031 1969 3031 
Q 1619 3031 1389 2731 
Q 1159 2431 1159 1966 
L 1159 0 
L 547 0 
L 547 3456 
L 1159 3456 
L 1159 2909 
L 1172 2909 
Q 1541 3538 2250 3538 
Q 2597 3538 2862 3347 
Q 3128 3156 3231 2831 
Q 3616 3538 4381 3538 
Q 5522 3538 5522 2131 
L 5522 0 
z
" transform="scale(0.015625)"/>
      </defs>
      <use xlink:href="#MicrosoftYaHei-78"/>
      <use xlink:href="#MicrosoftYaHei-20" transform="translate(50.683594 0)"/>
      <use xlink:href="#MicrosoftYaHei-2f" transform="translate(80.273438 0)"/>
      <use xlink:href="#MicrosoftYaHei-20" transform="translate(122.998047 0)"/>
      <use xlink:href="#MicrosoftYaHei-6d" transform="translate(152.587891 0)"/>
     </g>
    </g>
   </g>
   <g id="matplotlib.axis_2">
    <g id="ytick_1">
     <g id="line2d_11">
      <path d="M 56.4625 294.971786 
L 361.411544 294.971786 
" clip-path="url(#p18b7fadf2a)" style="fill: none; stroke: #b0b0b0; stroke-opacity: 0.18; stroke-width: 0.8; stroke-linecap: square"/>
     </g>
     <g id="line2d_12">
      <defs>
       <path id="m1d997347f5" d="M 0 0 
L -3.5 0 
" style="stroke: #000000; stroke-width: 0.8"/>
      </defs>
      <g>
       <use xlink:href="#m1d997347f5" x="56.4625" y="294.971786" style="stroke: #000000; stroke-width: 0.8"/>
      </g>
     </g>
     <g id="text_7">
      <!-- -1000 -->
      <g transform="translate(21.679688 298.968661) scale(0.1 -0.1)">
       <use xlink:href="#MicrosoftYaHei-2d"/>
       <use xlink:href="#MicrosoftYaHei-31" transform="translate(43.261719 0)"/>
       <use xlink:href="#MicrosoftYaHei-30" transform="translate(101.904297 0)"/>
       <use xlink:href="#MicrosoftYaHei-30" transform="translate(160.546875 0)"/>
       <use xlink:href="#MicrosoftYaHei-30" transform="translate(219.189453 0)"/>
      </g>
     </g>
    </g>
    <g id="ytick_2">
     <g id="line2d_13">
      <path d="M 56.4625 230.105552 
L 361.411544 230.105552 
" clip-path="url(#p18b7fadf2a)" style="fill: none; stroke: #b0b0b0; stroke-opacity: 0.18; stroke-width: 0.8; stroke-linecap: square"/>
     </g>
     <g id="line2d_14">
      <g>
       <use xlink:href="#m1d997347f5" x="56.4625" y="230.105552" style="stroke: #000000; stroke-width: 0.8"/>
      </g>
     </g>
     <g id="text_8">
      <!-- -500 -->
      <g transform="translate(27.54375 234.102427) scale(0.1 -0.1)">
       <use xlink:href="#MicrosoftYaHei-2d"/>
       <use xlink:href="#MicrosoftYaHei-35" transform="translate(43.261719 0)"/>
       <use xlink:href="#MicrosoftYaHei-30" transform="translate(101.904297 0)"/>
       <use xlink:href="#MicrosoftYaHei-30" transform="translate(160.546875 0)"/>
      </g>
     </g>
    </g>
    <g id="ytick_3">
     <g id="line2d_15">
      <path d="M 56.4625 165.239317 
L 361.411544 165.239317 
" clip-path="url(#p18b7fadf2a)" style="fill: none; stroke: #b0b0b0; stroke-opacity: 0.18; stroke-width: 0.8; stroke-linecap: square"/>
     </g>
     <g id="line2d_16">
      <g>
       <use xlink:href="#m1d997347f5" x="56.4625" y="165.239317" style="stroke: #000000; stroke-width: 0.8"/>
      </g>
     </g>
     <g id="text_9">
      <!-- 0 -->
      <g transform="translate(43.598438 169.236192) scale(0.1 -0.1)">
       <use xlink:href="#MicrosoftYaHei-30"/>
      </g>
     </g>
    </g>
    <g id="ytick_4">
     <g id="line2d_17">
      <path d="M 56.4625 100.373082 
L 361.411544 100.373082 
" clip-path="url(#p18b7fadf2a)" style="fill: none; stroke: #b0b0b0; stroke-opacity: 0.18; stroke-width: 0.8; stroke-linecap: square"/>
     </g>
     <g id="line2d_18">
      <g>
       <use xlink:href="#m1d997347f5" x="56.4625" y="100.373082" style="stroke: #000000; stroke-width: 0.8"/>
      </g>
     </g>
     <g id="text_10">
      <!-- 500 -->
      <g transform="translate(31.870313 104.369957) scale(0.1 -0.1)">
       <use xlink:href="#MicrosoftYaHei-35"/>
       <use xlink:href="#MicrosoftYaHei-30" transform="translate(58.642578 0)"/>
       <use xlink:href="#MicrosoftYaHei-30" transform="translate(117.285156 0)"/>
      </g>
     </g>
    </g>
    <g id="ytick_5">
     <g id="line2d_19">
      <path d="M 56.4625 35.506848 
L 361.411544 35.506848 
" clip-path="url(#p18b7fadf2a)" style="fill: none; stroke: #b0b0b0; stroke-opacity: 0.18; stroke-width: 0.8; stroke-linecap: square"/>
     </g>
     <g id="line2d_20">
      <g>
       <use xlink:href="#m1d997347f5" x="56.4625" y="35.506848" style="stroke: #000000; stroke-width: 0.8"/>
      </g>
     </g>
     <g id="text_11">
      <!-- 1000 -->
      <g transform="translate(26.00625 39.503723) scale(0.1 -0.1)">
       <use xlink:href="#MicrosoftYaHei-31"/>
       <use xlink:href="#MicrosoftYaHei-30" transform="translate(58.642578 0)"/>
       <use xlink:href="#MicrosoftYaHei-30" transform="translate(117.285156 0)"/>
       <use xlink:href="#MicrosoftYaHei-30" transform="translate(175.927734 0)"/>
      </g>
     </g>
    </g>
    <g id="text_12">
     <!-- y / m -->
     <g transform="translate(15.135938 193.759844) rotate(-90) scale(0.1 -0.1)">
      <defs>
       <path id="MicrosoftYaHei-79" d="M 3359 3456 
L 1791 -522 
Q 1353 -1628 556 -1628 
Q 328 -1628 166 -1578 
L 166 -1041 
Q 344 -1109 509 -1109 
Q 925 -1109 1131 -622 
L 1397 6 
L 41 3456 
L 719 3456 
L 1622 859 
L 1697 575 
L 1713 575 
Q 1731 672 1788 853 
L 2731 3456 
L 3359 3456 
z
" transform="scale(0.015625)"/>
      </defs>
      <use xlink:href="#MicrosoftYaHei-79"/>
      <use xlink:href="#MicrosoftYaHei-20" transform="translate(52.929688 0)"/>
      <use xlink:href="#MicrosoftYaHei-2f" transform="translate(82.519531 0)"/>
      <use xlink:href="#MicrosoftYaHei-20" transform="translate(125.244141 0)"/>
      <use xlink:href="#MicrosoftYaHei-6d" transform="translate(154.833984 0)"/>
     </g>
    </g>
   </g>
   <g id="line2d_21">
    <path d="M 324.448023 61.226439 
L 237.648196 195.35183 
" clip-path="url(#p18b7fadf2a)" style="fill: none; stroke: #216782; stroke-opacity: 0.5; stroke-width: 0.8; stroke-linecap: square"/>
   </g>
   <g id="line2d_22">
    <path d="M 300.872909 68.900245 
L 238.077716 193.827366 
" clip-path="url(#p18b7fadf2a)" style="fill: none; stroke: #216782; stroke-opacity: 0.5; stroke-width: 0.8; stroke-linecap: square"/>
   </g>
   <g id="line2d_23">
    <path d="M 100.673655 232.858475 
L 254.277198 180.589401 
" clip-path="url(#p18b7fadf2a)" style="fill: none; stroke: #216782; stroke-opacity: 0.5; stroke-width: 0.8; stroke-linecap: square"/>
   </g>
   <g id="line2d_24">
    <path d="M 124.465811 249.353699 
L 253.49143 181.449621 
" clip-path="url(#p18b7fadf2a)" style="fill: none; stroke: #216782; stroke-opacity: 0.5; stroke-width: 0.8; stroke-linecap: square"/>
   </g>
   <g id="line2d_25">
    <path d="M 93.42602 285.805149 
L 256.456391 178.881541 
" clip-path="url(#p18b7fadf2a)" style="fill: none; stroke: #216782; stroke-opacity: 0.5; stroke-width: 0.8; stroke-linecap: square"/>
   </g>
   <g id="line2d_26">
    <path d="M 244.076942 301.438561 
L 243.385083 175.356369 
" clip-path="url(#p18b7fadf2a)" style="fill: none; stroke: #216782; stroke-opacity: 0.5; stroke-width: 0.8; stroke-linecap: square"/>
   </g>
   <g id="patch_9">
    <path d="M 56.4625 339.8725 
L 56.4625 22.7925 
" style="fill: none; stroke: #000000; stroke-width: 0.8; stroke-linejoin: miter; stroke-linecap: square"/>
   </g>
   <g id="patch_10">
    <path d="M 361.411544 339.8725 
L 361.411544 22.7925 
" style="fill: none; stroke: #000000; stroke-width: 0.8; stroke-linejoin: miter; stroke-linecap: square"/>
   </g>
   <g id="patch_11">
    <path d="M 56.4625 339.8725 
L 361.411544 339.8725 
" style="fill: none; stroke: #000000; stroke-width: 0.8; stroke-linejoin: miter; stroke-linecap: square"/>
   </g>
   <g id="patch_12">
    <path d="M 56.4625 22.7925 
L 361.411544 22.7925 
" style="fill: none; stroke: #000000; stroke-width: 0.8; stroke-linejoin: miter; stroke-linecap: square"/>
   </g>
   <g id="text_13">
    <!-- $S_1$ -->
    <g transform="translate(329.448023 55.226439) scale(0.09 -0.09)">
     <defs>
      <path id="DejaVuSans-Oblique-53" d="M 3859 4513 
L 3738 3897 
Q 3422 4066 3111 4152 
Q 2800 4238 2509 4238 
Q 1944 4238 1609 3991 
Q 1275 3744 1275 3334 
Q 1275 3109 1398 2989 
Q 1522 2869 2034 2731 
L 2413 2638 
Q 3053 2472 3303 2217 
Q 3553 1963 3553 1503 
Q 3553 797 2998 353 
Q 2444 -91 1538 -91 
Q 1166 -91 791 -17 
Q 416 56 38 206 
L 166 856 
Q 513 641 861 531 
Q 1209 422 1556 422 
Q 2147 422 2503 684 
Q 2859 947 2859 1369 
Q 2859 1650 2717 1795 
Q 2575 1941 2106 2059 
L 1728 2156 
Q 1081 2325 845 2545 
Q 609 2766 609 3163 
Q 609 3859 1145 4304 
Q 1681 4750 2541 4750 
Q 2875 4750 3203 4690 
Q 3531 4631 3859 4513 
z
" transform="scale(0.015625)"/>
      <path id="DejaVuSans-31" d="M 794 531 
L 1825 531 
L 1825 4091 
L 703 3866 
L 703 4441 
L 1819 4666 
L 2450 4666 
L 2450 531 
L 3481 531 
L 3481 0 
L 794 0 
L 794 531 
z
" transform="scale(0.015625)"/>
     </defs>
     <use xlink:href="#DejaVuSans-Oblique-53" transform="translate(0 0.78125)"/>
     <use xlink:href="#DejaVuSans-31" transform="translate(63.476562 -15.625) scale(0.7)"/>
    </g>
   </g>
   <g id="text_14">
    <!-- $S_2$ -->
    <g transform="translate(305.872909 62.900245) scale(0.09 -0.09)">
     <defs>
      <path id="DejaVuSans-32" d="M 1228 531 
L 3431 531 
L 3431 0 
L 469 0 
L 469 531 
Q 828 903 1448 1529 
Q 2069 2156 2228 2338 
Q 2531 2678 2651 2914 
Q 2772 3150 2772 3378 
Q 2772 3750 2511 3984 
Q 2250 4219 1831 4219 
Q 1534 4219 1204 4116 
Q 875 4013 500 3803 
L 500 4441 
Q 881 4594 1212 4672 
Q 1544 4750 1819 4750 
Q 2544 4750 2975 4387 
Q 3406 4025 3406 3419 
Q 3406 3131 3298 2873 
Q 3191 2616 2906 2266 
Q 2828 2175 2409 1742 
Q 1991 1309 1228 531 
z
" transform="scale(0.015625)"/>
     </defs>
     <use xlink:href="#DejaVuSans-Oblique-53" transform="translate(0 0.78125)"/>
     <use xlink:href="#DejaVuSans-32" transform="translate(63.476562 -15.625) scale(0.7)"/>
    </g>
   </g>
   <g id="text_15">
    <!-- $S_3$ -->
    <g transform="translate(105.673655 226.858475) scale(0.09 -0.09)">
     <defs>
      <path id="DejaVuSans-33" d="M 2597 2516 
Q 3050 2419 3304 2112 
Q 3559 1806 3559 1356 
Q 3559 666 3084 287 
Q 2609 -91 1734 -91 
Q 1441 -91 1130 -33 
Q 819 25 488 141 
L 488 750 
Q 750 597 1062 519 
Q 1375 441 1716 441 
Q 2309 441 2620 675 
Q 2931 909 2931 1356 
Q 2931 1769 2642 2001 
Q 2353 2234 1838 2234 
L 1294 2234 
L 1294 2753 
L 1863 2753 
Q 2328 2753 2575 2939 
Q 2822 3125 2822 3475 
Q 2822 3834 2567 4026 
Q 2313 4219 1838 4219 
Q 1578 4219 1281 4162 
Q 984 4106 628 3988 
L 628 4550 
Q 988 4650 1302 4700 
Q 1616 4750 1894 4750 
Q 2613 4750 3031 4423 
Q 3450 4097 3450 3541 
Q 3450 3153 3228 2886 
Q 3006 2619 2597 2516 
z
" transform="scale(0.015625)"/>
     </defs>
     <use xlink:href="#DejaVuSans-Oblique-53" transform="translate(0 0.78125)"/>
     <use xlink:href="#DejaVuSans-33" transform="translate(63.476562 -15.625) scale(0.7)"/>
    </g>
   </g>
   <g id="text_16">
    <!-- $S_4$ -->
    <g transform="translate(129.465811 243.353699) scale(0.09 -0.09)">
     <defs>
      <path id="DejaVuSans-34" d="M 2419 4116 
L 825 1625 
L 2419 1625 
L 2419 4116 
z
M 2253 4666 
L 3047 4666 
L 3047 1625 
L 3713 1625 
L 3713 1100 
L 3047 1100 
L 3047 0 
L 2419 0 
L 2419 1100 
L 313 1100 
L 313 1709 
L 2253 4666 
z
" transform="scale(0.015625)"/>
     </defs>
     <use xlink:href="#DejaVuSans-Oblique-53" transform="translate(0 0.78125)"/>
     <use xlink:href="#DejaVuSans-34" transform="translate(63.476562 -15.625) scale(0.7)"/>
    </g>
   </g>
   <g id="text_17">
    <!-- $S_5$ -->
    <g transform="translate(98.42602 279.805149) scale(0.09 -0.09)">
     <defs>
      <path id="DejaVuSans-35" d="M 691 4666 
L 3169 4666 
L 3169 4134 
L 1269 4134 
L 1269 2991 
Q 1406 3038 1543 3061 
Q 1681 3084 1819 3084 
Q 2600 3084 3056 2656 
Q 3513 2228 3513 1497 
Q 3513 744 3044 326 
Q 2575 -91 1722 -91 
Q 1428 -91 1123 -41 
Q 819 9 494 109 
L 494 744 
Q 775 591 1075 516 
Q 1375 441 1709 441 
Q 2250 441 2565 725 
Q 2881 1009 2881 1497 
Q 2881 1984 2565 2268 
Q 2250 2553 1709 2553 
Q 1456 2553 1204 2497 
Q 953 2441 691 2322 
L 691 4666 
z
" transform="scale(0.015625)"/>
     </defs>
     <use xlink:href="#DejaVuSans-Oblique-53" transform="translate(0 0.78125)"/>
     <use xlink:href="#DejaVuSans-35" transform="translate(63.476562 -15.625) scale(0.7)"/>
    </g>
   </g>
   <g id="text_18">
    <!-- $S_6$ -->
    <g transform="translate(249.076942 295.438561) scale(0.09 -0.09)">
     <defs>
      <path id="DejaVuSans-36" d="M 2113 2584 
Q 1688 2584 1439 2293 
Q 1191 2003 1191 1497 
Q 1191 994 1439 701 
Q 1688 409 2113 409 
Q 2538 409 2786 701 
Q 3034 994 3034 1497 
Q 3034 2003 2786 2293 
Q 2538 2584 2113 2584 
z
M 3366 4563 
L 3366 3988 
Q 3128 4100 2886 4159 
Q 2644 4219 2406 4219 
Q 1781 4219 1451 3797 
Q 1122 3375 1075 2522 
Q 1259 2794 1537 2939 
Q 1816 3084 2150 3084 
Q 2853 3084 3261 2657 
Q 3669 2231 3669 1497 
Q 3669 778 3244 343 
Q 2819 -91 2113 -91 
Q 1303 -91 875 529 
Q 447 1150 447 2328 
Q 447 3434 972 4092 
Q 1497 4750 2381 4750 
Q 2619 4750 2861 4703 
Q 3103 4656 3366 4563 
z
" transform="scale(0.015625)"/>
     </defs>
     <use xlink:href="#DejaVuSans-Oblique-53" transform="translate(0 0.78125)"/>
     <use xlink:href="#DejaVuSans-36" transform="translate(63.476562 -15.625) scale(0.7)"/>
    </g>
   </g>
   <g id="text_19">
    <!-- 案例 A：六测点与 ±1° 角域 -->
    <g transform="translate(134.973897 16.7925) scale(0.12 -0.12)">
     <defs>
      <path id="MicrosoftYaHei-6848" d="M 419 1822 
Q 1925 1994 2766 2219 
Q 2016 2419 1250 2609 
Q 1506 2884 1738 3153 
L 250 3153 
L 250 3566 
L 2075 3566 
Q 2313 3866 2513 4159 
L 3019 4016 
Q 2850 3791 2659 3566 
L 6150 3566 
L 6150 3153 
L 4806 3153 
Q 4509 2625 4003 2297 
Q 4897 2063 5681 1847 
L 5481 1428 
Q 4491 1741 3466 2025 
Q 2516 1650 600 1409 
Q 525 1609 419 1822 
z
M 6319 -197 
Q 6106 -447 5956 -666 
Q 4306 -172 3425 544 
L 3425 -866 
L 2975 -866 
L 2975 534 
Q 2028 -134 456 -672 
Q 313 -491 94 -247 
Q 1706 156 2647 747 
L 238 747 
L 238 1166 
L 2975 1166 
L 2975 1678 
L 3425 1678 
L 3425 1166 
L 6200 1166 
L 6200 747 
L 3766 747 
Q 4753 81 6319 -197 
z
M 419 4734 
L 3038 4734 
Q 2919 4950 2763 5178 
L 3206 5378 
Q 3409 5059 3591 4734 
L 5975 4734 
L 5975 3791 
L 5500 3791 
L 5500 4322 
L 894 4322 
L 894 3791 
L 419 3791 
L 419 4734 
z
M 1963 2809 
Q 2725 2622 3425 2444 
Q 3975 2688 4284 3153 
L 2294 3153 
Q 2134 2981 1963 2809 
z
" transform="scale(0.015625)"/>
      <path id="MicrosoftYaHei-4f8b" d="M 2381 1841 
L 2631 2191 
Q 2916 1997 3247 1738 
Q 3488 2378 3581 3128 
L 2703 3128 
Q 2350 1984 1831 1291 
Q 1700 1491 1531 1678 
Q 2238 2694 2578 4522 
L 1900 4522 
L 1900 4959 
L 4319 4959 
L 4319 4522 
L 3044 4522 
Q 2947 4009 2828 3559 
L 4044 3559 
L 4044 3128 
Q 3788 666 2038 -822 
Q 1900 -634 1694 -416 
Q 2578 297 3063 1303 
Q 2753 1556 2381 1841 
z
M 88 2291 
Q 894 3659 1281 5322 
L 1744 5234 
Q 1578 4534 1325 3853 
L 1325 -809 
L 900 -809 
L 900 2847 
Q 625 2275 288 1716 
Q 213 1966 88 2291 
z
M 5575 5303 
L 6031 5303 
L 6031 84 
Q 6031 -391 5881 -566 
Q 5750 -728 5356 -734 
Q 5088 -741 4488 -722 
Q 4463 -466 4400 -203 
Q 4881 -253 5188 -253 
Q 5431 -259 5500 -166 
Q 5575 -84 5575 234 
L 5575 5303 
z
M 4913 653 
L 4469 653 
L 4469 4322 
L 4913 4322 
L 4913 653 
z
" transform="scale(0.015625)"/>
      <path id="MicrosoftYaHei-41" d="M 4428 0 
L 3738 0 
L 3244 1325 
L 1228 1325 
L 763 0 
L 72 0 
L 1916 4841 
L 2584 4841 
L 4428 0 
z
M 3050 1872 
L 2319 3884 
Q 2284 3981 2244 4222 
L 2228 4222 
Q 2194 4003 2150 3884 
L 1425 1872 
L 3050 1872 
z
" transform="scale(0.015625)"/>
      <path id="MicrosoftYaHei-ff1a" d="M 1606 3531 
Q 1772 3531 1890 3415 
Q 2009 3300 2009 3138 
Q 2009 2975 1893 2858 
Q 1778 2741 1606 2741 
Q 1434 2741 1318 2858 
Q 1203 2975 1203 3138 
Q 1203 3300 1322 3415 
Q 1441 3531 1606 3531 
z
M 1606 716 
Q 1772 716 1890 600 
Q 2009 484 2009 319 
Q 2009 150 1890 36 
Q 1772 -78 1606 -78 
Q 1441 -78 1322 36 
Q 1203 150 1203 319 
Q 1203 484 1322 600 
Q 1441 716 1606 716 
z
" transform="scale(0.015625)"/>
      <path id="MicrosoftYaHei-516d" d="M 188 3703 
L 6256 3703 
L 6256 3203 
L 188 3203 
L 188 3703 
z
M 2563 5022 
L 3019 5278 
Q 3319 4853 3744 4147 
L 3231 3872 
Q 2825 4647 2563 5022 
z
M 2063 2466 
L 2600 2184 
Q 1750 659 638 -703 
Q 438 -528 169 -309 
Q 1250 853 2063 2466 
z
M 3756 2103 
L 4188 2422 
Q 5213 1141 6175 -247 
L 5650 -634 
Q 4575 1059 3756 2103 
z
" transform="scale(0.015625)"/>
      <path id="MicrosoftYaHei-6d4b" d="M 875 1753 
Q 1175 1597 1369 1522 
Q 950 -41 763 -784 
L 250 -547 
Q 619 497 875 1753 
z
M 638 5166 
Q 1019 4847 1588 4303 
Q 1381 4103 1213 3928 
Q 756 4434 313 4853 
L 638 5166 
z
M 356 3559 
Q 881 3134 1350 2716 
Q 1188 2547 988 2322 
Q 425 2878 50 3216 
L 356 3559 
z
M 5575 5284 
L 6031 5284 
L 6031 -34 
Q 6031 -753 5338 -753 
Q 5038 -753 4625 -741 
Q 4600 -509 4538 -228 
Q 4938 -272 5219 -272 
Q 5575 -272 5575 84 
L 5575 5284 
z
M 5038 634 
L 4600 634 
L 4600 4778 
L 5038 4778 
L 5038 634 
z
M 1706 4941 
L 4063 4941 
L 4063 991 
L 3613 991 
L 3613 4503 
L 2156 4503 
L 2156 991 
L 1706 991 
L 1706 4941 
z
M 2681 3966 
L 3138 3966 
L 3138 2416 
Q 3138 1466 2963 891 
Q 3775 266 4375 -234 
L 4038 -616 
Q 3538 -141 2800 472 
Q 2413 -297 1406 -884 
Q 1269 -684 1100 -484 
Q 2031 53 2375 709 
Q 2681 1278 2681 2403 
L 2681 3966 
z
" transform="scale(0.015625)"/>
      <path id="MicrosoftYaHei-70b9" d="M 900 3378 
L 2863 3378 
L 2863 5341 
L 3388 5341 
L 3388 4591 
L 6181 4591 
L 6181 4141 
L 3388 4141 
L 3388 3378 
L 5600 3378 
L 5600 991 
L 5088 991 
L 5088 1253 
L 1413 1253 
L 1413 991 
L 900 991 
L 900 3378 
z
M 5088 2928 
L 1413 2928 
L 1413 1703 
L 5088 1703 
L 5088 2928 
z
M 5425 847 
Q 5925 91 6225 -516 
L 5750 -772 
Q 5438 -134 4994 622 
L 5425 847 
z
M 1369 553 
Q 894 -303 531 -791 
L 100 -484 
Q 506 53 931 803 
L 1369 553 
z
M 2413 828 
Q 2700 197 2913 -503 
L 2406 -678 
Q 2213 3 1963 666 
L 2413 828 
z
M 3906 872 
Q 4206 253 4450 -422 
L 3956 -616 
Q 3781 -53 3450 697 
L 3906 872 
z
" transform="scale(0.015625)"/>
      <path id="MicrosoftYaHei-4e0e" d="M 1163 2384 
L 1163 2859 
L 1413 5328 
L 1931 5328 
L 1834 4334 
L 6269 4334 
L 6269 3859 
L 1791 3859 
L 1694 2859 
L 5813 2859 
Q 5738 1547 5644 416 
Q 5556 -247 5263 -478 
Q 4981 -703 4322 -703 
Q 3706 -697 2900 -678 
Q 2863 -466 2794 -134 
Q 3744 -203 4213 -209 
Q 5050 -266 5125 447 
Q 5206 1278 5263 2384 
L 1163 2384 
z
M 106 1409 
L 4738 1409 
L 4738 934 
L 106 934 
L 106 1409 
z
" transform="scale(0.015625)"/>
      <path id="MicrosoftYaHei-b1" d="M 3972 2216 
L 2613 2216 
L 2613 859 
L 2147 859 
L 2147 2216 
L 788 2216 
L 788 2691 
L 2147 2691 
L 2147 4047 
L 2613 4047 
L 2613 2691 
L 3972 2691 
L 3972 2216 
z
M 3972 0 
L 788 0 
L 788 475 
L 3972 475 
L 3972 0 
z
" transform="scale(0.015625)"/>
      <path id="MicrosoftYaHei-b0" d="M 1306 4894 
Q 1691 4894 1967 4620 
Q 2244 4347 2244 3959 
Q 2244 3569 1967 3295 
Q 1691 3022 1306 3022 
Q 922 3022 645 3295 
Q 369 3569 369 3959 
Q 369 4347 645 4620 
Q 922 4894 1306 4894 
z
M 1306 3438 
Q 1522 3438 1675 3592 
Q 1828 3747 1828 3959 
Q 1828 4175 1673 4326 
Q 1519 4478 1306 4478 
Q 1094 4478 941 4326 
Q 788 4175 788 3959 
Q 788 3747 939 3592 
Q 1091 3438 1306 3438 
z
" transform="scale(0.015625)"/>
      <path id="MicrosoftYaHei-89d2" d="M 94 3266 
Q 1263 4153 1981 5384 
L 2488 5247 
Q 2344 5013 2188 4791 
L 4694 4791 
L 4694 4347 
Q 4406 4034 4094 3691 
L 5794 3691 
L 5794 28 
Q 5794 -741 5075 -741 
Q 4675 -741 4169 -728 
Q 4131 -497 4081 -216 
Q 4525 -247 4888 -247 
Q 5300 -247 5300 122 
L 5300 741 
L 3556 741 
L 3556 -703 
L 3063 -703 
L 3063 741 
L 1303 741 
Q 1119 -325 594 -897 
Q 413 -684 219 -478 
Q 913 228 913 2009 
L 913 3319 
Q 700 3122 475 2934 
Q 306 3091 94 3266 
z
M 4063 4353 
L 1863 4353 
Q 1594 4009 1288 3691 
L 3494 3691 
Q 3806 4050 4063 4353 
z
M 5300 3241 
L 3556 3241 
L 3556 2428 
L 5300 2428 
L 5300 3241 
z
M 3556 1178 
L 5300 1178 
L 5300 1991 
L 3556 1991 
L 3556 1178 
z
M 1366 1178 
L 3063 1178 
L 3063 1991 
L 1406 1991 
Q 1403 1556 1366 1178 
z
M 1406 3241 
L 1406 2428 
L 3063 2428 
L 3063 3241 
L 1406 3241 
z
" transform="scale(0.015625)"/>
      <path id="MicrosoftYaHei-57df" d="M 3231 -522 
Q 3941 63 4484 841 
Q 4269 1816 4219 3803 
L 2025 3803 
L 2025 4241 
L 4206 4241 
Q 4197 4747 4194 5328 
L 4675 5328 
Q 4669 4759 4675 4241 
L 6219 4241 
L 6219 3803 
L 4684 3803 
Q 4716 2384 4853 1419 
Q 5300 2191 5606 3122 
L 6050 2934 
Q 5572 1691 4981 763 
Q 5113 269 5313 -41 
Q 5481 -309 5600 -309 
Q 5713 -309 5756 -41 
Q 5813 284 5844 934 
Q 6113 828 6313 772 
Q 6225 34 6163 -272 
Q 6056 -822 5656 -828 
Q 5350 -822 5088 -522 
Q 4828 -234 4647 275 
Q 4169 -372 3625 -834 
Q 3450 -684 3231 -522 
z
M 69 441 
Q 478 566 875 697 
L 875 3141 
L 138 3141 
L 138 3578 
L 875 3578 
L 875 5316 
L 1338 5316 
L 1338 3578 
L 2031 3578 
L 2031 3141 
L 1338 3141 
L 1338 853 
Q 1666 966 1988 1084 
Q 1988 1016 2031 622 
Q 1156 303 188 -66 
L 69 441 
z
M 2175 3103 
L 3769 3103 
L 3769 1159 
L 3338 1159 
L 3338 1303 
L 2606 1303 
L 2606 1084 
L 2175 1084 
L 2175 3103 
z
M 1694 353 
Q 2825 528 3981 766 
Q 3975 666 4006 341 
Q 3081 172 1856 -84 
L 1694 353 
z
M 3338 2703 
L 2606 2703 
L 2606 1703 
L 3338 1703 
L 3338 2703 
z
M 5188 5241 
Q 5650 4916 5931 4666 
L 5644 4334 
Q 5363 4603 4919 4953 
L 5188 5241 
z
" transform="scale(0.015625)"/>
     </defs>
     <use xlink:href="#MicrosoftYaHei-6848"/>
     <use xlink:href="#MicrosoftYaHei-4f8b" transform="translate(100 0)"/>
     <use xlink:href="#MicrosoftYaHei-20" transform="translate(200 0)"/>
     <use xlink:href="#MicrosoftYaHei-41" transform="translate(229.589844 0)"/>
     <use xlink:href="#MicrosoftYaHei-ff1a" transform="translate(299.951172 0)"/>
     <use xlink:href="#MicrosoftYaHei-516d" transform="translate(399.951172 0)"/>
     <use xlink:href="#MicrosoftYaHei-6d4b" transform="translate(499.951172 0)"/>
     <use xlink:href="#MicrosoftYaHei-70b9" transform="translate(599.951172 0)"/>
     <use xlink:href="#MicrosoftYaHei-4e0e" transform="translate(699.951172 0)"/>
     <use xlink:href="#MicrosoftYaHei-20" transform="translate(799.951172 0)"/>
     <use xlink:href="#MicrosoftYaHei-b1" transform="translate(829.541016 0)"/>
     <use xlink:href="#MicrosoftYaHei-31" transform="translate(903.710938 0)"/>
     <use xlink:href="#MicrosoftYaHei-b0" transform="translate(962.353516 0)"/>
     <use xlink:href="#MicrosoftYaHei-20" transform="translate(1003.125 0)"/>
     <use xlink:href="#MicrosoftYaHei-89d2" transform="translate(1032.714844 0)"/>
     <use xlink:href="#MicrosoftYaHei-57df" transform="translate(1132.714844 0)"/>
    </g>
   </g>
  </g>
  <g id="axes_2">
   <g id="patch_13">
    <path d="M 453.491306 339.8725 
L 742.535532 339.8725 
L 742.535532 22.7925 
L 453.491306 22.7925 
z
" style="fill: #ffffff"/>
   </g>
   <g id="patch_14">
    <path d="M 703.125726 61.226439 
L 624.388984 186.977951 
L 628.825613 189.64922 
z
" clip-path="url(#p24ee4e3294)" style="fill: #216782; opacity: 0.13; stroke: #216782; stroke-linejoin: miter"/>
   </g>
   <g id="PathCollection_8">
    <g clip-path="url(#p24ee4e3294)">
     <use xlink:href="#m164b9e1c60" x="703.125726" y="61.226439" style="fill: #216782; stroke: #216782"/>
    </g>
   </g>
   <g id="patch_15">
    <path d="M 635.10954 111.498628 
L 630.290529 184.00639 
L 632.823949 184.130401 
z
" clip-path="url(#p24ee4e3294)" style="fill: #216782; opacity: 0.13; stroke: #216782; stroke-linejoin: miter"/>
   </g>
   <g id="PathCollection_9">
    <g clip-path="url(#p24ee4e3294)">
     <use xlink:href="#m164b9e1c60" x="635.10954" y="111.498628" style="fill: #216782; stroke: #216782"/>
    </g>
   </g>
   <g id="patch_16">
    <path d="M 488.52697 130.337645 
L 642.136754 186.150504 
L 643.991019 180.7556 
z
" clip-path="url(#p24ee4e3294)" style="fill: #216782; opacity: 0.13; stroke: #216782; stroke-linejoin: miter"/>
   </g>
   <g id="PathCollection_10">
    <g clip-path="url(#p24ee4e3294)">
     <use xlink:href="#m164b9e1c60" x="488.52697" y="130.337645" style="fill: #216782; stroke: #216782"/>
    </g>
   </g>
   <g id="patch_17">
    <path d="M 576.023555 194.318242 
L 636.559674 178.083821 
L 635.956224 175.981031 
z
" clip-path="url(#p24ee4e3294)" style="fill: #216782; opacity: 0.13; stroke: #216782; stroke-linejoin: miter"/>
   </g>
   <g id="PathCollection_11">
    <g clip-path="url(#p24ee4e3294)">
     <use xlink:href="#m164b9e1c60" x="576.023555" y="194.318242" style="fill: #216782; stroke: #216782"/>
    </g>
   </g>
   <g id="patch_18">
    <path d="M 696.530438 301.438561 
L 627.244738 168.629035 
L 622.651959 171.127975 
z
" clip-path="url(#p24ee4e3294)" style="fill: #216782; opacity: 0.13; stroke: #216782; stroke-linejoin: miter"/>
   </g>
   <g id="PathCollection_12">
    <g clip-path="url(#p24ee4e3294)">
     <use xlink:href="#m164b9e1c60" x="696.530438" y="301.438561" style="fill: #216782; stroke: #216782"/>
    </g>
   </g>
   <g id="patch_19">
    <path d="M 707.499868 204.85371 
L 626.193184 175.700069 
L 625.225267 178.555391 
z
" clip-path="url(#p24ee4e3294)" style="fill: #216782; opacity: 0.13; stroke: #216782; stroke-linejoin: miter"/>
   </g>
   <g id="PathCollection_13">
    <g clip-path="url(#p24ee4e3294)">
     <use xlink:href="#m164b9e1c60" x="707.499868" y="204.85371" style="fill: #216782; stroke: #216782"/>
    </g>
   </g>
   <g id="PathCollection_14">
    <g clip-path="url(#p24ee4e3294)">
     <use xlink:href="#m98f3cd64ab" x="631.917144" y="178.707784" style="fill: #c24543; stroke: #c24543"/>
    </g>
   </g>
   <g id="matplotlib.axis_3">
    <g id="xtick_6">
     <g id="line2d_27">
      <path d="M 494.51759 339.8725 
L 494.51759 22.7925 
" clip-path="url(#p24ee4e3294)" style="fill: none; stroke: #b0b0b0; stroke-opacity: 0.18; stroke-width: 0.8; stroke-linecap: square"/>
     </g>
     <g id="line2d_28">
      <g>
       <use xlink:href="#m9202d47861" x="494.51759" y="339.8725" style="stroke: #000000; stroke-width: 0.8"/>
      </g>
     </g>
     <g id="text_20">
      <!-- -1000 -->
      <g transform="translate(480.626184 354.86625) scale(0.1 -0.1)">
       <use xlink:href="#MicrosoftYaHei-2d"/>
       <use xlink:href="#MicrosoftYaHei-31" transform="translate(43.261719 0)"/>
       <use xlink:href="#MicrosoftYaHei-30" transform="translate(101.904297 0)"/>
       <use xlink:href="#MicrosoftYaHei-30" transform="translate(160.546875 0)"/>
       <use xlink:href="#MicrosoftYaHei-30" transform="translate(219.189453 0)"/>
      </g>
     </g>
    </g>
    <g id="xtick_7">
     <g id="line2d_29">
      <path d="M 549.477412 339.8725 
L 549.477412 22.7925 
" clip-path="url(#p24ee4e3294)" style="fill: none; stroke: #b0b0b0; stroke-opacity: 0.18; stroke-width: 0.8; stroke-linecap: square"/>
     </g>
     <g id="line2d_30">
      <g>
       <use xlink:href="#m9202d47861" x="549.477412" y="339.8725" style="stroke: #000000; stroke-width: 0.8"/>
      </g>
     </g>
     <g id="text_21">
      <!-- -500 -->
      <g transform="translate(538.518037 354.86625) scale(0.1 -0.1)">
       <use xlink:href="#MicrosoftYaHei-2d"/>
       <use xlink:href="#MicrosoftYaHei-35" transform="translate(43.261719 0)"/>
       <use xlink:href="#MicrosoftYaHei-30" transform="translate(101.904297 0)"/>
       <use xlink:href="#MicrosoftYaHei-30" transform="translate(160.546875 0)"/>
      </g>
     </g>
    </g>
    <g id="xtick_8">
     <g id="line2d_31">
      <path d="M 604.437233 339.8725 
L 604.437233 22.7925 
" clip-path="url(#p24ee4e3294)" style="fill: none; stroke: #b0b0b0; stroke-opacity: 0.18; stroke-width: 0.8; stroke-linecap: square"/>
     </g>
     <g id="line2d_32">
      <g>
       <use xlink:href="#m9202d47861" x="604.437233" y="339.8725" style="stroke: #000000; stroke-width: 0.8"/>
      </g>
     </g>
     <g id="text_22">
      <!-- 0 -->
      <g transform="translate(601.505202 354.86625) scale(0.1 -0.1)">
       <use xlink:href="#MicrosoftYaHei-30"/>
      </g>
     </g>
    </g>
    <g id="xtick_9">
     <g id="line2d_33">
      <path d="M 659.397054 339.8725 
L 659.397054 22.7925 
" clip-path="url(#p24ee4e3294)" style="fill: none; stroke: #b0b0b0; stroke-opacity: 0.18; stroke-width: 0.8; stroke-linecap: square"/>
     </g>
     <g id="line2d_34">
      <g>
       <use xlink:href="#m9202d47861" x="659.397054" y="339.8725" style="stroke: #000000; stroke-width: 0.8"/>
      </g>
     </g>
     <g id="text_23">
      <!-- 500 -->
      <g transform="translate(650.60096 354.86625) scale(0.1 -0.1)">
       <use xlink:href="#MicrosoftYaHei-35"/>
       <use xlink:href="#MicrosoftYaHei-30" transform="translate(58.642578 0)"/>
       <use xlink:href="#MicrosoftYaHei-30" transform="translate(117.285156 0)"/>
      </g>
     </g>
    </g>
    <g id="xtick_10">
     <g id="line2d_35">
      <path d="M 714.356875 339.8725 
L 714.356875 22.7925 
" clip-path="url(#p24ee4e3294)" style="fill: none; stroke: #b0b0b0; stroke-opacity: 0.18; stroke-width: 0.8; stroke-linecap: square"/>
     </g>
     <g id="line2d_36">
      <g>
       <use xlink:href="#m9202d47861" x="714.356875" y="339.8725" style="stroke: #000000; stroke-width: 0.8"/>
      </g>
     </g>
     <g id="text_24">
      <!-- 1000 -->
      <g transform="translate(702.62875 354.86625) scale(0.1 -0.1)">
       <use xlink:href="#MicrosoftYaHei-31"/>
       <use xlink:href="#MicrosoftYaHei-30" transform="translate(58.642578 0)"/>
       <use xlink:href="#MicrosoftYaHei-30" transform="translate(117.285156 0)"/>
       <use xlink:href="#MicrosoftYaHei-30" transform="translate(175.927734 0)"/>
      </g>
     </g>
    </g>
    <g id="text_25">
     <!-- x / m -->
     <g transform="translate(585.698575 369.345937) scale(0.1 -0.1)">
      <use xlink:href="#MicrosoftYaHei-78"/>
      <use xlink:href="#MicrosoftYaHei-20" transform="translate(50.683594 0)"/>
      <use xlink:href="#MicrosoftYaHei-2f" transform="translate(80.273438 0)"/>
      <use xlink:href="#MicrosoftYaHei-20" transform="translate(122.998047 0)"/>
      <use xlink:href="#MicrosoftYaHei-6d" transform="translate(152.587891 0)"/>
     </g>
    </g>
   </g>
   <g id="matplotlib.axis_4">
    <g id="ytick_6">
     <g id="line2d_37">
      <path d="M 453.491306 327.099301 
L 742.535532 327.099301 
" clip-path="url(#p24ee4e3294)" style="fill: none; stroke: #b0b0b0; stroke-opacity: 0.18; stroke-width: 0.8; stroke-linecap: square"/>
     </g>
     <g id="line2d_38">
      <g>
       <use xlink:href="#m1d997347f5" x="453.491306" y="327.099301" style="stroke: #000000; stroke-width: 0.8"/>
      </g>
     </g>
     <g id="text_26">
      <!-- -1500 -->
      <g transform="translate(418.708494 331.096176) scale(0.1 -0.1)">
       <use xlink:href="#MicrosoftYaHei-2d"/>
       <use xlink:href="#MicrosoftYaHei-31" transform="translate(43.261719 0)"/>
       <use xlink:href="#MicrosoftYaHei-35" transform="translate(101.904297 0)"/>
       <use xlink:href="#MicrosoftYaHei-30" transform="translate(160.546875 0)"/>
       <use xlink:href="#MicrosoftYaHei-30" transform="translate(219.189453 0)"/>
      </g>
     </g>
    </g>
    <g id="ytick_7">
     <g id="line2d_39">
      <path d="M 453.491306 272.13948 
L 742.535532 272.13948 
" clip-path="url(#p24ee4e3294)" style="fill: none; stroke: #b0b0b0; stroke-opacity: 0.18; stroke-width: 0.8; stroke-linecap: square"/>
     </g>
     <g id="line2d_40">
      <g>
       <use xlink:href="#m1d997347f5" x="453.491306" y="272.13948" style="stroke: #000000; stroke-width: 0.8"/>
      </g>
     </g>
     <g id="text_27">
      <!-- -1000 -->
      <g transform="translate(418.708494 276.136355) scale(0.1 -0.1)">
       <use xlink:href="#MicrosoftYaHei-2d"/>
       <use xlink:href="#MicrosoftYaHei-31" transform="translate(43.261719 0)"/>
       <use xlink:href="#MicrosoftYaHei-30" transform="translate(101.904297 0)"/>
       <use xlink:href="#MicrosoftYaHei-30" transform="translate(160.546875 0)"/>
       <use xlink:href="#MicrosoftYaHei-30" transform="translate(219.189453 0)"/>
      </g>
     </g>
    </g>
    <g id="ytick_8">
     <g id="line2d_41">
      <path d="M 453.491306 217.179659 
L 742.535532 217.179659 
" clip-path="url(#p24ee4e3294)" style="fill: none; stroke: #b0b0b0; stroke-opacity: 0.18; stroke-width: 0.8; stroke-linecap: square"/>
     </g>
     <g id="line2d_42">
      <g>
       <use xlink:href="#m1d997347f5" x="453.491306" y="217.179659" style="stroke: #000000; stroke-width: 0.8"/>
      </g>
     </g>
     <g id="text_28">
      <!-- -500 -->
      <g transform="translate(424.572556 221.176534) scale(0.1 -0.1)">
       <use xlink:href="#MicrosoftYaHei-2d"/>
       <use xlink:href="#MicrosoftYaHei-35" transform="translate(43.261719 0)"/>
       <use xlink:href="#MicrosoftYaHei-30" transform="translate(101.904297 0)"/>
       <use xlink:href="#MicrosoftYaHei-30" transform="translate(160.546875 0)"/>
      </g>
     </g>
    </g>
    <g id="ytick_9">
     <g id="line2d_43">
      <path d="M 453.491306 162.219837 
L 742.535532 162.219837 
" clip-path="url(#p24ee4e3294)" style="fill: none; stroke: #b0b0b0; stroke-opacity: 0.18; stroke-width: 0.8; stroke-linecap: square"/>
     </g>
     <g id="line2d_44">
      <g>
       <use xlink:href="#m1d997347f5" x="453.491306" y="162.219837" style="stroke: #000000; stroke-width: 0.8"/>
      </g>
     </g>
     <g id="text_29">
      <!-- 0 -->
      <g transform="translate(440.627244 166.216712) scale(0.1 -0.1)">
       <use xlink:href="#MicrosoftYaHei-30"/>
      </g>
     </g>
    </g>
    <g id="ytick_10">
     <g id="line2d_45">
      <path d="M 453.491306 107.260016 
L 742.535532 107.260016 
" clip-path="url(#p24ee4e3294)" style="fill: none; stroke: #b0b0b0; stroke-opacity: 0.18; stroke-width: 0.8; stroke-linecap: square"/>
     </g>
     <g id="line2d_46">
      <g>
       <use xlink:href="#m1d997347f5" x="453.491306" y="107.260016" style="stroke: #000000; stroke-width: 0.8"/>
      </g>
     </g>
     <g id="text_30">
      <!-- 500 -->
      <g transform="translate(428.899119 111.256891) scale(0.1 -0.1)">
       <use xlink:href="#MicrosoftYaHei-35"/>
       <use xlink:href="#MicrosoftYaHei-30" transform="translate(58.642578 0)"/>
       <use xlink:href="#MicrosoftYaHei-30" transform="translate(117.285156 0)"/>
      </g>
     </g>
    </g>
    <g id="ytick_11">
     <g id="line2d_47">
      <path d="M 453.491306 52.300195 
L 742.535532 52.300195 
" clip-path="url(#p24ee4e3294)" style="fill: none; stroke: #b0b0b0; stroke-opacity: 0.18; stroke-width: 0.8; stroke-linecap: square"/>
     </g>
     <g id="line2d_48">
      <g>
       <use xlink:href="#m1d997347f5" x="453.491306" y="52.300195" style="stroke: #000000; stroke-width: 0.8"/>
      </g>
     </g>
     <g id="text_31">
      <!-- 1000 -->
      <g transform="translate(423.035056 56.29707) scale(0.1 -0.1)">
       <use xlink:href="#MicrosoftYaHei-31"/>
       <use xlink:href="#MicrosoftYaHei-30" transform="translate(58.642578 0)"/>
       <use xlink:href="#MicrosoftYaHei-30" transform="translate(117.285156 0)"/>
       <use xlink:href="#MicrosoftYaHei-30" transform="translate(175.927734 0)"/>
      </g>
     </g>
    </g>
    <g id="text_32">
     <!-- y / m -->
     <g transform="translate(412.164744 193.759844) rotate(-90) scale(0.1 -0.1)">
      <use xlink:href="#MicrosoftYaHei-79"/>
      <use xlink:href="#MicrosoftYaHei-20" transform="translate(52.929688 0)"/>
      <use xlink:href="#MicrosoftYaHei-2f" transform="translate(82.519531 0)"/>
      <use xlink:href="#MicrosoftYaHei-20" transform="translate(125.244141 0)"/>
      <use xlink:href="#MicrosoftYaHei-6d" transform="translate(154.833984 0)"/>
     </g>
    </g>
   </g>
   <g id="line2d_49">
    <path d="M 703.125726 61.226439 
L 626.595643 188.332944 
" clip-path="url(#p24ee4e3294)" style="fill: none; stroke: #216782; stroke-opacity: 0.5; stroke-width: 0.8; stroke-linecap: square"/>
   </g>
   <g id="line2d_50">
    <path d="M 635.10954 111.498628 
L 631.556698 184.07945 
" clip-path="url(#p24ee4e3294)" style="fill: none; stroke: #216782; stroke-opacity: 0.5; stroke-width: 0.8; stroke-linecap: square"/>
   </g>
   <g id="line2d_51">
    <path d="M 488.52697 130.337645 
L 643.087427 183.461143 
" clip-path="url(#p24ee4e3294)" style="fill: none; stroke: #216782; stroke-opacity: 0.5; stroke-width: 0.8; stroke-linecap: square"/>
   </g>
   <g id="line2d_52">
    <path d="M 576.023555 194.318242 
L 636.267125 177.029793 
" clip-path="url(#p24ee4e3294)" style="fill: none; stroke: #216782; stroke-opacity: 0.5; stroke-width: 0.8; stroke-linecap: square"/>
   </g>
   <g id="line2d_53">
    <path d="M 696.530438 301.438561 
L 624.937445 169.858465 
" clip-path="url(#p24ee4e3294)" style="fill: none; stroke: #216782; stroke-opacity: 0.5; stroke-width: 0.8; stroke-linecap: square"/>
   </g>
   <g id="line2d_54">
    <path d="M 707.499868 204.85371 
L 625.696766 177.123507 
" clip-path="url(#p24ee4e3294)" style="fill: none; stroke: #216782; stroke-opacity: 0.5; stroke-width: 0.8; stroke-linecap: square"/>
   </g>
   <g id="patch_20">
    <path d="M 453.491306 339.8725 
L 453.491306 22.7925 
" style="fill: none; stroke: #000000; stroke-width: 0.8; stroke-linejoin: miter; stroke-linecap: square"/>
   </g>
   <g id="patch_21">
    <path d="M 742.535532 339.8725 
L 742.535532 22.7925 
" style="fill: none; stroke: #000000; stroke-width: 0.8; stroke-linejoin: miter; stroke-linecap: square"/>
   </g>
   <g id="patch_22">
    <path d="M 453.491306 339.8725 
L 742.535532 339.8725 
" style="fill: none; stroke: #000000; stroke-width: 0.8; stroke-linejoin: miter; stroke-linecap: square"/>
   </g>
   <g id="patch_23">
    <path d="M 453.491306 22.7925 
L 742.535532 22.7925 
" style="fill: none; stroke: #000000; stroke-width: 0.8; stroke-linejoin: miter; stroke-linecap: square"/>
   </g>
   <g id="text_33">
    <!-- $S_1$ -->
    <g transform="translate(708.125726 55.226439) scale(0.09 -0.09)">
     <use xlink:href="#DejaVuSans-Oblique-53" transform="translate(0 0.78125)"/>
     <use xlink:href="#DejaVuSans-31" transform="translate(63.476562 -15.625) scale(0.7)"/>
    </g>
   </g>
   <g id="text_34">
    <!-- $S_2$ -->
    <g transform="translate(640.10954 105.498628) scale(0.09 -0.09)">
     <use xlink:href="#DejaVuSans-Oblique-53" transform="translate(0 0.78125)"/>
     <use xlink:href="#DejaVuSans-32" transform="translate(63.476562 -15.625) scale(0.7)"/>
    </g>
   </g>
   <g id="text_35">
    <!-- $S_3$ -->
    <g transform="translate(493.52697 124.337645) scale(0.09 -0.09)">
     <use xlink:href="#DejaVuSans-Oblique-53" transform="translate(0 0.78125)"/>
     <use xlink:href="#DejaVuSans-33" transform="translate(63.476562 -15.625) scale(0.7)"/>
    </g>
   </g>
   <g id="text_36">
    <!-- $S_4$ -->
    <g transform="translate(581.023555 188.318242) scale(0.09 -0.09)">
     <use xlink:href="#DejaVuSans-Oblique-53" transform="translate(0 0.78125)"/>
     <use xlink:href="#DejaVuSans-34" transform="translate(63.476562 -15.625) scale(0.7)"/>
    </g>
   </g>
   <g id="text_37">
    <!-- $S_5$ -->
    <g transform="translate(701.530438 295.438561) scale(0.09 -0.09)">
     <use xlink:href="#DejaVuSans-Oblique-53" transform="translate(0 0.78125)"/>
     <use xlink:href="#DejaVuSans-35" transform="translate(63.476562 -15.625) scale(0.7)"/>
    </g>
   </g>
   <g id="text_38">
    <!-- $S_6$ -->
    <g transform="translate(712.499868 198.85371) scale(0.09 -0.09)">
     <use xlink:href="#DejaVuSans-Oblique-53" transform="translate(0 0.78125)"/>
     <use xlink:href="#DejaVuSans-36" transform="translate(63.476562 -15.625) scale(0.7)"/>
    </g>
   </g>
   <g id="text_39">
    <!-- 案例 B：六测点与 ±1° 角域 -->
    <g transform="translate(524.506857 16.7925) scale(0.12 -0.12)">
     <defs>
      <path id="MicrosoftYaHei-42" d="M 625 0 
L 625 4841 
L 2047 4841 
Q 2684 4841 3065 4536 
Q 3447 4231 3447 3728 
Q 3447 3328 3220 3022 
Q 2994 2716 2597 2588 
L 2597 2575 
Q 3091 2519 3386 2201 
Q 3681 1884 3681 1397 
Q 3681 772 3232 386 
Q 2784 0 2084 0 
L 625 0 
z
M 1250 4294 
L 1250 2778 
L 1819 2778 
Q 2272 2778 2530 2998 
Q 2788 3219 2788 3609 
Q 2788 4294 1875 4294 
L 1250 4294 
z
M 1250 2234 
L 1250 547 
L 2000 547 
Q 2491 547 2758 773 
Q 3025 1000 3025 1403 
Q 3025 2234 1897 2234 
L 1250 2234 
z
" transform="scale(0.015625)"/>
     </defs>
     <use xlink:href="#MicrosoftYaHei-6848"/>
     <use xlink:href="#MicrosoftYaHei-4f8b" transform="translate(100 0)"/>
     <use xlink:href="#MicrosoftYaHei-20" transform="translate(200 0)"/>
     <use xlink:href="#MicrosoftYaHei-42" transform="translate(229.589844 0)"/>
     <use xlink:href="#MicrosoftYaHei-ff1a" transform="translate(292.333984 0)"/>
     <use xlink:href="#MicrosoftYaHei-516d" transform="translate(392.333984 0)"/>
     <use xlink:href="#MicrosoftYaHei-6d4b" transform="translate(492.333984 0)"/>
     <use xlink:href="#MicrosoftYaHei-70b9" transform="translate(592.333984 0)"/>
     <use xlink:href="#MicrosoftYaHei-4e0e" transform="translate(692.333984 0)"/>
     <use xlink:href="#MicrosoftYaHei-20" transform="translate(792.333984 0)"/>
     <use xlink:href="#MicrosoftYaHei-b1" transform="translate(821.923828 0)"/>
     <use xlink:href="#MicrosoftYaHei-31" transform="translate(896.09375 0)"/>
     <use xlink:href="#MicrosoftYaHei-b0" transform="translate(954.736328 0)"/>
     <use xlink:href="#MicrosoftYaHei-20" transform="translate(995.507812 0)"/>
     <use xlink:href="#MicrosoftYaHei-89d2" transform="translate(1025.097656 0)"/>
     <use xlink:href="#MicrosoftYaHei-57df" transform="translate(1125.097656 0)"/>
    </g>
   </g>
  </g>
 </g>
 <defs>
  <clipPath id="p18b7fadf2a">
   <rect x="56.4625" y="22.7925" width="304.949044" height="317.08"/>
  </clipPath>
  <clipPath id="p24ee4e3294">
   <rect x="453.491306" y="22.7925" width="289.044226" height="317.08"/>
  </clipPath>
 </defs>
</svg>
