<?xml version="1.0" encoding="utf-8" standalone="no"?>
<!DOCTYPE svg PUBLIC "-//W3C//DTD SVG 1.1//EN"
  "http://www.w3.org/Graphics/SVG/1.1/DTD/svg11.dtd">
<svg xmlns:xlink="http://www.w3.org/1999/xlink" width="872.39952pt" height="368.39952pt" viewBox="0 0 872.39952 368.39952" xmlns="http://www.w3.org/2000/svg" version="1.1">
 <metadata>
  <rdf:RDF xmlns:dc="http://purl.org/dc/elements/1.1/" xmlns:cc="http://creativecommons.org/ns#" xmlns:rdf="http://www.w3.org/1999/02/22-rdf-syntax-ns#">
   <cc:Work>
    <dc:type rdf:resource="http://purl.org/dc/dcmitype/StillImage"/>
    <dc:date>2026-09-11T01:18:09.702012</dc:date>
    <dc:format>image/svg+xml</dc:format>
    <dc:creator>
     <cc:Agent>
      <dc:title>Matplotlib v3.11.1, https://matplotlib.org/</dc:title>
     </cc:Agent>
    </dc:creator>
   </cc:Work>
  </rdf:RDF>
 </metadata>
 <defs>
  <style type="text/css">*{stroke-linejoin: round; stroke-linecap: butt}</style>
 </defs>
 <g id="figure_1">
  <g id="patch_1">
   <path d="M 0 368.39952 
L 872.39952 368.39952 
L 872.39952 0 
L 0 0 
z
" style="fill: #ffffff"/>
  </g>
  <g id="axes_1">
   <g id="patch_2">
    <path d="M 46.75918 313.120915 
L 431.914135 313.120915 
L 431.914135 26.336496 
L 46.75918 26.336496 
z
" style="fill: #ffffff"/>
   </g>
   <g id="matplotlib.axis_1">
    <g id="xtick_1">
     <g id="line2d_1">
      <defs>
       <path id="m383d4788a3" d="M 0 0 
L 0 3.5 
" style="stroke: #000000; stroke-width: 0.8"/>
      </defs>
      <g>
       <use xlink:href="#m383d4788a3" x="85.274675" y="313.120915" style="stroke: #000000; stroke-width: 0.8"/>
      </g>
     </g>
     <g id="text_1">
      <!-- 精度优先（修复版） -->
      <g transform="translate(43.99563 358.81817) rotate(-20) scale(0.1 -0.1)">
       <defs>
        <path id="MicrosoftYaHei-9a4" d="M 3225 -822 
L 2775 -822 
L 2775 2347 
L 5919 2347 
L 5919 -91 
Q 5919 -772 5219 -772 
L 4200 -772 
Q 4169 -572 4106 -291 
Q 4688 -328 5063 -328 
Q 5469 -328 5469 9 
L 5469 297 
L 3225 297 
L 3225 -822 
z
M 2488 3122 
L 4106 3122 
L 4106 3553 
L 2750 3553 
L 2750 3947 
L 4106 3947 
L 4106 4366 
L 2588 4366 
L 2588 4759 
L 4106 4759 
L 4106 5322 
L 4556 5322 
L 4556 4759 
L 6200 4759 
L 6200 4366 
L 4556 4366 
L 4556 3947 
L 6013 3947 
L 6013 3553 
L 4556 3553 
L 4556 3122 
L 6288 3122 
L 6288 2728 
L 2488 2728 
L 2488 3122 
z
M 56 578 
Q 663 1497 1044 2628 
L 138 2628 
L 138 3028 
L 1094 3028 
L 1094 5303 
L 1506 5303 
L 1506 3028 
L 2313 3028 
L 2313 2628 
L 1506 2628 
L 1506 1853 
L 1738 2041 
Q 2263 1534 2581 1166 
L 2256 866 
Q 1863 1347 1506 1722 
L 1506 -847 
L 1094 -847 
L 1094 1784 
Q 731 841 250 72 
Q 150 353 56 578 
z
M 5469 1947 
L 3225 1947 
L 3225 1509 
L 5469 1509 
L 5469 1947 
z
M 3225 684 
L 5469 684 
L 5469 1122 
L 3225 1122 
L 3225 684 
z
M 1625 3559 
Q 1900 4166 2081 4834 
L 2481 4691 
Q 2250 3997 1994 3397 
L 1625 3559 
z
M 150 4709 
L 519 4841 
Q 744 4209 944 3572 
L 550 3409 
Q 338 4172 150 4709 
z
" transform="scale(0.015625)"/>
        <path id="MicrosoftYaHei-686" d="M 1550 1216 
L 1550 1628 
L 5469 1628 
L 5469 1222 
Q 4903 613 4147 163 
Q 5050 -200 6263 -309 
L 6019 -797 
Q 4625 -603 3644 -109 
Q 2600 -619 1250 -866 
Q 1150 -666 994 -416 
Q 2231 -222 3166 166 
Q 2497 600 2066 1216 
L 1550 1216 
z
M 1363 3541 
L 2294 3541 
L 2294 4066 
L 2769 4066 
L 2769 3541 
L 4538 3541 
L 4538 4072 
L 5013 4072 
L 5013 3541 
L 6150 3541 
L 6150 3128 
L 5013 3128 
L 5013 1928 
L 4538 1928 
L 4538 2147 
L 2769 2147 
L 2769 1922 
L 2294 1922 
L 2294 3128 
L 1363 3128 
L 1363 3541 
z
M 3025 5172 
L 3481 5391 
Q 3694 5056 3909 4634 
L 6213 4634 
L 6213 4197 
L 1225 4197 
L 1225 2316 
Q 1225 178 394 -872 
Q 238 -666 38 -447 
Q 725 397 738 2347 
L 738 4634 
L 3331 4634 
Q 3188 4909 3025 5172 
z
M 2769 2547 
L 4538 2547 
L 4538 3128 
L 2769 3128 
L 2769 2547 
z
M 4819 1216 
L 2588 1216 
Q 3031 728 3656 391 
Q 4334 741 4819 1216 
z
" transform="scale(0.015625)"/>
        <path id="MicrosoftYaHei-469" d="M 1825 3609 
L 3184 3609 
Q 3216 4322 3213 5272 
L 3713 5272 
Q 3719 4338 3688 3609 
L 6188 3609 
L 6188 3153 
L 4475 3153 
L 4475 228 
Q 4475 -122 4838 -122 
L 5244 -122 
Q 5656 -122 5700 303 
Q 5750 659 5781 1266 
Q 6031 1166 6294 1066 
Q 6244 528 6175 109 
Q 6100 -291 5900 -447 
Q 5713 -603 5275 -597 
L 4763 -597 
Q 4325 -597 4150 -422 
Q 3969 -259 3969 184 
L 3969 3153 
L 3663 3153 
Q 3600 791 1950 -803 
Q 1775 -597 1575 -397 
Q 3100 1028 3159 3153 
L 1825 3153 
L 1825 3609 
z
M 88 2334 
Q 1056 3641 1556 5291 
L 2063 5122 
Q 1753 4253 1388 3522 
L 1388 -809 
L 913 -809 
L 913 2666 
Q 616 2184 288 1778 
Q 194 2047 88 2334 
z
M 4600 5184 
Q 5269 4759 5713 4391 
Q 5538 4197 5388 3991 
Q 4875 4447 4325 4841 
L 4600 5184 
z
" transform="scale(0.015625)"/>
        <path id="MicrosoftYaHei-4af" d="M 225 2453 
L 2956 2453 
L 2956 3784 
L 1459 3784 
Q 1153 3166 800 2709 
Q 569 2891 394 2997 
Q 1094 3903 1481 5166 
L 1969 5028 
Q 1828 4613 1672 4247 
L 2956 4247 
L 2956 5309 
L 3469 5309 
L 3469 4247 
L 5788 4247 
L 5788 3784 
L 3469 3784 
L 3469 2453 
L 6219 2453 
L 6219 1991 
L 4206 1991 
L 4206 222 
Q 4169 -259 4638 -216 
L 5275 -216 
Q 5706 -216 5750 109 
Q 5794 428 5819 1022 
Q 6056 922 6344 834 
Q 6313 372 6231 -122 
Q 6169 -434 5956 -559 
Q 5769 -678 5281 -678 
L 4538 -678 
Q 3663 -716 3700 141 
L 3700 1991 
L 2478 1991 
Q 2428 909 2044 328 
Q 1581 -397 369 -847 
Q 244 -647 50 -397 
Q 1163 -16 1581 584 
Q 1925 1047 1978 1991 
L 225 1991 
L 225 2453 
z
" transform="scale(0.015625)"/>
        <path id="MicrosoftYaHei-367" d="M 5288 -1100 
Q 4172 119 4172 1850 
Q 4172 3603 5288 4838 
L 5825 4838 
Q 4716 3572 4716 1856 
Q 4716 166 5819 -1100 
L 5288 -1100 
z
" transform="scale(0.015625)"/>
        <path id="MicrosoftYaHei-493" d="M 2363 3553 
Q 3131 4359 3531 5316 
L 3981 5178 
Q 3859 4919 3725 4678 
L 5788 4678 
L 5788 4284 
Q 5353 3653 4741 3175 
Q 5366 2850 6313 2684 
Q 6213 2522 6094 2222 
Q 4959 2506 4338 2894 
Q 3653 2459 2588 2084 
Q 2469 2284 2325 2491 
Q 3294 2747 3975 3156 
Q 3553 3497 3247 3916 
Q 2997 3566 2713 3259 
Q 2575 3397 2363 3553 
z
M 81 2278 
Q 856 3653 1238 5316 
L 1700 5228 
Q 1509 4497 1281 3856 
L 1281 -822 
L 838 -822 
L 838 2769 
Q 578 2213 281 1747 
Q 200 1997 81 2278 
z
M 5750 1103 
L 6031 759 
Q 4538 -409 2581 -884 
Q 2456 -653 2331 -478 
Q 4288 -16 5750 1103 
z
M 1775 528 
L 1775 4316 
L 2206 4316 
L 2206 528 
L 1775 528 
z
M 5188 1847 
L 5481 1509 
Q 4406 703 2913 147 
Q 2763 378 2631 534 
Q 4194 1041 5188 1847 
z
M 4581 2484 
L 4881 2166 
Q 3925 1522 2844 1141 
Q 2744 1328 2563 1516 
Q 3644 1822 4581 2484 
z
M 5219 4291 
L 3497 4291 
Q 3494 4284 3491 4278 
Q 3863 3744 4356 3413 
Q 4913 3828 5219 4291 
z
" transform="scale(0.015625)"/>
        <path id="MicrosoftYaHei-5d6" d="M 81 3559 
Q 975 4259 1563 5347 
L 2113 5347 
Q 1963 5084 1803 4841 
L 6200 4841 
L 6200 4441 
L 1525 4441 
Q 1356 4209 1175 3997 
L 5575 3997 
L 5575 1697 
L 5138 1697 
L 5138 1859 
L 1463 1859 
L 1463 1634 
L 1031 1634 
L 1031 3828 
Q 716 3475 369 3166 
Q 263 3347 81 3559 
z
M 81 291 
Q 1231 853 1931 1709 
L 2488 1709 
Q 2350 1534 2206 1372 
L 5588 1372 
L 5588 1034 
Q 4981 494 4038 69 
Q 5016 -188 6319 -284 
Q 6150 -566 6025 -797 
Q 4503 -584 3416 -175 
Q 2303 -563 725 -872 
Q 606 -666 438 -447 
Q 1988 -191 2856 59 
Q 2153 397 1678 838 
Q 1084 303 388 -53 
Q 250 128 81 291 
z
M 1463 2247 
L 5138 2247 
L 5138 2747 
L 1463 2747 
L 1463 2247 
z
M 5138 3609 
L 1463 3609 
L 1463 3116 
L 5138 3116 
L 5138 3609 
z
M 4869 1009 
L 2025 1009 
Q 2572 553 3428 253 
Q 4297 591 4869 1009 
z
" transform="scale(0.015625)"/>
        <path id="MicrosoftYaHei-8cd" d="M 2875 4822 
Q 4700 4853 6013 5084 
L 6181 4622 
Q 4413 4422 3313 4403 
L 3313 3372 
L 5950 3372 
L 5950 2997 
Q 5700 1497 4994 591 
Q 5450 113 6325 -284 
Q 6100 -541 5944 -747 
Q 5134 -253 4691 234 
Q 4175 -300 3269 -822 
Q 3138 -603 2963 -378 
Q 3903 78 4413 594 
Q 3791 1466 3609 2959 
L 3313 2959 
L 3313 2003 
Q 3313 266 2506 -828 
Q 2356 -609 2194 -428 
Q 2594 203 2738 791 
Q 2875 1359 2875 2334 
L 2875 4822 
z
M 2100 -741 
L 1663 -741 
L 1663 1628 
L 972 1628 
Q 941 131 450 -828 
Q 313 -653 88 -466 
Q 538 316 538 1909 
L 538 5103 
L 975 5103 
L 975 3397 
L 1625 3397 
L 1625 5266 
L 2063 5266 
L 2063 3397 
L 2588 3397 
L 2588 3009 
L 975 3009 
L 975 2016 
L 2100 2016 
L 2100 -741 
z
M 5475 2959 
L 4047 2959 
Q 4203 1734 4716 950 
Q 5259 1694 5475 2959 
z
" transform="scale(0.015625)"/>
        <path id="MicrosoftYaHei-368" d="M 1113 -1100 
L 575 -1100 
Q 1684 163 1684 1888 
Q 1684 3581 581 4838 
L 1113 4838 
Q 2222 3628 2222 1888 
Q 2222 128 1113 -1100 
z
" transform="scale(0.015625)"/>
       </defs>
       <use xlink:href="#MicrosoftYaHei-9a4"/>
       <use xlink:href="#MicrosoftYaHei-686" transform="translate(100 0)"/>
       <use xlink:href="#MicrosoftYaHei-469" transform="translate(200 0)"/>
       <use xlink:href="#MicrosoftYaHei-4af" transform="translate(300 0)"/>
       <use xlink:href="#MicrosoftYaHei-367" transform="translate(400 0)"/>
       <use xlink:href="#MicrosoftYaHei-493" transform="translate(500 0)"/>
       <use xlink:href="#MicrosoftYaHei-5d6" transform="translate(600 0)"/>
       <use xlink:href="#MicrosoftYaHei-8cd" transform="translate(700 0)"/>
       <use xlink:href="#MicrosoftYaHei-368" transform="translate(800 0)"/>
      </g>
     </g>
    </g>
    <g id="xtick_2">
     <g id="line2d_2">
      <g>
       <use xlink:href="#m383d4788a3" x="162.305666" y="313.120915" style="stroke: #000000; stroke-width: 0.8"/>
      </g>
     </g>
     <g id="text_2">
      <!-- 时间折中 λ=1 -->
      <g transform="translate(134.315382 349.049965) rotate(-20) scale(0.1 -0.1)">
       <defs>
        <path id="MicrosoftYaHei-79e" d="M 344 4728 
L 2500 4728 
L 2500 -366 
L 2006 -366 
L 2006 153 
L 838 153 
L 838 -441 
L 344 -441 
L 344 4728 
z
M 2706 3941 
L 4925 3941 
L 4925 5322 
L 5425 5322 
L 5425 3941 
L 6313 3941 
L 6313 3478 
L 5425 3478 
L 5425 116 
Q 5425 -722 4625 -722 
Q 4263 -722 3563 -703 
Q 3531 -478 3463 -178 
Q 4119 -228 4488 -228 
Q 4925 -228 4925 216 
L 4925 3478 
L 2706 3478 
L 2706 3941 
z
M 838 616 
L 2006 616 
L 2006 2234 
L 838 2234 
L 838 616 
z
M 2006 4266 
L 838 4266 
L 838 2684 
L 2006 2684 
L 2006 4266 
z
M 3406 2878 
Q 3906 1966 4163 1422 
Q 4000 1347 3663 1172 
Q 3419 1766 2963 2653 
L 3406 2878 
z
" transform="scale(0.015625)"/>
        <path id="MicrosoftYaHei-b7f" d="M 1863 3647 
L 4513 3647 
L 4513 553 
L 2313 553 
L 2313 166 
L 1863 166 
L 1863 3647 
z
M 2388 4453 
L 2388 4922 
L 6013 4922 
L 6013 -28 
Q 6013 -816 5119 -816 
Q 4756 -816 4169 -803 
Q 4144 -616 4069 -297 
Q 4588 -334 5056 -334 
Q 5525 -334 5525 122 
L 5525 4453 
L 2388 4453 
z
M 419 4084 
L 906 4084 
L 906 -816 
L 419 -816 
L 419 4084 
z
M 2313 997 
L 4063 997 
L 4063 1884 
L 2313 1884 
L 2313 997 
z
M 4063 3203 
L 2313 3203 
L 2313 2328 
L 4063 2328 
L 4063 3203 
z
M 744 5003 
L 1100 5322 
Q 1575 4872 1981 4447 
L 1575 4091 
Q 1194 4541 744 5003 
z
" transform="scale(0.015625)"/>
        <path id="MicrosoftYaHei-711" d="M 2631 4816 
Q 4256 4822 5975 5078 
L 6144 4591 
Q 4281 4397 3119 4372 
L 3119 2916 
L 6300 2916 
L 6300 2453 
L 5163 2453 
L 5163 -822 
L 4663 -822 
L 4663 2453 
L 3119 2453 
Q 3103 203 2250 -859 
Q 2081 -672 1856 -472 
Q 2631 441 2631 2447 
L 2631 4816 
z
M 75 1953 
Q 513 2072 1013 2216 
L 1013 3591 
L 181 3591 
L 181 4022 
L 1013 4022 
L 1013 5259 
L 1500 5259 
L 1500 4022 
L 2275 4022 
L 2275 3591 
L 1500 3591 
L 1500 2363 
Q 1834 2463 2194 2578 
Q 2200 2259 2206 2078 
Q 1922 1997 1500 1866 
L 1500 -22 
Q 1500 -703 938 -722 
Q 650 -734 263 -728 
Q 225 -466 181 -203 
Q 556 -241 756 -241 
Q 1013 -241 1013 66 
L 1013 1709 
Q 622 1584 144 1428 
L 75 1953 
z
" transform="scale(0.015625)"/>
        <path id="MicrosoftYaHei-418" d="M 525 3972 
L 2931 3972 
L 2931 5334 
L 3469 5334 
L 3469 3972 
L 5900 3972 
L 5900 1122 
L 5388 1122 
L 5388 1459 
L 3469 1459 
L 3469 -866 
L 2931 -866 
L 2931 1459 
L 1038 1459 
L 1038 1122 
L 525 1122 
L 525 3972 
z
M 5388 3509 
L 3469 3509 
L 3469 1922 
L 5388 1922 
L 5388 3509 
z
M 1038 1922 
L 2931 1922 
L 2931 3509 
L 1038 3509 
L 1038 1922 
z
" transform="scale(0.015625)"/>
        <path id="MicrosoftYaHei-3" transform="scale(0.015625)"/>
        <path id="MicrosoftYaHei-165" d="M 3388 0 
L 2731 0 
L 1822 2747 
L 666 0 
L -3 0 
L 1553 3428 
L 1338 4059 
Q 1163 4572 813 4572 
Q 638 4572 391 4500 
L 391 5072 
Q 616 5119 856 5119 
Q 1281 5119 1507 4892 
Q 1734 4666 1950 4069 
L 3388 0 
z
" transform="scale(0.015625)"/>
        <path id="MicrosoftYaHei-23" d="M 3972 2497 
L 788 2497 
L 788 2969 
L 3972 2969 
L 3972 2497 
z
M 3972 1053 
L 788 1053 
L 788 1525 
L 3972 1525 
L 3972 1053 
z
" transform="scale(0.015625)"/>
        <path id="MicrosoftYaHei-17" d="M 1781 0 
L 1781 4141 
Q 1638 3997 1295 3819 
Q 953 3641 663 3569 
L 663 4169 
Q 1047 4275 1484 4508 
Q 1922 4741 2156 4947 
L 2388 4947 
L 2388 0 
L 1781 0 
z
" transform="scale(0.015625)"/>
       </defs>
       <use xlink:href="#MicrosoftYaHei-79e"/>
       <use xlink:href="#MicrosoftYaHei-b7f" transform="translate(100 0)"/>
       <use xlink:href="#MicrosoftYaHei-711" transform="translate(200 0)"/>
       <use xlink:href="#MicrosoftYaHei-418" transform="translate(300 0)"/>
       <use xlink:href="#MicrosoftYaHei-3" transform="translate(400 0)"/>
       <use xlink:href="#MicrosoftYaHei-165" transform="translate(429.59375 0)"/>
       <use xlink:href="#MicrosoftYaHei-23" transform="translate(484.03125 0)"/>
       <use xlink:href="#MicrosoftYaHei-17" transform="translate(558.203125 0)"/>
      </g>
     </g>
    </g>
    <g id="xtick_3">
     <g id="line2d_3">
      <g>
       <use xlink:href="#m383d4788a3" x="239.336657" y="313.120915" style="stroke: #000000; stroke-width: 0.8"/>
      </g>
     </g>
     <g id="text_3">
      <!-- 安全见证点 -->
      <g transform="translate(216.849594 345.127086) rotate(-20) scale(0.1 -0.1)">
       <defs>
        <path id="MicrosoftYaHei-60d" d="M 325 -322 
Q 1894 -81 2888 478 
Q 2072 859 1163 1266 
Q 1459 1709 1747 2191 
L 106 2191 
L 106 2653 
L 2019 2653 
Q 2334 3206 2644 3803 
L 3138 3597 
Q 2863 3113 2597 2653 
L 6306 2653 
L 6306 2191 
L 4966 2191 
Q 4653 1244 3888 572 
Q 4872 128 5850 -328 
L 5544 -828 
Q 4591 -328 3434 219 
Q 2347 -513 588 -834 
Q 475 -597 325 -322 
z
M 413 4397 
L 3228 4397 
Q 2991 4741 2681 5103 
L 3100 5384 
Q 3481 4972 3744 4591 
L 3456 4397 
L 6013 4397 
L 6013 3209 
L 5506 3209 
L 5506 3934 
L 913 3934 
L 913 3209 
L 413 3209 
L 413 4397 
z
M 1881 1453 
Q 2631 1131 3375 800 
Q 4122 1369 4422 2191 
L 2325 2191 
Q 2100 1813 1881 1453 
z
" transform="scale(0.015625)"/>
        <path id="MicrosoftYaHei-4b6" d="M 369 -103 
L 2950 -103 
L 2950 984 
L 925 984 
L 925 1441 
L 2950 1441 
L 2950 2403 
L 1156 2403 
L 1156 2859 
L 5269 2859 
L 5269 2403 
L 3469 2403 
L 3469 1441 
L 5500 1441 
L 5500 984 
L 3469 984 
L 3469 -103 
L 6044 -103 
L 6044 -566 
L 369 -566 
L 369 -103 
z
M 3656 5234 
L 3531 5078 
Q 4581 3703 6319 3009 
Q 6125 2734 5988 2509 
Q 4338 3322 3219 4691 
Q 2263 3453 394 2428 
Q 269 2641 81 2897 
Q 2013 3866 3000 5234 
L 3656 5234 
z
" transform="scale(0.015625)"/>
        <path id="MicrosoftYaHei-a7f" d="M 2919 4128 
L 3438 4128 
L 3438 3491 
Q 3438 2644 3313 2009 
L 3781 2009 
L 3781 178 
Q 3781 -216 4213 -216 
L 5206 -216 
Q 5625 -216 5688 191 
Q 5750 584 5788 1159 
Q 6038 1059 6300 978 
Q 6244 403 6163 -16 
Q 6050 -672 5275 -672 
L 4088 -672 
Q 3269 -672 3269 91 
L 3269 1797 
Q 3122 1181 2844 784 
Q 2250 -128 494 -866 
Q 356 -678 131 -416 
Q 1781 234 2363 1066 
Q 2919 1797 2919 3497 
L 2919 4128 
z
M 913 5072 
L 5513 5072 
L 5513 1178 
L 5000 1178 
L 5000 4609 
L 1425 4609 
L 1425 1141 
L 913 1141 
L 913 5072 
z
" transform="scale(0.015625)"/>
        <path id="MicrosoftYaHei-a9a" d="M 1681 -34 
L 2550 -34 
L 2550 3422 
L 3031 3422 
L 3031 -34 
L 4025 -34 
L 4025 4534 
L 2025 4534 
L 2025 4997 
L 6200 4997 
L 6200 4534 
L 4525 4534 
L 4525 2653 
L 5975 2653 
L 5975 2191 
L 4525 2191 
L 4525 -34 
L 6300 -34 
L 6300 -497 
L 1681 -497 
L 1681 -34 
z
M 2050 1534 
Q 2075 1316 2169 991 
Q 1413 241 1025 -203 
L 669 203 
Q 856 466 856 828 
L 856 2784 
L 100 2784 
L 100 3234 
L 1338 3234 
L 1338 797 
Q 1625 1072 2050 1534 
z
M 706 5222 
Q 1438 4478 1731 4147 
L 1294 3778 
Q 900 4291 325 4891 
L 706 5222 
z
" transform="scale(0.015625)"/>
        <path id="MicrosoftYaHei-8b5" d="M 900 3378 
L 2863 3378 
L 2863 5341 
L 3388 5341 
L 3388 4591 
L 6181 4591 
L 6181 4141 
L 3388 4141 
L 3388 3378 
L 5600 3378 
L 5600 991 
L 5088 991 
L 5088 1253 
L 1413 1253 
L 1413 991 
L 900 991 
L 900 3378 
z
M 5088 2928 
L 1413 2928 
L 1413 1703 
L 5088 1703 
L 5088 2928 
z
M 5425 847 
Q 5925 91 6225 -516 
L 5750 -772 
Q 5438 -134 4994 622 
L 5425 847 
z
M 1369 553 
Q 894 -303 531 -791 
L 100 -484 
Q 506 53 931 803 
L 1369 553 
z
M 2413 828 
Q 2700 197 2913 -503 
L 2406 -678 
Q 2213 3 1963 666 
L 2413 828 
z
M 3906 872 
Q 4206 253 4450 -422 
L 3956 -616 
Q 3781 -53 3450 697 
L 3906 872 
z
" transform="scale(0.015625)"/>
       </defs>
       <use xlink:href="#MicrosoftYaHei-60d"/>
       <use xlink:href="#MicrosoftYaHei-4b6" transform="translate(100 0)"/>
       <use xlink:href="#MicrosoftYaHei-a7f" transform="translate(200 0)"/>
       <use xlink:href="#MicrosoftYaHei-a9a" transform="translate(300 0)"/>
       <use xlink:href="#MicrosoftYaHei-8b5" transform="translate(400 0)"/>
      </g>
     </g>
    </g>
    <g id="xtick_4">
     <g id="line2d_4">
      <g>
       <use xlink:href="#m383d4788a3" x="316.367648" y="313.120915" style="stroke: #000000; stroke-width: 0.8"/>
      </g>
     </g>
     <g id="text_4">
      <!-- 随机安全点 -->
      <g transform="translate(293.880585 345.127086) rotate(-20) scale(0.1 -0.1)">
       <defs>
        <path id="MicrosoftYaHei-b9a" d="M 3256 4641 
L 4128 4641 
Q 4247 4963 4331 5291 
L 4756 5172 
Q 4663 4897 4563 4641 
L 6181 4641 
L 6181 4228 
L 4397 4228 
Q 4266 3916 4122 3628 
L 5794 3628 
L 5794 791 
Q 5794 134 5156 134 
L 4569 134 
Q 4563 178 4481 597 
Q 4838 578 5056 578 
Q 5369 578 5369 891 
L 5369 1328 
L 4113 1328 
L 4113 122 
L 3688 122 
L 3688 2841 
Q 3459 2475 3213 2153 
Q 3119 2397 3019 2597 
Q 3600 3394 3963 4228 
L 3256 4228 
L 3256 4641 
z
M 2081 1809 
Q 2225 666 1531 509 
Q 1325 466 969 503 
Q 925 697 844 991 
Q 1163 916 1375 947 
Q 1756 1009 1625 1809 
Q 1531 2241 1075 2772 
Q 1325 3578 1563 4459 
L 831 4459 
L 831 -809 
L 388 -809 
L 388 4909 
L 2025 4909 
L 2025 4459 
Q 1788 3647 1550 2853 
Q 1975 2359 2081 1809 
z
M 3969 -172 
Q 4688 -203 6244 -153 
Q 6144 -409 6063 -647 
Q 4763 -672 3956 -622 
Q 3069 -584 2600 78 
Q 2275 -366 1988 -834 
L 1681 -447 
Q 1891 -131 2444 572 
L 2444 2709 
L 1938 2709 
L 1938 3134 
L 2881 3134 
L 2881 403 
Q 3263 -156 3969 -172 
z
M 4113 1716 
L 5369 1716 
L 5369 2278 
L 4113 2278 
L 4113 1716 
z
M 5369 3228 
L 4113 3228 
L 4113 2666 
L 5369 2666 
L 5369 3228 
z
M 2575 5253 
Q 2881 4491 3044 3959 
Q 2794 3878 2606 3797 
Q 2450 4378 2181 5116 
L 2575 5253 
z
" transform="scale(0.015625)"/>
        <path id="MicrosoftYaHei-7d1" d="M 3375 4434 
L 3375 2366 
Q 3375 128 2256 -878 
Q 2081 -666 1888 -453 
Q 2875 416 2875 2253 
L 2875 4909 
L 5200 4909 
L 5200 209 
Q 5200 -103 5419 -103 
L 5563 -103 
Q 5763 -103 5819 247 
Q 5881 728 5906 1284 
Q 6125 1178 6381 1084 
Q 6325 466 6269 72 
Q 6169 -591 5631 -591 
L 5300 -591 
Q 4700 -591 4700 122 
L 4700 4434 
L 3375 4434 
z
M 81 1403 
Q 781 2447 1078 3653 
L 144 3653 
L 144 4078 
L 1119 4078 
L 1119 5309 
L 1569 5309 
L 1569 4078 
L 2444 4078 
L 2444 3653 
L 1569 3653 
L 1569 2616 
L 1819 2866 
Q 2300 2428 2575 2153 
L 2238 1809 
Q 1853 2234 1569 2516 
L 1569 -784 
L 1119 -784 
L 1119 2566 
Q 784 1506 288 853 
Q 188 1134 81 1403 
z
" transform="scale(0.015625)"/>
       </defs>
       <use xlink:href="#MicrosoftYaHei-b9a"/>
       <use xlink:href="#MicrosoftYaHei-7d1" transform="translate(100 0)"/>
       <use xlink:href="#MicrosoftYaHei-60d" transform="translate(200 0)"/>
       <use xlink:href="#MicrosoftYaHei-4b6" transform="translate(300 0)"/>
       <use xlink:href="#MicrosoftYaHei-8b5" transform="translate(400 0)"/>
      </g>
     </g>
    </g>
    <g id="xtick_5">
     <g id="line2d_5">
      <g>
       <use xlink:href="#m383d4788a3" x="393.398639" y="313.120915" style="stroke: #000000; stroke-width: 0.8"/>
      </g>
     </g>
     <g id="text_5">
      <!-- 沿示向前进 -->
      <g transform="translate(370.904896 345.09038) rotate(-20) scale(0.1 -0.1)">
       <defs>
        <path id="MicrosoftYaHei-85f" d="M 2306 2134 
L 5644 2134 
L 5644 -822 
L 5169 -822 
L 5169 -403 
L 2781 -403 
L 2781 -828 
L 2306 -828 
L 2306 2134 
z
M 5169 1703 
L 2781 1703 
L 2781 28 
L 5169 28 
L 5169 1703 
z
M 5625 3128 
Q 5913 3128 6319 3134 
L 6231 2666 
L 5544 2666 
Q 4813 2666 4813 3409 
L 4813 4559 
L 3119 4559 
L 3119 4153 
Q 3119 3441 2900 3072 
Q 2681 2666 2125 2328 
Q 1956 2522 1781 2722 
Q 2294 3009 2481 3328 
Q 2638 3609 2638 4184 
L 2638 5022 
L 5294 5022 
L 5294 3453 
Q 5294 3128 5625 3128 
z
M 1075 1797 
Q 1375 1666 1581 1603 
Q 1338 672 900 -803 
L 356 -609 
Q 769 484 1075 1797 
z
M 694 5159 
Q 1263 4772 1894 4259 
Q 1694 4034 1538 3866 
Q 956 4372 394 4803 
L 694 5159 
z
M 400 3516 
Q 975 3097 1488 2666 
Q 1294 2459 1138 2272 
Q 463 2878 88 3159 
L 400 3516 
z
" transform="scale(0.015625)"/>
        <path id="MicrosoftYaHei-950" d="M 100 3072 
L 6300 3072 
L 6300 2603 
L 3619 2603 
L 3619 78 
Q 3619 -703 2800 -709 
Q 2366 -709 1825 -703 
Q 1788 -447 1731 -128 
Q 2225 -178 2663 -178 
Q 3088 -178 3088 241 
L 3088 2603 
L 100 2603 
L 100 3072 
z
M 675 4916 
L 5744 4916 
L 5744 4447 
L 675 4447 
L 675 4916 
z
M 4413 1847 
L 4831 2128 
Q 5600 1184 6319 159 
L 5863 -141 
Q 5088 991 4413 1847 
z
M 1481 2141 
L 1938 1884 
Q 1281 747 538 -278 
Q 344 -134 125 16 
Q 825 922 1481 2141 
z
" transform="scale(0.015625)"/>
        <path id="MicrosoftYaHei-567" d="M 1038 -772 
L 550 -772 
L 550 4359 
L 2394 4359 
Q 2550 4822 2694 5328 
L 3231 5178 
Q 3069 4741 2913 4359 
L 5838 4359 
L 5838 -34 
Q 5838 -741 5131 -741 
Q 4738 -741 4181 -728 
Q 4150 -509 4094 -241 
Q 4631 -284 5006 -284 
Q 5350 -284 5350 78 
L 5350 3897 
L 1038 3897 
L 1038 -772 
z
M 1894 2997 
L 4481 2997 
L 4481 803 
L 2369 803 
L 2369 372 
L 1894 372 
L 1894 2997 
z
M 4006 2547 
L 2369 2547 
L 2369 1253 
L 4006 1253 
L 4006 2547 
z
" transform="scale(0.015625)"/>
        <path id="MicrosoftYaHei-4f9" d="M 1038 -841 
L 563 -841 
L 563 3322 
L 3300 3322 
L 3300 -172 
Q 3300 -784 2669 -772 
Q 2406 -772 1950 -759 
Q 1913 -516 1856 -297 
Q 2238 -328 2563 -328 
Q 2825 -334 2825 -72 
L 2825 722 
L 1038 722 
L 1038 -841 
z
M 150 4372 
L 2169 4372 
Q 1963 4697 1644 5078 
L 2038 5347 
Q 2425 4916 2663 4578 
L 2353 4372 
L 4063 4372 
L 3813 4509 
Q 4144 4916 4388 5359 
L 4863 5084 
Q 4575 4691 4284 4372 
L 6263 4372 
L 6263 3934 
L 150 3934 
L 150 4372 
z
M 5331 3522 
L 5819 3522 
L 5819 28 
Q 5819 -741 5094 -747 
Q 4763 -753 4269 -741 
Q 4238 -484 4181 -216 
Q 4644 -266 4931 -266 
Q 5331 -266 5331 141 
L 5331 3522 
z
M 4044 3222 
L 4519 3222 
L 4519 409 
L 4044 409 
L 4044 3222 
z
M 2825 2897 
L 1038 2897 
L 1038 2228 
L 2825 2228 
L 2825 2897 
z
M 1038 1141 
L 2825 1141 
L 2825 1809 
L 1038 1809 
L 1038 1141 
z
" transform="scale(0.015625)"/>
        <path id="MicrosoftYaHei-b12" d="M 1756 2416 
L 2828 2416 
Q 2838 2903 2838 3741 
L 2050 3741 
L 2050 4191 
L 2838 4191 
L 2838 5291 
L 3338 5291 
L 3338 4191 
L 4575 4191 
L 4575 5291 
L 5075 5291 
L 5075 4191 
L 6000 4191 
L 6000 3741 
L 5075 3741 
L 5075 2416 
L 6244 2416 
L 6244 1966 
L 5075 1966 
L 5075 66 
L 4575 66 
L 4575 1966 
L 3291 1966 
Q 3106 691 2213 66 
Q 2050 247 1831 447 
Q 2597 931 2778 1966 
L 1756 1966 
L 1756 2416 
z
M 2606 -191 
L 4088 -222 
L 6300 -166 
Q 6231 -372 6125 -659 
L 4050 -666 
L 2544 -634 
Q 1513 -616 1081 91 
Q 825 -147 331 -747 
L 75 -228 
Q 628 306 875 538 
L 875 2641 
L 131 2641 
L 131 3103 
L 1356 3103 
L 1356 438 
Q 1744 -175 2606 -191 
z
M 3331 2416 
L 4575 2416 
L 4575 3741 
L 3338 3741 
Q 3338 2666 3331 2416 
z
M 813 5216 
Q 1288 4622 1688 4034 
Q 1425 3866 1225 3722 
Q 881 4322 413 4947 
L 813 5216 
z
" transform="scale(0.015625)"/>
       </defs>
       <use xlink:href="#MicrosoftYaHei-85f"/>
       <use xlink:href="#MicrosoftYaHei-950" transform="translate(100 0)"/>
       <use xlink:href="#MicrosoftYaHei-567" transform="translate(200 0)"/>
       <use xlink:href="#MicrosoftYaHei-4f9" transform="translate(300 0)"/>
       <use xlink:href="#MicrosoftYaHei-b12" transform="translate(400 0)"/>
      </g>
     </g>
    </g>
   </g>
   <g id="matplotlib.axis_2">
    <g id="ytick_1">
     <g id="line2d_6">
      <path d="M 46.75918 300.756108 
L 431.914135 300.756108 
" clip-path="url(#p5f77b3994d)" style="fill: none; stroke: #b0b0b0; stroke-opacity: 0.2; stroke-width: 0.8; stroke-linecap: square"/>
     </g>
     <g id="line2d_7">
      <defs>
       <path id="mca0d60830b" d="M 0 0 
L -3.5 0 
" style="stroke: #000000; stroke-width: 0.8"/>
      </defs>
      <g>
       <use xlink:href="#mca0d60830b" x="46.75918" y="300.756108" style="stroke: #000000; stroke-width: 0.8"/>
      </g>
     </g>
     <g id="text_6">
      <!-- 0 -->
      <g transform="translate(33.895117 304.816166) scale(0.1 -0.1)">
       <defs>
        <path id="MicrosoftYaHei-16" d="M 284 2325 
Q 284 3606 709 4264 
Q 1134 4922 1941 4922 
Q 3478 4922 3478 2441 
Q 3478 1216 3045 567 
Q 2613 -81 1831 -81 
Q 1094 -81 689 534 
Q 284 1150 284 2325 
z
M 909 2353 
Q 909 425 1888 425 
Q 2850 425 2850 2384 
Q 2850 4413 1906 4413 
Q 909 4413 909 2353 
z
" transform="scale(0.015625)"/>
       </defs>
       <use xlink:href="#MicrosoftYaHei-16"/>
      </g>
     </g>
    </g>
    <g id="ytick_2">
     <g id="line2d_8">
      <path d="M 46.75918 248.456549 
L 431.914135 248.456549 
" clip-path="url(#p5f77b3994d)" style="fill: none; stroke: #b0b0b0; stroke-opacity: 0.2; stroke-width: 0.8; stroke-linecap: square"/>
     </g>
     <g id="line2d_9">
      <g>
       <use xlink:href="#mca0d60830b" x="46.75918" y="248.456549" style="stroke: #000000; stroke-width: 0.8"/>
      </g>
     </g>
     <g id="text_7">
      <!-- 100 -->
      <g transform="translate(22.166992 252.516608) scale(0.1 -0.1)">
       <use xlink:href="#MicrosoftYaHei-17"/>
       <use xlink:href="#MicrosoftYaHei-16" transform="translate(58.640625 0)"/>
       <use xlink:href="#MicrosoftYaHei-16" transform="translate(117.28125 0)"/>
      </g>
     </g>
    </g>
    <g id="ytick_3">
     <g id="line2d_10">
      <path d="M 46.75918 196.156991 
L 431.914135 196.156991 
" clip-path="url(#p5f77b3994d)" style="fill: none; stroke: #b0b0b0; stroke-opacity: 0.2; stroke-width: 0.8; stroke-linecap: square"/>
     </g>
     <g id="line2d_11">
      <g>
       <use xlink:href="#mca0d60830b" x="46.75918" y="196.156991" style="stroke: #000000; stroke-width: 0.8"/>
      </g>
     </g>
     <g id="text_8">
      <!-- 200 -->
      <g transform="translate(22.166992 200.217049) scale(0.1 -0.1)">
       <defs>
        <path id="MicrosoftYaHei-18" d="M 2666 3572 
Q 2666 3963 2419 4186 
Q 2172 4409 1747 4409 
Q 1447 4409 1140 4256 
Q 834 4103 569 3819 
L 569 4413 
Q 806 4659 1107 4790 
Q 1409 4922 1816 4922 
Q 2472 4922 2872 4570 
Q 3272 4219 3272 3619 
Q 3272 3084 3026 2693 
Q 2781 2303 2188 1894 
Q 1581 1475 1376 1294 
Q 1172 1113 1090 947 
Q 1009 781 1009 544 
L 3416 544 
L 3416 0 
L 372 0 
L 372 241 
Q 372 659 486 951 
Q 600 1244 862 1520 
Q 1125 1797 1681 2184 
Q 2250 2584 2458 2886 
Q 2666 3188 2666 3572 
z
" transform="scale(0.015625)"/>
       </defs>
       <use xlink:href="#MicrosoftYaHei-18"/>
       <use xlink:href="#MicrosoftYaHei-16" transform="translate(58.640625 0)"/>
       <use xlink:href="#MicrosoftYaHei-16" transform="translate(117.28125 0)"/>
      </g>
     </g>
    </g>
    <g id="ytick_4">
     <g id="line2d_12">
      <path d="M 46.75918 143.857432 
L 431.914135 143.857432 
" clip-path="url(#p5f77b3994d)" style="fill: none; stroke: #b0b0b0; stroke-opacity: 0.2; stroke-width: 0.8; stroke-linecap: square"/>
     </g>
     <g id="line2d_13">
      <g>
       <use xlink:href="#mca0d60830b" x="46.75918" y="143.857432" style="stroke: #000000; stroke-width: 0.8"/>
      </g>
     </g>
     <g id="text_9">
      <!-- 300 -->
      <g transform="translate(22.166992 147.917491) scale(0.1 -0.1)">
       <defs>
        <path id="MicrosoftYaHei-19" d="M 447 809 
Q 944 425 1569 425 
Q 2069 425 2361 670 
Q 2653 916 2653 1328 
Q 2653 2247 1338 2247 
L 934 2247 
L 934 2753 
L 1319 2753 
Q 2484 2753 2484 3616 
Q 2484 4413 1594 4413 
Q 1084 4413 634 4069 
L 634 4647 
Q 1109 4922 1744 4922 
Q 2363 4922 2738 4598 
Q 3113 4275 3113 3759 
Q 3113 2809 2144 2538 
L 2144 2525 
Q 2669 2469 2973 2155 
Q 3278 1841 3278 1372 
Q 3278 719 2808 319 
Q 2338 -81 1556 -81 
Q 869 -81 447 175 
L 447 809 
z
" transform="scale(0.015625)"/>
       </defs>
       <use xlink:href="#MicrosoftYaHei-19"/>
       <use xlink:href="#MicrosoftYaHei-16" transform="translate(58.640625 0)"/>
       <use xlink:href="#MicrosoftYaHei-16" transform="translate(117.28125 0)"/>
      </g>
     </g>
    </g>
    <g id="ytick_5">
     <g id="line2d_14">
      <path d="M 46.75918 91.557873 
L 431.914135 91.557873 
" clip-path="url(#p5f77b3994d)" style="fill: none; stroke: #b0b0b0; stroke-opacity: 0.2; stroke-width: 0.8; stroke-linecap: square"/>
     </g>
     <g id="line2d_15">
      <g>
       <use xlink:href="#mca0d60830b" x="46.75918" y="91.557873" style="stroke: #000000; stroke-width: 0.8"/>
      </g>
     </g>
     <g id="text_10">
      <!-- 400 -->
      <g transform="translate(22.166992 95.617932) scale(0.1 -0.1)">
       <defs>
        <path id="MicrosoftYaHei-1a" d="M 2906 4841 
L 2906 1644 
L 3631 1644 
L 3631 1138 
L 2906 1138 
L 2906 0 
L 2313 0 
L 2313 1138 
L 53 1138 
L 53 1616 
Q 656 2294 1265 3178 
Q 1875 4063 2272 4841 
L 2906 4841 
z
M 741 1644 
L 2313 1644 
L 2313 3950 
Q 1988 3366 1616 2817 
Q 1244 2269 741 1644 
z
" transform="scale(0.015625)"/>
       </defs>
       <use xlink:href="#MicrosoftYaHei-1a"/>
       <use xlink:href="#MicrosoftYaHei-16" transform="translate(58.640625 0)"/>
       <use xlink:href="#MicrosoftYaHei-16" transform="translate(117.28125 0)"/>
      </g>
     </g>
    </g>
    <g id="ytick_6">
     <g id="line2d_16">
      <path d="M 46.75918 39.258315 
L 431.914135 39.258315 
" clip-path="url(#p5f77b3994d)" style="fill: none; stroke: #b0b0b0; stroke-opacity: 0.2; stroke-width: 0.8; stroke-linecap: square"/>
     </g>
     <g id="line2d_17">
      <g>
       <use xlink:href="#mca0d60830b" x="46.75918" y="39.258315" style="stroke: #000000; stroke-width: 0.8"/>
      </g>
     </g>
     <g id="text_11">
      <!-- 500 -->
      <g transform="translate(22.166992 43.318373) scale(0.1 -0.1)">
       <defs>
        <path id="MicrosoftYaHei-1b" d="M 3294 1494 
Q 3294 784 2823 350 
Q 2353 -84 1559 -84 
Q 878 -84 544 119 
L 544 744 
Q 1034 425 1544 425 
Q 2050 425 2361 704 
Q 2672 984 2672 1447 
Q 2672 1909 2348 2167 
Q 2025 2425 1434 2425 
Q 978 2425 613 2384 
L 791 4841 
L 3053 4841 
L 3053 4303 
L 1306 4303 
L 1206 2931 
L 1647 2950 
Q 2416 2950 2855 2567 
Q 3294 2184 3294 1494 
z
" transform="scale(0.015625)"/>
       </defs>
       <use xlink:href="#MicrosoftYaHei-1b"/>
       <use xlink:href="#MicrosoftYaHei-16" transform="translate(58.640625 0)"/>
       <use xlink:href="#MicrosoftYaHei-16" transform="translate(117.28125 0)"/>
      </g>
     </g>
    </g>
    <g id="text_12">
     <!-- 独立测试样本最坏半径 / m -->
     <g transform="translate(15.632813 229.509174) rotate(-90) scale(0.1 -0.1)">
      <defs>
       <path id="MicrosoftYaHei-8de" d="M 5050 1034 
L 5463 1216 
Q 5975 266 6319 -522 
L 5844 -734 
Q 5716 -425 5591 -131 
Q 4169 -278 2206 -503 
L 2113 -3 
Q 3103 72 3938 144 
L 3938 1666 
L 2956 1666 
L 2956 1397 
L 2500 1397 
L 2500 4116 
L 3938 4116 
L 3938 5284 
L 4406 5284 
L 4406 4116 
L 5844 4116 
L 5844 1666 
L 4406 1666 
L 4406 184 
Q 4944 231 5409 275 
Q 5231 669 5050 1034 
z
M 100 1291 
Q 888 1878 1394 2641 
Q 1325 3128 1163 3478 
Q 800 3125 431 2853 
Q 325 3003 119 3197 
Q 553 3509 953 3903 
Q 669 4403 213 4859 
L 563 5116 
Q 997 4700 1284 4250 
Q 1613 4622 1919 5053 
L 2306 4803 
Q 1916 4272 1513 3838 
Q 1988 2866 1963 809 
Q 1950 -622 994 -622 
Q 694 -622 306 -597 
Q 281 -334 225 -59 
Q 619 -134 931 -134 
Q 1506 -134 1513 872 
Q 1525 1497 1475 2044 
Q 1028 1438 425 941 
Q 313 1091 100 1291 
z
M 5388 2103 
L 5388 3678 
L 4406 3678 
L 4406 2103 
L 5388 2103 
z
M 2956 2103 
L 3938 2103 
L 3938 3678 
L 2956 3678 
L 2956 2103 
z
" transform="scale(0.015625)"/>
       <path id="MicrosoftYaHei-979" d="M 181 34 
L 3428 34 
Q 4153 1444 4788 3391 
L 5356 3184 
Q 4713 1428 4038 34 
L 6225 34 
L 6225 -447 
L 181 -447 
L 181 34 
z
M 338 4134 
L 6075 4134 
L 6075 3653 
L 338 3653 
L 338 4134 
z
M 1081 3122 
L 1575 3322 
Q 2150 2003 2669 647 
L 2113 416 
Q 1606 1897 1081 3122 
z
M 2525 5141 
L 2981 5397 
Q 3281 4978 3606 4447 
L 3113 4159 
Q 2863 4628 2525 5141 
z
" transform="scale(0.015625)"/>
       <path id="MicrosoftYaHei-879" d="M 875 1753 
Q 1175 1597 1369 1522 
Q 950 -41 763 -784 
L 250 -547 
Q 619 497 875 1753 
z
M 638 5166 
Q 1019 4847 1588 4303 
Q 1381 4103 1213 3928 
Q 756 4434 313 4853 
L 638 5166 
z
M 356 3559 
Q 881 3134 1350 2716 
Q 1188 2547 988 2322 
Q 425 2878 50 3216 
L 356 3559 
z
M 5575 5284 
L 6031 5284 
L 6031 -34 
Q 6031 -753 5338 -753 
Q 5038 -753 4625 -741 
Q 4600 -509 4538 -228 
Q 4938 -272 5219 -272 
Q 5575 -272 5575 84 
L 5575 5284 
z
M 5038 634 
L 4600 634 
L 4600 4778 
L 5038 4778 
L 5038 634 
z
M 1706 4941 
L 4063 4941 
L 4063 991 
L 3613 991 
L 3613 4503 
L 2156 4503 
L 2156 991 
L 1706 991 
L 1706 4941 
z
M 2681 3966 
L 3138 3966 
L 3138 2416 
Q 3138 1466 2963 891 
Q 3775 266 4375 -234 
L 4038 -616 
Q 3538 -141 2800 472 
Q 2413 -297 1406 -884 
Q 1269 -684 1100 -484 
Q 2031 53 2375 709 
Q 2681 1278 2681 2403 
L 2681 3966 
z
" transform="scale(0.015625)"/>
       <path id="MicrosoftYaHei-aa1" d="M 1913 4078 
L 4194 4078 
Q 4188 4656 4188 5334 
L 4681 5334 
Q 4669 4591 4675 4078 
L 6219 4078 
L 6219 3622 
L 4684 3622 
Q 4747 978 5275 22 
Q 5469 -303 5600 -303 
Q 5706 -303 5750 -53 
Q 5813 328 5844 941 
Q 6113 834 6313 778 
Q 6231 72 6156 -297 
Q 6056 -822 5631 -822 
Q 5281 -822 4938 -341 
Q 4300 584 4206 3622 
L 1913 3622 
L 1913 4078 
z
M 1800 66 
Q 2272 128 2788 209 
L 2788 2147 
L 1894 2147 
L 1894 2591 
L 4056 2591 
L 4056 2147 
L 3250 2147 
L 3250 281 
Q 3741 363 4269 459 
Q 4256 209 4256 -28 
Q 2888 -247 1925 -422 
L 1800 66 
z
M 2038 1334 
Q 2069 984 2106 728 
Q 1688 328 1269 -103 
Q 1075 -303 944 -484 
L 594 -84 
Q 813 159 813 516 
L 813 2816 
L 88 2816 
L 88 3259 
L 1288 3259 
L 1288 572 
Q 1625 897 2038 1334 
z
M 700 5172 
Q 1263 4622 1688 4134 
L 1275 3778 
Q 881 4297 344 4853 
L 700 5172 
z
M 4919 4897 
L 5206 5197 
Q 5706 4828 6000 4547 
L 5656 4197 
Q 5313 4566 4919 4897 
z
" transform="scale(0.015625)"/>
       <path id="MicrosoftYaHei-7fd" d="M 2150 1197 
L 3981 1197 
L 3981 2222 
L 2619 2222 
L 2619 2659 
L 3981 2659 
L 3981 3641 
L 2475 3641 
L 2475 4078 
L 4406 4078 
Q 4925 4828 5188 5316 
L 5650 5022 
Q 5325 4578 4931 4078 
L 6075 4078 
L 6075 3641 
L 4469 3641 
L 4469 2659 
L 5900 2659 
L 5900 2222 
L 4469 2222 
L 4469 1197 
L 6275 1197 
L 6275 759 
L 4469 759 
L 4469 -872 
L 3981 -872 
L 3981 759 
L 2150 759 
L 2150 1197 
z
M 94 1384 
Q 700 2316 1038 3603 
L 163 3603 
L 163 4022 
L 1088 4022 
L 1088 5259 
L 1544 5259 
L 1544 4022 
L 2275 4022 
L 2275 3603 
L 1544 3603 
L 1544 2622 
L 1794 2847 
Q 2200 2447 2594 2022 
L 2238 1697 
Q 1756 2247 1544 2472 
L 1544 -872 
L 1088 -872 
L 1088 2559 
Q 750 1547 319 841 
Q 225 1109 94 1384 
z
M 2831 5047 
L 3200 5322 
Q 3694 4766 3906 4466 
L 3481 4172 
Q 3113 4703 2831 5047 
z
" transform="scale(0.015625)"/>
       <path id="MicrosoftYaHei-7ce" d="M 6281 803 
Q 6119 641 5856 366 
Q 4344 1531 3444 3353 
L 3444 878 
L 4875 878 
L 4875 441 
L 3444 441 
L 3444 -841 
L 2956 -841 
L 2956 441 
L 1475 441 
L 1475 878 
L 2956 878 
L 2956 3353 
Q 2159 1766 513 291 
Q 269 522 100 666 
Q 1878 2125 2759 3753 
L 238 3753 
L 238 4216 
L 2956 4216 
L 2956 5341 
L 3444 5341 
L 3444 4216 
L 6163 4216 
L 6163 3753 
L 3622 3753 
Q 4616 1884 6281 803 
z
" transform="scale(0.015625)"/>
       <path id="MicrosoftYaHei-7c2" d="M 169 -28 
Q 475 3 781 38 
L 781 2416 
L 94 2416 
L 94 2791 
L 6288 2791 
L 6288 2416 
L 3025 2416 
L 3025 331 
Q 3325 375 3625 422 
Q 3619 309 3631 22 
Q 3338 -19 3025 -63 
L 3025 -859 
L 2600 -859 
L 2600 -125 
Q 1525 -278 281 -472 
L 169 -28 
z
M 1038 5053 
L 5363 5053 
L 5363 3047 
L 4925 3047 
L 4925 3191 
L 1475 3191 
L 1475 3047 
L 1038 3047 
L 1038 5053 
z
M 3338 1609 
L 3338 1972 
L 5819 1972 
L 5819 1609 
Q 5500 844 4981 278 
Q 5516 -113 6306 -316 
Q 6144 -553 6025 -753 
Q 5219 -488 4666 -34 
Q 4128 -516 3413 -822 
Q 3306 -634 3125 -428 
Q 3834 -156 4347 266 
Q 3825 825 3603 1609 
L 3338 1609 
z
M 1475 3553 
L 4925 3553 
L 4925 3953 
L 1475 3953 
L 1475 3553 
z
M 4925 4691 
L 1475 4691 
L 1475 4291 
L 4925 4291 
L 4925 4691 
z
M 5344 1609 
L 4025 1609 
Q 4222 994 4659 556 
Q 5094 1013 5344 1609 
z
M 2600 269 
L 2600 691 
L 1206 691 
L 1206 88 
Q 1913 172 2600 269 
z
M 1206 1916 
L 2600 1916 
L 2600 2416 
L 1206 2416 
L 1206 1916 
z
M 1206 1053 
L 2600 1053 
L 2600 1553 
L 1206 1553 
L 1206 1053 
z
" transform="scale(0.015625)"/>
       <path id="MicrosoftYaHei-5b0" d="M 2363 4434 
L 2363 4897 
L 6225 4897 
L 6225 4434 
L 4538 4434 
Q 4303 3709 4016 3059 
L 4406 3059 
L 4406 -822 
L 3913 -822 
L 3913 2834 
Q 3238 1384 2281 309 
Q 2188 422 1906 659 
Q 3288 2213 4016 4434 
L 2363 4434 
z
M 119 1003 
Q 575 1147 1044 1303 
L 1044 3303 
L 200 3303 
L 200 3759 
L 1044 3759 
L 1044 5259 
L 1519 5259 
L 1519 3759 
L 2356 3759 
L 2356 3303 
L 1519 3303 
L 1519 1463 
Q 1919 1600 2331 1747 
Q 2344 1491 2369 1291 
Q 1350 922 231 503 
L 119 1003 
z
M 4931 2878 
Q 5700 1834 6331 772 
L 5881 447 
Q 5231 1603 4544 2634 
L 4931 2878 
z
" transform="scale(0.015625)"/>
       <path id="MicrosoftYaHei-521" d="M 125 1484 
L 2931 1484 
L 2931 2572 
L 381 2572 
L 381 3047 
L 2931 3047 
L 2931 5316 
L 3463 5316 
L 3463 3047 
L 6025 3047 
L 6025 2572 
L 3463 2572 
L 3463 1484 
L 6275 1484 
L 6275 1009 
L 3463 1009 
L 3463 -822 
L 2931 -822 
L 2931 1009 
L 125 1009 
L 125 1484 
z
M 4200 3709 
Q 4750 4222 5363 4959 
L 5800 4609 
Q 5194 3928 4575 3359 
L 4200 3709 
z
M 600 4641 
L 969 4947 
Q 1550 4397 2156 3728 
L 1725 3359 
Q 1081 4159 600 4641 
z
" transform="scale(0.015625)"/>
       <path id="MicrosoftYaHei-6ac" d="M 2388 4466 
L 2388 4891 
L 5738 4891 
L 5738 4459 
Q 5216 3866 4619 3391 
Q 5559 2888 6338 2428 
L 6038 1972 
Q 5256 2494 4216 3091 
Q 3253 2422 2106 2041 
Q 2000 2247 1850 2459 
Q 3894 3153 5025 4466 
L 2388 4466 
z
M 1931 -66 
L 3881 -66 
L 3881 1403 
L 2288 1403 
L 2288 1828 
L 5950 1828 
L 5950 1403 
L 4344 1403 
L 4344 -66 
L 6300 -66 
L 6300 -491 
L 1931 -491 
L 1931 -66 
z
M 38 1572 
Q 975 2353 1750 3809 
L 2175 3541 
Q 1844 2953 1475 2444 
L 1475 -816 
L 994 -816 
L 994 1831 
Q 638 1419 250 1066 
Q 156 1328 38 1572 
z
M 106 3616 
Q 1038 4359 1638 5391 
L 2063 5116 
Q 1356 3997 344 3134 
Q 238 3359 106 3616 
z
" transform="scale(0.015625)"/>
       <path id="MicrosoftYaHei-15" d="M 2791 4841 
L 469 -803 
L -103 -803 
L 2219 4841 
L 2791 4841 
z
" transform="scale(0.015625)"/>
       <path id="MicrosoftYaHei-53" d="M 5522 0 
L 4909 0 
L 4909 1984 
Q 4909 2547 4734 2789 
Q 4559 3031 4159 3031 
Q 3822 3031 3581 2715 
Q 3341 2400 3341 1969 
L 3341 0 
L 2728 0 
L 2728 2047 
Q 2728 3031 1969 3031 
Q 1619 3031 1389 2731 
Q 1159 2431 1159 1966 
L 1159 0 
L 547 0 
L 547 3456 
L 1159 3456 
L 1159 2909 
L 1172 2909 
Q 1541 3538 2250 3538 
Q 2597 3538 2862 3347 
Q 3128 3156 3231 2831 
Q 3616 3538 4381 3538 
Q 5522 3538 5522 2131 
L 5522 0 
z
" transform="scale(0.015625)"/>
      </defs>
      <use xlink:href="#MicrosoftYaHei-8de"/>
      <use xlink:href="#MicrosoftYaHei-979" transform="translate(100 0)"/>
      <use xlink:href="#MicrosoftYaHei-879" transform="translate(200 0)"/>
      <use xlink:href="#MicrosoftYaHei-aa1" transform="translate(300 0)"/>
      <use xlink:href="#MicrosoftYaHei-7fd" transform="translate(400 0)"/>
      <use xlink:href="#MicrosoftYaHei-7ce" transform="translate(500 0)"/>
      <use xlink:href="#MicrosoftYaHei-7c2" transform="translate(600 0)"/>
      <use xlink:href="#MicrosoftYaHei-5b0" transform="translate(700 0)"/>
      <use xlink:href="#MicrosoftYaHei-521" transform="translate(800 0)"/>
      <use xlink:href="#MicrosoftYaHei-6ac" transform="translate(900 0)"/>
      <use xlink:href="#MicrosoftYaHei-3" transform="translate(1000 0)"/>
      <use xlink:href="#MicrosoftYaHei-15" transform="translate(1029.59375 0)"/>
      <use xlink:href="#MicrosoftYaHei-3" transform="translate(1072.3125 0)"/>
      <use xlink:href="#MicrosoftYaHei-53" transform="translate(1101.90625 0)"/>
     </g>
    </g>
   </g>
   <g id="line2d_18">
    <path d="M 66.016927 285.548144 
L 104.532423 285.548144 
L 104.532423 271.416464 
L 66.016927 271.416464 
L 66.016927 285.548144 
" clip-path="url(#p5f77b3994d)" style="fill: none; stroke: #000000; stroke-linecap: square"/>
   </g>
   <g id="line2d_19">
    <path d="M 85.274675 285.548144 
L 85.274675 300.08526 
" clip-path="url(#p5f77b3994d)" style="fill: none; stroke: #000000; stroke-linecap: square"/>
   </g>
   <g id="line2d_20">
    <path d="M 85.274675 271.416464 
L 85.274675 270.970469 
" clip-path="url(#p5f77b3994d)" style="fill: none; stroke: #000000; stroke-linecap: square"/>
   </g>
   <g id="line2d_21">
    <path d="M 75.645801 300.08526 
L 94.903549 300.08526 
" clip-path="url(#p5f77b3994d)" style="fill: none; stroke: #000000; stroke-linecap: square"/>
   </g>
   <g id="line2d_22">
    <path d="M 75.645801 270.970469 
L 94.903549 270.970469 
" clip-path="url(#p5f77b3994d)" style="fill: none; stroke: #000000; stroke-linecap: square"/>
   </g>
   <g id="line2d_23"/>
   <g id="line2d_24">
    <path d="M 143.047919 260.212547 
L 181.563414 260.212547 
L 181.563414 254.672423 
L 143.047919 254.672423 
L 143.047919 260.212547 
" clip-path="url(#p5f77b3994d)" style="fill: none; stroke: #000000; stroke-linecap: square"/>
   </g>
   <g id="line2d_25">
    <path d="M 162.305666 260.212547 
L 162.305666 268.047478 
" clip-path="url(#p5f77b3994d)" style="fill: none; stroke: #000000; stroke-linecap: square"/>
   </g>
   <g id="line2d_26">
    <path d="M 162.305666 254.672423 
L 162.305666 251.555815 
" clip-path="url(#p5f77b3994d)" style="fill: none; stroke: #000000; stroke-linecap: square"/>
   </g>
   <g id="line2d_27">
    <path d="M 152.676792 268.047478 
L 171.93454 268.047478 
" clip-path="url(#p5f77b3994d)" style="fill: none; stroke: #000000; stroke-linecap: square"/>
   </g>
   <g id="line2d_28">
    <path d="M 152.676792 251.555815 
L 171.93454 251.555815 
" clip-path="url(#p5f77b3994d)" style="fill: none; stroke: #000000; stroke-linecap: square"/>
   </g>
   <g id="line2d_29">
    <defs>
     <path id="m523bdf7341" d="M 0 3 
C 0.795609 3 1.55874 2.683901 2.12132 2.12132 
C 2.683901 1.55874 3 0.795609 3 0 
C 3 -0.795609 2.683901 -1.55874 2.12132 -2.12132 
C 1.55874 -2.683901 0.795609 -3 0 -3 
C -0.795609 -3 -1.55874 -2.683901 -2.12132 -2.12132 
C -2.683901 -1.55874 -3 -0.795609 -3 0 
C -3 0.795609 -2.683901 1.55874 -2.12132 2.12132 
C -1.55874 2.683901 -0.795609 3 0 3 
z
" style="stroke: #000000"/>
    </defs>
    <g clip-path="url(#p5f77b3994d)">
     <use xlink:href="#m523bdf7341" x="162.305666" y="284.863366" style="fill-opacity: 0; stroke: #000000"/>
     <use xlink:href="#m523bdf7341" x="162.305666" y="298.369543" style="fill-opacity: 0; stroke: #000000"/>
     <use xlink:href="#m523bdf7341" x="162.305666" y="277.844723" style="fill-opacity: 0; stroke: #000000"/>
     <use xlink:href="#m523bdf7341" x="162.305666" y="277.848572" style="fill-opacity: 0; stroke: #000000"/>
     <use xlink:href="#m523bdf7341" x="162.305666" y="293.353453" style="fill-opacity: 0; stroke: #000000"/>
     <use xlink:href="#m523bdf7341" x="162.305666" y="270.59822" style="fill-opacity: 0; stroke: #000000"/>
     <use xlink:href="#m523bdf7341" x="162.305666" y="289.255817" style="fill-opacity: 0; stroke: #000000"/>
     <use xlink:href="#m523bdf7341" x="162.305666" y="297.593598" style="fill-opacity: 0; stroke: #000000"/>
    </g>
   </g>
   <g id="line2d_30">
    <path d="M 220.07891 164.039824 
L 258.594405 164.039824 
L 258.594405 104.564583 
L 220.07891 104.564583 
L 220.07891 164.039824 
" clip-path="url(#p5f77b3994d)" style="fill: none; stroke: #000000; stroke-linecap: square"/>
   </g>
   <g id="line2d_31">
    <path d="M 239.336657 164.039824 
L 239.336657 250.386159 
" clip-path="url(#p5f77b3994d)" style="fill: none; stroke: #000000; stroke-linecap: square"/>
   </g>
   <g id="line2d_32">
    <path d="M 239.336657 104.564583 
L 239.336657 104.563166 
" clip-path="url(#p5f77b3994d)" style="fill: none; stroke: #000000; stroke-linecap: square"/>
   </g>
   <g id="line2d_33">
    <path d="M 229.707783 250.386159 
L 248.965531 250.386159 
" clip-path="url(#p5f77b3994d)" style="fill: none; stroke: #000000; stroke-linecap: square"/>
   </g>
   <g id="line2d_34">
    <path d="M 229.707783 104.563166 
L 248.965531 104.563166 
" clip-path="url(#p5f77b3994d)" style="fill: none; stroke: #000000; stroke-linecap: square"/>
   </g>
   <g id="line2d_35">
    <g clip-path="url(#p5f77b3994d)">
     <use xlink:href="#m523bdf7341" x="239.336657" y="256.123288" style="fill-opacity: 0; stroke: #000000"/>
     <use xlink:href="#m523bdf7341" x="239.336657" y="255.215736" style="fill-opacity: 0; stroke: #000000"/>
     <use xlink:href="#m523bdf7341" x="239.336657" y="298.369543" style="fill-opacity: 0; stroke: #000000"/>
     <use xlink:href="#m523bdf7341" x="239.336657" y="288.450096" style="fill-opacity: 0; stroke: #000000"/>
     <use xlink:href="#m523bdf7341" x="239.336657" y="269.599587" style="fill-opacity: 0; stroke: #000000"/>
     <use xlink:href="#m523bdf7341" x="239.336657" y="297.593598" style="fill-opacity: 0; stroke: #000000"/>
     <use xlink:href="#m523bdf7341" x="239.336657" y="270.744804" style="fill-opacity: 0; stroke: #000000"/>
    </g>
   </g>
   <g id="line2d_36">
    <path d="M 297.109901 271.318838 
L 335.625396 271.318838 
L 335.625396 232.204417 
L 297.109901 232.204417 
L 297.109901 271.318838 
" clip-path="url(#p5f77b3994d)" style="fill: none; stroke: #000000; stroke-linecap: square"/>
   </g>
   <g id="line2d_37">
    <path d="M 316.367648 271.318838 
L 316.367648 295.982978 
" clip-path="url(#p5f77b3994d)" style="fill: none; stroke: #000000; stroke-linecap: square"/>
   </g>
   <g id="line2d_38">
    <path d="M 316.367648 232.204417 
L 316.367648 185.401782 
" clip-path="url(#p5f77b3994d)" style="fill: none; stroke: #000000; stroke-linecap: square"/>
   </g>
   <g id="line2d_39">
    <path d="M 306.738775 295.982978 
L 325.996522 295.982978 
" clip-path="url(#p5f77b3994d)" style="fill: none; stroke: #000000; stroke-linecap: square"/>
   </g>
   <g id="line2d_40">
    <path d="M 306.738775 185.401782 
L 325.996522 185.401782 
" clip-path="url(#p5f77b3994d)" style="fill: none; stroke: #000000; stroke-linecap: square"/>
   </g>
   <g id="line2d_41">
    <g clip-path="url(#p5f77b3994d)">
     <use xlink:href="#m523bdf7341" x="316.367648" y="85.991126" style="fill-opacity: 0; stroke: #000000"/>
     <use xlink:href="#m523bdf7341" x="316.367648" y="59.217056" style="fill-opacity: 0; stroke: #000000"/>
     <use xlink:href="#m523bdf7341" x="316.367648" y="150.193523" style="fill-opacity: 0; stroke: #000000"/>
     <use xlink:href="#m523bdf7341" x="316.367648" y="87.889434" style="fill-opacity: 0; stroke: #000000"/>
     <use xlink:href="#m523bdf7341" x="316.367648" y="53.113387" style="fill-opacity: 0; stroke: #000000"/>
     <use xlink:href="#m523bdf7341" x="316.367648" y="131.20588" style="fill-opacity: 0; stroke: #000000"/>
     <use xlink:href="#m523bdf7341" x="316.367648" y="110.418241" style="fill-opacity: 0; stroke: #000000"/>
    </g>
   </g>
   <g id="line2d_42">
    <path d="M 374.140892 39.509426 
L 412.656387 39.509426 
L 412.656387 39.389728 
L 374.140892 39.389728 
L 374.140892 39.509426 
" clip-path="url(#p5f77b3994d)" style="fill: none; stroke: #000000; stroke-linecap: square"/>
   </g>
   <g id="line2d_43">
    <path d="M 393.398639 39.509426 
L 393.398639 39.512096 
" clip-path="url(#p5f77b3994d)" style="fill: none; stroke: #000000; stroke-linecap: square"/>
   </g>
   <g id="line2d_44">
    <path d="M 393.398639 39.389728 
L 393.398639 39.372151 
" clip-path="url(#p5f77b3994d)" style="fill: none; stroke: #000000; stroke-linecap: square"/>
   </g>
   <g id="line2d_45">
    <path d="M 383.769766 39.512096 
L 403.027513 39.512096 
" clip-path="url(#p5f77b3994d)" style="fill: none; stroke: #000000; stroke-linecap: square"/>
   </g>
   <g id="line2d_46">
    <path d="M 383.769766 39.372151 
L 403.027513 39.372151 
" clip-path="url(#p5f77b3994d)" style="fill: none; stroke: #000000; stroke-linecap: square"/>
   </g>
   <g id="line2d_47">
    <g clip-path="url(#p5f77b3994d)">
     <use xlink:href="#m523bdf7341" x="393.398639" y="211.490467" style="fill-opacity: 0; stroke: #000000"/>
     <use xlink:href="#m523bdf7341" x="393.398639" y="209.936822" style="fill-opacity: 0; stroke: #000000"/>
     <use xlink:href="#m523bdf7341" x="393.398639" y="296.244433" style="fill-opacity: 0; stroke: #000000"/>
     <use xlink:href="#m523bdf7341" x="393.398639" y="278.31366" style="fill-opacity: 0; stroke: #000000"/>
     <use xlink:href="#m523bdf7341" x="393.398639" y="134.427863" style="fill-opacity: 0; stroke: #000000"/>
     <use xlink:href="#m523bdf7341" x="393.398639" y="112.776172" style="fill-opacity: 0; stroke: #000000"/>
     <use xlink:href="#m523bdf7341" x="393.398639" y="238.704524" style="fill-opacity: 0; stroke: #000000"/>
     <use xlink:href="#m523bdf7341" x="393.398639" y="90.589942" style="fill-opacity: 0; stroke: #000000"/>
     <use xlink:href="#m523bdf7341" x="393.398639" y="200.277668" style="fill-opacity: 0; stroke: #000000"/>
     <use xlink:href="#m523bdf7341" x="393.398639" y="100.60961" style="fill-opacity: 0; stroke: #000000"/>
     <use xlink:href="#m523bdf7341" x="393.398639" y="90.097937" style="fill-opacity: 0; stroke: #000000"/>
     <use xlink:href="#m523bdf7341" x="393.398639" y="294.692544" style="fill-opacity: 0; stroke: #000000"/>
     <use xlink:href="#m523bdf7341" x="393.398639" y="241.594684" style="fill-opacity: 0; stroke: #000000"/>
     <use xlink:href="#m523bdf7341" x="393.398639" y="144.078354" style="fill-opacity: 0; stroke: #000000"/>
    </g>
   </g>
   <g id="line2d_48">
    <path d="M 66.016927 273.533114 
L 104.532423 273.533114 
" clip-path="url(#p5f77b3994d)" style="fill: none; stroke: #ff7f0e"/>
   </g>
   <g id="line2d_49">
    <path d="M 143.047919 256.414907 
L 181.563414 256.414907 
" clip-path="url(#p5f77b3994d)" style="fill: none; stroke: #ff7f0e"/>
   </g>
   <g id="line2d_50">
    <path d="M 220.07891 105.303652 
L 258.594405 105.303652 
" clip-path="url(#p5f77b3994d)" style="fill: none; stroke: #ff7f0e"/>
   </g>
   <g id="line2d_51">
    <path d="M 297.109901 249.727585 
L 335.625396 249.727585 
" clip-path="url(#p5f77b3994d)" style="fill: none; stroke: #ff7f0e"/>
   </g>
   <g id="line2d_52">
    <path d="M 374.140892 39.400601 
L 412.656387 39.400601 
" clip-path="url(#p5f77b3994d)" style="fill: none; stroke: #ff7f0e"/>
   </g>
   <g id="patch_3">
    <path d="M 46.75918 313.120915 
L 46.75918 26.336496 
" style="fill: none; stroke: #000000; stroke-width: 0.8; stroke-linejoin: miter; stroke-linecap: square"/>
   </g>
   <g id="patch_4">
    <path d="M 46.75918 313.120915 
L 431.914135 313.120915 
" style="fill: none; stroke: #000000; stroke-width: 0.8; stroke-linejoin: miter; stroke-linecap: square"/>
   </g>
  </g>
  <g id="axes_2">
   <g id="patch_5">
    <path d="M 480.044565 313.120915 
L 865.19952 313.120915 
L 865.19952 26.336496 
L 480.044565 26.336496 
z
" style="fill: #ffffff"/>
   </g>
   <g id="matplotlib.axis_3">
    <g id="xtick_6">
     <g id="line2d_53">
      <g>
       <use xlink:href="#m383d4788a3" x="518.56006" y="313.120915" style="stroke: #000000; stroke-width: 0.8"/>
      </g>
     </g>
     <g id="text_13">
      <!-- 精度优先（修复版） -->
      <g transform="translate(477.281015 358.81817) rotate(-20) scale(0.1 -0.1)">
       <use xlink:href="#MicrosoftYaHei-9a4"/>
       <use xlink:href="#MicrosoftYaHei-686" transform="translate(100 0)"/>
       <use xlink:href="#MicrosoftYaHei-469" transform="translate(200 0)"/>
       <use xlink:href="#MicrosoftYaHei-4af" transform="translate(300 0)"/>
       <use xlink:href="#MicrosoftYaHei-367" transform="translate(400 0)"/>
       <use xlink:href="#MicrosoftYaHei-493" transform="translate(500 0)"/>
       <use xlink:href="#MicrosoftYaHei-5d6" transform="translate(600 0)"/>
       <use xlink:href="#MicrosoftYaHei-8cd" transform="translate(700 0)"/>
       <use xlink:href="#MicrosoftYaHei-368" transform="translate(800 0)"/>
      </g>
     </g>
    </g>
    <g id="xtick_7">
     <g id="line2d_54">
      <g>
       <use xlink:href="#m383d4788a3" x="595.591051" y="313.120915" style="stroke: #000000; stroke-width: 0.8"/>
      </g>
     </g>
     <g id="text_14">
      <!-- 时间折中 λ=1 -->
      <g transform="translate(567.600767 349.049965) rotate(-20) scale(0.1 -0.1)">
       <use xlink:href="#MicrosoftYaHei-79e"/>
       <use xlink:href="#MicrosoftYaHei-b7f" transform="translate(100 0)"/>
       <use xlink:href="#MicrosoftYaHei-711" transform="translate(200 0)"/>
       <use xlink:href="#MicrosoftYaHei-418" transform="translate(300 0)"/>
       <use xlink:href="#MicrosoftYaHei-3" transform="translate(400 0)"/>
       <use xlink:href="#MicrosoftYaHei-165" transform="translate(429.59375 0)"/>
       <use xlink:href="#MicrosoftYaHei-23" transform="translate(484.03125 0)"/>
       <use xlink:href="#MicrosoftYaHei-17" transform="translate(558.203125 0)"/>
      </g>
     </g>
    </g>
    <g id="xtick_8">
     <g id="line2d_55">
      <g>
       <use xlink:href="#m383d4788a3" x="672.622042" y="313.120915" style="stroke: #000000; stroke-width: 0.8"/>
      </g>
     </g>
     <g id="text_15">
      <!-- 安全见证点 -->
      <g transform="translate(650.134979 345.127086) rotate(-20) scale(0.1 -0.1)">
       <use xlink:href="#MicrosoftYaHei-60d"/>
       <use xlink:href="#MicrosoftYaHei-4b6" transform="translate(100 0)"/>
       <use xlink:href="#MicrosoftYaHei-a7f" transform="translate(200 0)"/>
       <use xlink:href="#MicrosoftYaHei-a9a" transform="translate(300 0)"/>
       <use xlink:href="#MicrosoftYaHei-8b5" transform="translate(400 0)"/>
      </g>
     </g>
    </g>
    <g id="xtick_9">
     <g id="line2d_56">
      <g>
       <use xlink:href="#m383d4788a3" x="749.653033" y="313.120915" style="stroke: #000000; stroke-width: 0.8"/>
      </g>
     </g>
     <g id="text_16">
      <!-- 随机安全点 -->
      <g transform="translate(727.16597 345.127086) rotate(-20) scale(0.1 -0.1)">
       <use xlink:href="#MicrosoftYaHei-b9a"/>
       <use xlink:href="#MicrosoftYaHei-7d1" transform="translate(100 0)"/>
       <use xlink:href="#MicrosoftYaHei-60d" transform="translate(200 0)"/>
       <use xlink:href="#MicrosoftYaHei-4b6" transform="translate(300 0)"/>
       <use xlink:href="#MicrosoftYaHei-8b5" transform="translate(400 0)"/>
      </g>
     </g>
    </g>
    <g id="xtick_10">
     <g id="line2d_57">
      <g>
       <use xlink:href="#m383d4788a3" x="826.684024" y="313.120915" style="stroke: #000000; stroke-width: 0.8"/>
      </g>
     </g>
     <g id="text_17">
      <!-- 沿示向前进 -->
      <g transform="translate(804.190281 345.09038) rotate(-20) scale(0.1 -0.1)">
       <use xlink:href="#MicrosoftYaHei-85f"/>
       <use xlink:href="#MicrosoftYaHei-950" transform="translate(100 0)"/>
       <use xlink:href="#MicrosoftYaHei-567" transform="translate(200 0)"/>
       <use xlink:href="#MicrosoftYaHei-4f9" transform="translate(300 0)"/>
       <use xlink:href="#MicrosoftYaHei-b12" transform="translate(400 0)"/>
      </g>
     </g>
    </g>
   </g>
   <g id="matplotlib.axis_4">
    <g id="ytick_7">
     <g id="line2d_58">
      <path d="M 480.044565 300.252566 
L 865.19952 300.252566 
" clip-path="url(#p4f8e6157b4)" style="fill: none; stroke: #b0b0b0; stroke-opacity: 0.2; stroke-width: 0.8; stroke-linecap: square"/>
     </g>
     <g id="line2d_59">
      <g>
       <use xlink:href="#mca0d60830b" x="480.044565" y="300.252566" style="stroke: #000000; stroke-width: 0.8"/>
      </g>
     </g>
     <g id="text_18">
      <!-- 0 -->
      <g transform="translate(467.180502 304.312625) scale(0.1 -0.1)">
       <use xlink:href="#MicrosoftYaHei-16"/>
      </g>
     </g>
    </g>
    <g id="ytick_8">
     <g id="line2d_60">
      <path d="M 480.044565 258.425981 
L 865.19952 258.425981 
" clip-path="url(#p4f8e6157b4)" style="fill: none; stroke: #b0b0b0; stroke-opacity: 0.2; stroke-width: 0.8; stroke-linecap: square"/>
     </g>
     <g id="line2d_61">
      <g>
       <use xlink:href="#mca0d60830b" x="480.044565" y="258.425981" style="stroke: #000000; stroke-width: 0.8"/>
      </g>
     </g>
     <g id="text_19">
      <!-- 50 -->
      <g transform="translate(461.31644 262.486039) scale(0.1 -0.1)">
       <use xlink:href="#MicrosoftYaHei-1b"/>
       <use xlink:href="#MicrosoftYaHei-16" transform="translate(58.640625 0)"/>
      </g>
     </g>
    </g>
    <g id="ytick_9">
     <g id="line2d_62">
      <path d="M 480.044565 216.599395 
L 865.19952 216.599395 
" clip-path="url(#p4f8e6157b4)" style="fill: none; stroke: #b0b0b0; stroke-opacity: 0.2; stroke-width: 0.8; stroke-linecap: square"/>
     </g>
     <g id="line2d_63">
      <g>
       <use xlink:href="#mca0d60830b" x="480.044565" y="216.599395" style="stroke: #000000; stroke-width: 0.8"/>
      </g>
     </g>
     <g id="text_20">
      <!-- 100 -->
      <g transform="translate(455.452377 220.659454) scale(0.1 -0.1)">
       <use xlink:href="#MicrosoftYaHei-17"/>
       <use xlink:href="#MicrosoftYaHei-16" transform="translate(58.640625 0)"/>
       <use xlink:href="#MicrosoftYaHei-16" transform="translate(117.28125 0)"/>
      </g>
     </g>
    </g>
    <g id="ytick_10">
     <g id="line2d_64">
      <path d="M 480.044565 174.77281 
L 865.19952 174.77281 
" clip-path="url(#p4f8e6157b4)" style="fill: none; stroke: #b0b0b0; stroke-opacity: 0.2; stroke-width: 0.8; stroke-linecap: square"/>
     </g>
     <g id="line2d_65">
      <g>
       <use xlink:href="#mca0d60830b" x="480.044565" y="174.77281" style="stroke: #000000; stroke-width: 0.8"/>
      </g>
     </g>
     <g id="text_21">
      <!-- 150 -->
      <g transform="translate(455.452377 178.832869) scale(0.1 -0.1)">
       <use xlink:href="#MicrosoftYaHei-17"/>
       <use xlink:href="#MicrosoftYaHei-1b" transform="translate(58.640625 0)"/>
       <use xlink:href="#MicrosoftYaHei-16" transform="translate(117.28125 0)"/>
      </g>
     </g>
    </g>
    <g id="ytick_11">
     <g id="line2d_66">
      <path d="M 480.044565 132.946225 
L 865.19952 132.946225 
" clip-path="url(#p4f8e6157b4)" style="fill: none; stroke: #b0b0b0; stroke-opacity: 0.2; stroke-width: 0.8; stroke-linecap: square"/>
     </g>
     <g id="line2d_67">
      <g>
       <use xlink:href="#mca0d60830b" x="480.044565" y="132.946225" style="stroke: #000000; stroke-width: 0.8"/>
      </g>
     </g>
     <g id="text_22">
      <!-- 200 -->
      <g transform="translate(455.452377 137.006283) scale(0.1 -0.1)">
       <use xlink:href="#MicrosoftYaHei-18"/>
       <use xlink:href="#MicrosoftYaHei-16" transform="translate(58.640625 0)"/>
       <use xlink:href="#MicrosoftYaHei-16" transform="translate(117.28125 0)"/>
      </g>
     </g>
    </g>
    <g id="ytick_12">
     <g id="line2d_68">
      <path d="M 480.044565 91.119639 
L 865.19952 91.119639 
" clip-path="url(#p4f8e6157b4)" style="fill: none; stroke: #b0b0b0; stroke-opacity: 0.2; stroke-width: 0.8; stroke-linecap: square"/>
     </g>
     <g id="line2d_69">
      <g>
       <use xlink:href="#mca0d60830b" x="480.044565" y="91.119639" style="stroke: #000000; stroke-width: 0.8"/>
      </g>
     </g>
     <g id="text_23">
      <!-- 250 -->
      <g transform="translate(455.452377 95.179698) scale(0.1 -0.1)">
       <use xlink:href="#MicrosoftYaHei-18"/>
       <use xlink:href="#MicrosoftYaHei-1b" transform="translate(58.640625 0)"/>
       <use xlink:href="#MicrosoftYaHei-16" transform="translate(117.28125 0)"/>
      </g>
     </g>
    </g>
    <g id="ytick_13">
     <g id="line2d_70">
      <path d="M 480.044565 49.293054 
L 865.19952 49.293054 
" clip-path="url(#p4f8e6157b4)" style="fill: none; stroke: #b0b0b0; stroke-opacity: 0.2; stroke-width: 0.8; stroke-linecap: square"/>
     </g>
     <g id="line2d_71">
      <g>
       <use xlink:href="#mca0d60830b" x="480.044565" y="49.293054" style="stroke: #000000; stroke-width: 0.8"/>
      </g>
     </g>
     <g id="text_24">
      <!-- 300 -->
      <g transform="translate(455.452377 53.353112) scale(0.1 -0.1)">
       <use xlink:href="#MicrosoftYaHei-19"/>
       <use xlink:href="#MicrosoftYaHei-16" transform="translate(58.640625 0)"/>
       <use xlink:href="#MicrosoftYaHei-16" transform="translate(117.28125 0)"/>
      </g>
     </g>
    </g>
    <g id="text_25">
     <!-- 移动时间 / s -->
     <g transform="translate(448.918198 197.138862) rotate(-90) scale(0.1 -0.1)">
      <defs>
       <path id="MicrosoftYaHei-967" d="M 2244 703 
Q 3244 1434 3875 2441 
Q 3300 2159 2594 1928 
Q 2494 2122 2363 2347 
Q 3288 2616 4013 3022 
Q 3744 3284 3306 3641 
L 3594 3953 
Q 4050 3597 4400 3284 
Q 4981 3653 5488 4341 
L 3619 4341 
Q 3256 3834 2638 3303 
Q 2506 3472 2331 3653 
Q 3231 4384 3713 5353 
L 4156 5184 
Q 4050 4978 3925 4784 
L 6013 4784 
L 6013 4334 
Q 5475 3291 4113 2559 
L 4444 2447 
Q 4344 2284 4238 2128 
L 6219 2128 
L 6219 1672 
Q 5388 -234 2431 -922 
Q 2319 -684 2206 -509 
Q 3200 -297 4094 153 
Q 3825 447 3450 797 
L 3750 1097 
Q 4156 734 4494 397 
Q 5288 959 5706 1684 
L 3913 1684 
Q 3338 941 2531 309 
Q 2413 484 2244 703 
z
M 50 859 
Q 681 1759 1056 2947 
L 131 2947 
L 131 3391 
L 1119 3391 
L 1119 4372 
Q 719 4341 263 4309 
Q 231 4522 169 4766 
Q 1444 4834 2394 4972 
L 2506 4497 
Q 2119 4453 1581 4409 
L 1581 3391 
L 2450 3391 
L 2450 2947 
L 1581 2947 
L 1581 2147 
L 1788 2378 
Q 2200 2053 2606 1697 
L 2275 1328 
Q 1956 1628 1581 1972 
L 1581 -859 
L 1119 -859 
L 1119 1897 
Q 781 1009 269 322 
Q 169 591 50 859 
z
" transform="scale(0.015625)"/>
       <path id="MicrosoftYaHei-508" d="M 2975 4022 
L 3906 4022 
Q 3916 4650 3913 5309 
L 4425 5309 
Q 4422 4656 4409 4022 
L 6094 4022 
Q 6050 1659 5969 216 
Q 5900 -666 5150 -678 
Q 4763 -678 4306 -659 
Q 4263 -397 4206 -109 
Q 4638 -166 4994 -172 
Q 5456 -172 5475 347 
Q 5569 1897 5588 3547 
L 4400 3547 
Q 4394 3278 4388 3016 
Q 4356 553 2900 -872 
Q 2725 -659 2525 -447 
Q 3831 716 3888 3028 
Q 3894 3284 3900 3547 
L 2975 3547 
L 2975 4022 
z
M 2338 1866 
Q 2731 1016 3063 178 
Q 2788 59 2594 -28 
Q 2550 91 2506 209 
Q 1316 97 338 -16 
L 119 491 
Q 394 647 563 997 
Q 869 1613 1200 2559 
L 144 2559 
L 144 3022 
L 3163 3022 
L 3163 2559 
L 1725 2559 
Q 1191 1228 800 491 
Q 1519 544 2347 631 
Q 2138 1163 1906 1672 
L 2338 1866 
z
M 406 4778 
L 2913 4778 
L 2913 4316 
L 406 4316 
L 406 4778 
z
" transform="scale(0.015625)"/>
       <path id="MicrosoftYaHei-59" d="M 353 747 
Q 816 413 1350 413 
Q 2066 413 2066 881 
Q 2066 1081 1909 1211 
Q 1753 1341 1275 1519 
Q 700 1750 528 1976 
Q 356 2203 356 2525 
Q 356 2984 745 3261 
Q 1134 3538 1703 3538 
Q 2144 3538 2522 3384 
L 2522 2794 
Q 2134 3044 1644 3044 
Q 1350 3044 1165 2916 
Q 981 2788 981 2578 
Q 981 2372 1114 2256 
Q 1247 2141 1703 1959 
Q 2281 1744 2484 1512 
Q 2688 1281 2688 941 
Q 2688 466 2298 192 
Q 1909 -81 1291 -81 
Q 753 -81 353 122 
L 353 747 
z
" transform="scale(0.015625)"/>
      </defs>
      <use xlink:href="#MicrosoftYaHei-967"/>
      <use xlink:href="#MicrosoftYaHei-508" transform="translate(100 0)"/>
      <use xlink:href="#MicrosoftYaHei-79e" transform="translate(200 0)"/>
      <use xlink:href="#MicrosoftYaHei-b7f" transform="translate(300 0)"/>
      <use xlink:href="#MicrosoftYaHei-3" transform="translate(400 0)"/>
      <use xlink:href="#MicrosoftYaHei-15" transform="translate(429.59375 0)"/>
      <use xlink:href="#MicrosoftYaHei-3" transform="translate(472.3125 0)"/>
      <use xlink:href="#MicrosoftYaHei-59" transform="translate(501.90625 0)"/>
     </g>
    </g>
   </g>
   <g id="line2d_72">
    <path d="M 499.302312 133.822726 
L 537.817808 133.822726 
L 537.817808 122.292103 
L 499.302312 122.292103 
L 499.302312 133.822726 
" clip-path="url(#p4f8e6157b4)" style="fill: none; stroke: #000000; stroke-linecap: square"/>
   </g>
   <g id="line2d_73">
    <path d="M 518.56006 133.822726 
L 518.56006 150.036427 
" clip-path="url(#p4f8e6157b4)" style="fill: none; stroke: #000000; stroke-linecap: square"/>
   </g>
   <g id="line2d_74">
    <path d="M 518.56006 122.292103 
L 518.56006 107.579914 
" clip-path="url(#p4f8e6157b4)" style="fill: none; stroke: #000000; stroke-linecap: square"/>
   </g>
   <g id="line2d_75">
    <path d="M 508.931186 150.036427 
L 528.188934 150.036427 
" clip-path="url(#p4f8e6157b4)" style="fill: none; stroke: #000000; stroke-linecap: square"/>
   </g>
   <g id="line2d_76">
    <path d="M 508.931186 107.579914 
L 528.188934 107.579914 
" clip-path="url(#p4f8e6157b4)" style="fill: none; stroke: #000000; stroke-linecap: square"/>
   </g>
   <g id="line2d_77">
    <g clip-path="url(#p4f8e6157b4)">
     <use xlink:href="#m523bdf7341" x="518.56006" y="235.568112" style="fill-opacity: 0; stroke: #000000"/>
     <use xlink:href="#m523bdf7341" x="518.56006" y="158.226482" style="fill-opacity: 0; stroke: #000000"/>
     <use xlink:href="#m523bdf7341" x="518.56006" y="289.076534" style="fill-opacity: 0; stroke: #000000"/>
     <use xlink:href="#m523bdf7341" x="518.56006" y="209.953497" style="fill-opacity: 0; stroke: #000000"/>
     <use xlink:href="#m523bdf7341" x="518.56006" y="272.585152" style="fill-opacity: 0; stroke: #000000"/>
     <use xlink:href="#m523bdf7341" x="518.56006" y="169.054563" style="fill-opacity: 0; stroke: #000000"/>
     <use xlink:href="#m523bdf7341" x="518.56006" y="233.173277" style="fill-opacity: 0; stroke: #000000"/>
     <use xlink:href="#m523bdf7341" x="518.56006" y="288.762921" style="fill-opacity: 0; stroke: #000000"/>
     <use xlink:href="#m523bdf7341" x="518.56006" y="53.198662" style="fill-opacity: 0; stroke: #000000"/>
     <use xlink:href="#m523bdf7341" x="518.56006" y="100.499326" style="fill-opacity: 0; stroke: #000000"/>
     <use xlink:href="#m523bdf7341" x="518.56006" y="80.250874" style="fill-opacity: 0; stroke: #000000"/>
     <use xlink:href="#m523bdf7341" x="518.56006" y="83.766109" style="fill-opacity: 0; stroke: #000000"/>
     <use xlink:href="#m523bdf7341" x="518.56006" y="74.035902" style="fill-opacity: 0; stroke: #000000"/>
     <use xlink:href="#m523bdf7341" x="518.56006" y="55.857919" style="fill-opacity: 0; stroke: #000000"/>
     <use xlink:href="#m523bdf7341" x="518.56006" y="99.513406" style="fill-opacity: 0; stroke: #000000"/>
     <use xlink:href="#m523bdf7341" x="518.56006" y="104.639357" style="fill-opacity: 0; stroke: #000000"/>
     <use xlink:href="#m523bdf7341" x="518.56006" y="52.630084" style="fill-opacity: 0; stroke: #000000"/>
     <use xlink:href="#m523bdf7341" x="518.56006" y="95.325868" style="fill-opacity: 0; stroke: #000000"/>
     <use xlink:href="#m523bdf7341" x="518.56006" y="45.235573" style="fill-opacity: 0; stroke: #000000"/>
     <use xlink:href="#m523bdf7341" x="518.56006" y="44.087656" style="fill-opacity: 0; stroke: #000000"/>
    </g>
   </g>
   <g id="line2d_78">
    <path d="M 576.333304 195.285465 
L 614.848799 195.285465 
L 614.848799 177.238072 
L 576.333304 177.238072 
L 576.333304 195.285465 
" clip-path="url(#p4f8e6157b4)" style="fill: none; stroke: #000000; stroke-linecap: square"/>
   </g>
   <g id="line2d_79">
    <path d="M 595.591051 195.285465 
L 595.591051 215.390668 
" clip-path="url(#p4f8e6157b4)" style="fill: none; stroke: #000000; stroke-linecap: square"/>
   </g>
   <g id="line2d_80">
    <path d="M 595.591051 177.238072 
L 595.591051 171.27609 
" clip-path="url(#p4f8e6157b4)" style="fill: none; stroke: #000000; stroke-linecap: square"/>
   </g>
   <g id="line2d_81">
    <path d="M 585.962177 215.390668 
L 605.219925 215.390668 
" clip-path="url(#p4f8e6157b4)" style="fill: none; stroke: #000000; stroke-linecap: square"/>
   </g>
   <g id="line2d_82">
    <path d="M 585.962177 171.27609 
L 605.219925 171.27609 
" clip-path="url(#p4f8e6157b4)" style="fill: none; stroke: #000000; stroke-linecap: square"/>
   </g>
   <g id="line2d_83">
    <g clip-path="url(#p4f8e6157b4)">
     <use xlink:href="#m523bdf7341" x="595.591051" y="282.107435" style="fill-opacity: 0; stroke: #000000"/>
     <use xlink:href="#m523bdf7341" x="595.591051" y="242.073216" style="fill-opacity: 0; stroke: #000000"/>
     <use xlink:href="#m523bdf7341" x="595.591051" y="298.725641" style="fill-opacity: 0; stroke: #000000"/>
     <use xlink:href="#m523bdf7341" x="595.591051" y="257.417272" style="fill-opacity: 0; stroke: #000000"/>
     <use xlink:href="#m523bdf7341" x="595.591051" y="288.034517" style="fill-opacity: 0; stroke: #000000"/>
     <use xlink:href="#m523bdf7341" x="595.591051" y="243.392589" style="fill-opacity: 0; stroke: #000000"/>
     <use xlink:href="#m523bdf7341" x="595.591051" y="236.692185" style="fill-opacity: 0; stroke: #000000"/>
     <use xlink:href="#m523bdf7341" x="595.591051" y="280.435735" style="fill-opacity: 0; stroke: #000000"/>
     <use xlink:href="#m523bdf7341" x="595.591051" y="239.550253" style="fill-opacity: 0; stroke: #000000"/>
     <use xlink:href="#m523bdf7341" x="595.591051" y="298.229191" style="fill-opacity: 0; stroke: #000000"/>
     <use xlink:href="#m523bdf7341" x="595.591051" y="235.045118" style="fill-opacity: 0; stroke: #000000"/>
    </g>
   </g>
   <g id="line2d_84">
    <path d="M 653.364295 174.735006 
L 691.87979 174.735006 
L 691.87979 167.060406 
L 653.364295 167.060406 
L 653.364295 174.735006 
" clip-path="url(#p4f8e6157b4)" style="fill: none; stroke: #000000; stroke-linecap: square"/>
   </g>
   <g id="line2d_85">
    <path d="M 672.622042 174.735006 
L 672.622042 180.598292 
" clip-path="url(#p4f8e6157b4)" style="fill: none; stroke: #000000; stroke-linecap: square"/>
   </g>
   <g id="line2d_86">
    <path d="M 672.622042 167.060406 
L 672.622042 156.002332 
" clip-path="url(#p4f8e6157b4)" style="fill: none; stroke: #000000; stroke-linecap: square"/>
   </g>
   <g id="line2d_87">
    <path d="M 662.993168 180.598292 
L 682.250916 180.598292 
" clip-path="url(#p4f8e6157b4)" style="fill: none; stroke: #000000; stroke-linecap: square"/>
   </g>
   <g id="line2d_88">
    <path d="M 662.993168 156.002332 
L 682.250916 156.002332 
" clip-path="url(#p4f8e6157b4)" style="fill: none; stroke: #000000; stroke-linecap: square"/>
   </g>
   <g id="line2d_89">
    <g clip-path="url(#p4f8e6157b4)">
     <use xlink:href="#m523bdf7341" x="672.622042" y="271.115827" style="fill-opacity: 0; stroke: #000000"/>
     <use xlink:href="#m523bdf7341" x="672.622042" y="210.322842" style="fill-opacity: 0; stroke: #000000"/>
     <use xlink:href="#m523bdf7341" x="672.622042" y="298.725641" style="fill-opacity: 0; stroke: #000000"/>
     <use xlink:href="#m523bdf7341" x="672.622042" y="246.960503" style="fill-opacity: 0; stroke: #000000"/>
     <use xlink:href="#m523bdf7341" x="672.622042" y="280.318618" style="fill-opacity: 0; stroke: #000000"/>
     <use xlink:href="#m523bdf7341" x="672.622042" y="199.513555" style="fill-opacity: 0; stroke: #000000"/>
     <use xlink:href="#m523bdf7341" x="672.622042" y="213.317323" style="fill-opacity: 0; stroke: #000000"/>
     <use xlink:href="#m523bdf7341" x="672.622042" y="268.025862" style="fill-opacity: 0; stroke: #000000"/>
     <use xlink:href="#m523bdf7341" x="672.622042" y="211.8726" style="fill-opacity: 0; stroke: #000000"/>
     <use xlink:href="#m523bdf7341" x="672.622042" y="298.229191" style="fill-opacity: 0; stroke: #000000"/>
     <use xlink:href="#m523bdf7341" x="672.622042" y="208.985768" style="fill-opacity: 0; stroke: #000000"/>
     <use xlink:href="#m523bdf7341" x="672.622042" y="77.821139" style="fill-opacity: 0; stroke: #000000"/>
     <use xlink:href="#m523bdf7341" x="672.622042" y="153.440488" style="fill-opacity: 0; stroke: #000000"/>
     <use xlink:href="#m523bdf7341" x="672.622042" y="140.756761" style="fill-opacity: 0; stroke: #000000"/>
     <use xlink:href="#m523bdf7341" x="672.622042" y="144.598812" style="fill-opacity: 0; stroke: #000000"/>
     <use xlink:href="#m523bdf7341" x="672.622042" y="136.833198" style="fill-opacity: 0; stroke: #000000"/>
     <use xlink:href="#m523bdf7341" x="672.622042" y="55.857919" style="fill-opacity: 0; stroke: #000000"/>
     <use xlink:href="#m523bdf7341" x="672.622042" y="110.428477" style="fill-opacity: 0; stroke: #000000"/>
     <use xlink:href="#m523bdf7341" x="672.622042" y="113.28384" style="fill-opacity: 0; stroke: #000000"/>
     <use xlink:href="#m523bdf7341" x="672.622042" y="152.361438" style="fill-opacity: 0; stroke: #000000"/>
     <use xlink:href="#m523bdf7341" x="672.622042" y="134.177554" style="fill-opacity: 0; stroke: #000000"/>
     <use xlink:href="#m523bdf7341" x="672.622042" y="67.984789" style="fill-opacity: 0; stroke: #000000"/>
     <use xlink:href="#m523bdf7341" x="672.622042" y="99.326681" style="fill-opacity: 0; stroke: #000000"/>
    </g>
   </g>
   <g id="line2d_90">
    <path d="M 730.395286 188.740314 
L 768.910781 188.740314 
L 768.910781 142.688342 
L 730.395286 142.688342 
L 730.395286 188.740314 
" clip-path="url(#p4f8e6157b4)" style="fill: none; stroke: #000000; stroke-linecap: square"/>
   </g>
   <g id="line2d_91">
    <path d="M 749.653033 188.740314 
L 749.653033 246.150476 
" clip-path="url(#p4f8e6157b4)" style="fill: none; stroke: #000000; stroke-linecap: square"/>
   </g>
   <g id="line2d_92">
    <path d="M 749.653033 142.688342 
L 749.653033 78.389274 
" clip-path="url(#p4f8e6157b4)" style="fill: none; stroke: #000000; stroke-linecap: square"/>
   </g>
   <g id="line2d_93">
    <path d="M 740.02416 246.150476 
L 759.281907 246.150476 
" clip-path="url(#p4f8e6157b4)" style="fill: none; stroke: #000000; stroke-linecap: square"/>
   </g>
   <g id="line2d_94">
    <path d="M 740.02416 78.389274 
L 759.281907 78.389274 
" clip-path="url(#p4f8e6157b4)" style="fill: none; stroke: #000000; stroke-linecap: square"/>
   </g>
   <g id="line2d_95">
    <g clip-path="url(#p4f8e6157b4)">
     <use xlink:href="#m523bdf7341" x="749.653033" y="268.35117" style="fill-opacity: 0; stroke: #000000"/>
     <use xlink:href="#m523bdf7341" x="749.653033" y="286.054109" style="fill-opacity: 0; stroke: #000000"/>
     <use xlink:href="#m523bdf7341" x="749.653033" y="39.372151" style="fill-opacity: 0; stroke: #000000"/>
     <use xlink:href="#m523bdf7341" x="749.653033" y="50.421641" style="fill-opacity: 0; stroke: #000000"/>
     <use xlink:href="#m523bdf7341" x="749.653033" y="60.564555" style="fill-opacity: 0; stroke: #000000"/>
    </g>
   </g>
   <g id="line2d_96">
    <path d="M 807.426277 216.432089 
L 845.941772 216.432089 
L 845.941772 216.432089 
L 807.426277 216.432089 
L 807.426277 216.432089 
" clip-path="url(#p4f8e6157b4)" style="fill: none; stroke: #000000; stroke-linecap: square"/>
   </g>
   <g id="line2d_97">
    <path d="M 826.684024 216.432089 
L 826.684024 216.432089 
" clip-path="url(#p4f8e6157b4)" style="fill: none; stroke: #000000; stroke-linecap: square"/>
   </g>
   <g id="line2d_98">
    <path d="M 826.684024 216.432089 
L 826.684024 216.432089 
" clip-path="url(#p4f8e6157b4)" style="fill: none; stroke: #000000; stroke-linecap: square"/>
   </g>
   <g id="line2d_99">
    <path d="M 817.055151 216.432089 
L 836.312898 216.432089 
" clip-path="url(#p4f8e6157b4)" style="fill: none; stroke: #000000; stroke-linecap: square"/>
   </g>
   <g id="line2d_100">
    <path d="M 817.055151 216.432089 
L 836.312898 216.432089 
" clip-path="url(#p4f8e6157b4)" style="fill: none; stroke: #000000; stroke-linecap: square"/>
   </g>
   <g id="line2d_101">
    <g clip-path="url(#p4f8e6157b4)">
     <use xlink:href="#m523bdf7341" x="826.684024" y="300.08526" style="fill-opacity: 0; stroke: #000000"/>
     <use xlink:href="#m523bdf7341" x="826.684024" y="287.537284" style="fill-opacity: 0; stroke: #000000"/>
     <use xlink:href="#m523bdf7341" x="826.684024" y="300.08526" style="fill-opacity: 0; stroke: #000000"/>
     <use xlink:href="#m523bdf7341" x="826.684024" y="300.08526" style="fill-opacity: 0; stroke: #000000"/>
     <use xlink:href="#m523bdf7341" x="826.684024" y="217.435927" style="fill-opacity: 0; stroke: #000000"/>
     <use xlink:href="#m523bdf7341" x="826.684024" y="300.08526" style="fill-opacity: 0; stroke: #000000"/>
     <use xlink:href="#m523bdf7341" x="826.684024" y="299.416034" style="fill-opacity: 0; stroke: #000000"/>
     <use xlink:href="#m523bdf7341" x="826.684024" y="293.560312" style="fill-opacity: 0; stroke: #000000"/>
     <use xlink:href="#m523bdf7341" x="826.684024" y="300.08526" style="fill-opacity: 0; stroke: #000000"/>
     <use xlink:href="#m523bdf7341" x="826.684024" y="290.716105" style="fill-opacity: 0; stroke: #000000"/>
     <use xlink:href="#m523bdf7341" x="826.684024" y="233.999255" style="fill-opacity: 0; stroke: #000000"/>
     <use xlink:href="#m523bdf7341" x="826.684024" y="300.08526" style="fill-opacity: 0; stroke: #000000"/>
     <use xlink:href="#m523bdf7341" x="826.684024" y="284.860383" style="fill-opacity: 0; stroke: #000000"/>
     <use xlink:href="#m523bdf7341" x="826.684024" y="228.143533" style="fill-opacity: 0; stroke: #000000"/>
    </g>
   </g>
   <g id="line2d_102">
    <path d="M 499.302312 133.325247 
L 537.817808 133.325247 
" clip-path="url(#p4f8e6157b4)" style="fill: none; stroke: #ff7f0e"/>
   </g>
   <g id="line2d_103">
    <path d="M 576.333304 179.176555 
L 614.848799 179.176555 
" clip-path="url(#p4f8e6157b4)" style="fill: none; stroke: #ff7f0e"/>
   </g>
   <g id="line2d_104">
    <path d="M 653.364295 174.733468 
L 691.87979 174.733468 
" clip-path="url(#p4f8e6157b4)" style="fill: none; stroke: #ff7f0e"/>
   </g>
   <g id="line2d_105">
    <path d="M 730.395286 166.109216 
L 768.910781 166.109216 
" clip-path="url(#p4f8e6157b4)" style="fill: none; stroke: #ff7f0e"/>
   </g>
   <g id="line2d_106">
    <path d="M 807.426277 216.432089 
L 845.941772 216.432089 
" clip-path="url(#p4f8e6157b4)" style="fill: none; stroke: #ff7f0e"/>
   </g>
   <g id="patch_6">
    <path d="M 480.044565 313.120915 
L 480.044565 26.336496 
" style="fill: none; stroke: #000000; stroke-width: 0.8; stroke-linejoin: miter; stroke-linecap: square"/>
   </g>
   <g id="patch_7">
    <path d="M 480.044565 313.120915 
L 865.19952 313.120915 
" style="fill: none; stroke: #000000; stroke-width: 0.8; stroke-linejoin: miter; stroke-linecap: square"/>
   </g>
  </g>
  <g id="text_26">
   <!-- 策略对比：每个首次观测案例贡献一个统计值 -->
   <g transform="translate(316.19976 17.295) scale(0.12 -0.12)">
    <defs>
     <path id="MicrosoftYaHei-98c" d="M 6306 -128 
Q 6094 -397 5969 -591 
Q 4284 122 3438 1069 
L 3438 -841 
L 2975 -841 
L 2975 1053 
Q 1894 6 413 -666 
Q 250 -447 88 -272 
Q 1709 366 2975 1622 
L 2975 2034 
L 1269 2034 
L 1269 828 
L 813 828 
L 813 2422 
L 2975 2422 
L 2975 2928 
L 263 2928 
L 263 3322 
L 2975 3322 
L 2975 3703 
L 3438 3703 
L 3438 3322 
L 6156 3322 
L 6156 2928 
L 3438 2928 
L 3438 2422 
L 5706 2422 
L 5706 1403 
Q 5706 784 5069 784 
Q 4813 784 4513 803 
Q 4488 1047 4438 1272 
Q 4763 1222 4950 1222 
Q 5250 1222 5250 1516 
L 5250 2034 
L 3438 2034 
L 3438 1625 
Q 4619 372 6306 -128 
z
M 1294 5347 
L 1831 5347 
Q 1688 5041 1513 4759 
L 3325 4759 
L 3325 4372 
L 1244 4372 
Q 875 3878 388 3459 
Q 263 3609 75 3797 
Q 856 4428 1294 5347 
z
M 4006 5347 
L 4513 5347 
Q 4375 5031 4231 4759 
L 6225 4759 
L 6225 4372 
L 4013 4372 
Q 3778 3981 3525 3697 
Q 3388 3797 3088 3934 
Q 3663 4553 4006 5347 
z
M 4781 3416 
Q 4644 3628 4263 4072 
L 4588 4303 
Q 4919 3991 5150 3697 
L 4781 3416 
z
M 1988 3416 
Q 1750 3728 1469 4053 
L 1794 4284 
Q 2094 3997 2356 3697 
L 1988 3416 
z
" transform="scale(0.015625)"/>
     <path id="MicrosoftYaHei-90b" d="M 413 4716 
L 2600 4716 
L 2600 -222 
L 2188 -222 
L 2188 97 
L 825 97 
L 825 -347 
L 413 -347 
L 413 4716 
z
M 2638 3378 
Q 3269 4222 3719 5341 
L 4169 5197 
Q 4044 4913 3919 4653 
L 5888 4653 
L 5888 4234 
Q 5453 3375 4819 2756 
Q 5434 2328 6331 2109 
Q 6194 1853 6094 1591 
Q 5122 1919 4466 2450 
Q 3797 1925 2906 1516 
Q 2756 1772 2619 1947 
Q 3463 2269 4125 2763 
Q 3747 3159 3428 3734 
Q 3200 3353 2969 3047 
Q 2781 3266 2638 3378 
z
M 3200 1584 
L 5756 1584 
L 5756 -847 
L 5294 -847 
L 5294 -547 
L 3663 -547 
L 3663 -847 
L 3200 -847 
L 3200 1584 
z
M 5294 1147 
L 3663 1147 
L 3663 -109 
L 5294 -109 
L 5294 1147 
z
M 5363 4228 
L 3703 4228 
L 3666 4159 
Q 4013 3475 4466 3041 
Q 4963 3500 5363 4228 
z
M 825 516 
L 1300 516 
L 1300 2209 
L 825 2209 
L 825 516 
z
M 1713 516 
L 2188 516 
L 2188 2209 
L 1713 2209 
L 1713 516 
z
M 2188 4297 
L 1713 4297 
L 1713 2628 
L 2188 2628 
L 2188 4297 
z
M 825 2628 
L 1300 2628 
L 1300 4297 
L 825 4297 
L 825 2628 
z
" transform="scale(0.015625)"/>
     <path id="MicrosoftYaHei-62b" d="M 694 3691 
Q 1234 2909 1741 2166 
Q 2113 3081 2213 4147 
L 250 4147 
L 250 4622 
L 2725 4622 
L 2725 4166 
Q 2553 2809 2059 1700 
Q 2569 953 3044 247 
L 2594 -53 
Q 2203 563 1803 1181 
Q 1247 163 388 -622 
Q 263 -428 81 -166 
Q 975 638 1500 1647 
Q 919 2538 319 3434 
L 694 3691 
z
M 2975 3941 
L 5056 3941 
L 5056 5278 
L 5563 5278 
L 5563 3941 
L 6325 3941 
L 6325 3466 
L 5563 3466 
L 5563 191 
Q 5563 -716 4669 -716 
Q 4388 -716 3744 -709 
Q 3713 -478 3644 -147 
Q 4263 -197 4588 -197 
Q 5056 -197 5056 278 
L 5056 3466 
L 2975 3466 
L 2975 3941 
z
M 3088 2684 
L 3494 2928 
Q 4000 2184 4388 1484 
L 3919 1216 
Q 3550 1922 3088 2684 
z
" transform="scale(0.015625)"/>
     <path id="MicrosoftYaHei-841" d="M 3225 5316 
L 3744 5316 
L 3744 2672 
Q 4959 3550 5744 4509 
L 6188 4178 
Q 5175 3063 3744 2056 
L 3744 247 
Q 3744 -166 4106 -166 
L 5175 -166 
Q 5588 -166 5650 203 
Q 5725 678 5763 1247 
Q 6025 1147 6300 1066 
Q 6244 484 6150 22 
Q 6019 -622 5319 -622 
L 3944 -622 
Q 3225 -622 3225 159 
L 3225 5316 
z
M 1063 5153 
L 1063 3278 
L 2825 3278 
L 2825 2809 
L 1063 2809 
L 1063 153 
Q 1713 428 2763 928 
Q 2763 634 2788 366 
Q 1869 -3 1231 -328 
Q 956 -472 725 -672 
L 344 -184 
Q 544 -34 544 272 
L 544 5153 
L 1063 5153 
z
" transform="scale(0.015625)"/>
     <path id="MicrosoftYaHei-379" d="M 1606 3531 
Q 1772 3531 1890 3415 
Q 2009 3300 2009 3138 
Q 2009 2975 1893 2858 
Q 1778 2741 1606 2741 
Q 1434 2741 1318 2858 
Q 1203 2975 1203 3138 
Q 1203 3300 1322 3415 
Q 1441 3531 1606 3531 
z
M 1606 716 
Q 1772 716 1890 600 
Q 2009 484 2009 319 
Q 2009 150 1890 36 
Q 1772 -78 1606 -78 
Q 1441 -78 1322 36 
Q 1203 150 1203 319 
Q 1203 484 1322 600 
Q 1441 716 1606 716 
z
" transform="scale(0.015625)"/>
     <path id="MicrosoftYaHei-83f" d="M 125 2203 
L 1044 2203 
L 1325 3766 
L 5456 3766 
Q 5422 2928 5391 2203 
L 6300 2203 
L 6300 1753 
L 5372 1753 
Q 5344 1141 5319 616 
L 6075 616 
L 6075 178 
L 5284 178 
Q 5222 -278 5031 -484 
Q 4788 -753 4181 -753 
Q 3831 -753 3288 -728 
Q 3256 -516 3194 -222 
Q 3838 -278 4119 -278 
Q 4513 -278 4638 -128 
Q 4722 -41 4766 178 
L 763 178 
L 763 647 
L 963 1753 
L 125 1753 
L 125 2203 
z
M 4866 1753 
L 1472 1753 
L 1275 616 
L 4813 616 
Q 4844 1172 4866 1753 
z
M 4925 3328 
L 1750 3328 
L 1553 2203 
L 4888 2203 
Q 4906 2753 4925 3328 
z
M 100 3522 
Q 1025 4309 1550 5359 
L 2113 5359 
Q 1966 5069 1803 4803 
L 6156 4803 
L 6156 4353 
L 1509 4353 
Q 1022 3659 413 3134 
Q 281 3316 100 3522 
z
M 2619 2978 
L 2913 3303 
Q 3388 2934 3750 2622 
L 3413 2247 
Q 3025 2628 2619 2978 
z
M 2569 1391 
L 2863 1716 
Q 3338 1347 3700 1034 
L 3369 666 
Q 2888 1116 2569 1391 
z
" transform="scale(0.015625)"/>
     <path id="MicrosoftYaHei-417" d="M 2913 3028 
L 3481 3028 
L 3481 -841 
L 2913 -841 
L 2913 3028 
z
M 3600 5178 
L 3506 5034 
Q 4519 3366 6319 2647 
Q 6125 2341 5988 2084 
Q 4150 3047 3206 4566 
Q 2281 3122 400 1997 
Q 263 2222 81 2491 
Q 2031 3572 2981 5178 
L 3600 5178 
z
" transform="scale(0.015625)"/>
     <path id="MicrosoftYaHei-bd9" d="M 906 3303 
L 2706 3303 
Q 2775 3659 2819 3978 
L 175 3978 
L 175 4416 
L 2081 4416 
Q 1825 4816 1581 5109 
L 1963 5366 
Q 2369 4928 2581 4622 
L 2297 4416 
L 3772 4416 
Q 4053 4828 4369 5359 
L 4856 5091 
Q 4600 4753 4325 4416 
L 6250 4416 
L 6250 3978 
L 3344 3978 
Q 3269 3656 3181 3303 
L 5538 3303 
L 5538 -834 
L 5063 -834 
L 5063 -459 
L 1381 -459 
L 1381 -834 
L 906 -834 
L 906 3303 
z
M 1381 -34 
L 5063 -34 
L 5063 666 
L 1381 666 
L 1381 -34 
z
M 5063 2878 
L 1381 2878 
L 1381 2184 
L 5063 2184 
L 5063 2878 
z
M 1381 1078 
L 5063 1078 
L 5063 1772 
L 1381 1772 
L 1381 1078 
z
" transform="scale(0.015625)"/>
     <path id="MicrosoftYaHei-829" d="M 4119 3472 
Q 4113 3159 4091 2856 
Q 4509 728 6319 -284 
Q 6063 -559 5913 -772 
Q 4344 331 3900 1944 
Q 3491 200 1650 -866 
Q 1525 -672 1306 -422 
Q 3225 591 3525 2428 
Q 3613 2878 3619 3472 
L 4119 3472 
z
M 4944 2647 
Q 5225 3166 5450 3766 
L 2991 3766 
Q 2719 3144 2388 2572 
Q 2163 2734 1938 2841 
Q 2669 4034 3000 5309 
L 3506 5166 
Q 3356 4675 3175 4209 
L 5988 4209 
L 5988 3766 
Q 5731 3072 5425 2466 
Q 5213 2572 4944 2647 
z
M 1388 2622 
Q 1675 2403 1875 2284 
Q 1075 859 575 -178 
L 69 153 
Q 713 1128 1388 2622 
z
M 644 4916 
Q 1150 4409 1781 3672 
L 1375 3297 
Q 769 4097 281 4591 
L 644 4916 
z
" transform="scale(0.015625)"/>
     <path id="MicrosoftYaHei-a80" d="M 788 3672 
Q 1125 3025 1469 2359 
Q 1722 3225 1806 4266 
L 250 4266 
L 250 4741 
L 2294 4741 
L 2294 4284 
Q 2181 2869 1784 1747 
Q 2159 1019 2544 266 
L 2081 9 
Q 1841 534 1544 1147 
Q 1094 163 394 -559 
Q 269 -366 81 -103 
Q 825 659 1253 1741 
Q 859 2538 381 3466 
L 788 3672 
z
M 4031 4141 
L 4506 4141 
L 4506 3009 
Q 4506 2256 4394 1678 
L 4769 1678 
L 4769 191 
Q 4769 -203 5094 -203 
L 5394 -203 
Q 5713 -203 5756 134 
Q 5794 441 5819 966 
Q 6025 878 6313 772 
Q 6263 216 6213 -91 
Q 6119 -666 5500 -666 
L 5019 -666 
Q 4306 -666 4306 72 
L 4306 1313 
Q 4200 953 4044 678 
Q 3600 -116 2381 -822 
Q 2250 -634 2038 -409 
Q 3206 216 3625 941 
Q 4031 1584 4031 2978 
L 4031 4141 
z
M 2744 5034 
L 5794 5034 
L 5794 1284 
L 5319 1284 
L 5319 4572 
L 3219 4572 
L 3219 1197 
L 2744 1197 
L 2744 5034 
z
" transform="scale(0.015625)"/>
     <path id="MicrosoftYaHei-804" d="M 419 1822 
Q 1925 1994 2766 2219 
Q 2016 2419 1250 2609 
Q 1506 2884 1738 3153 
L 250 3153 
L 250 3566 
L 2075 3566 
Q 2313 3866 2513 4159 
L 3019 4016 
Q 2850 3791 2659 3566 
L 6150 3566 
L 6150 3153 
L 4806 3153 
Q 4509 2625 4003 2297 
Q 4897 2063 5681 1847 
L 5481 1428 
Q 4491 1741 3466 2025 
Q 2516 1650 600 1409 
Q 525 1609 419 1822 
z
M 6319 -197 
Q 6106 -447 5956 -666 
Q 4306 -172 3425 544 
L 3425 -866 
L 2975 -866 
L 2975 534 
Q 2028 -134 456 -672 
Q 313 -491 94 -247 
Q 1706 156 2647 747 
L 238 747 
L 238 1166 
L 2975 1166 
L 2975 1678 
L 3425 1678 
L 3425 1166 
L 6200 1166 
L 6200 747 
L 3766 747 
Q 4753 81 6319 -197 
z
M 419 4734 
L 3038 4734 
Q 2919 4950 2763 5178 
L 3206 5378 
Q 3409 5059 3591 4734 
L 5975 4734 
L 5975 3791 
L 5500 3791 
L 5500 4322 
L 894 4322 
L 894 3791 
L 419 3791 
L 419 4734 
z
M 1963 2809 
Q 2725 2622 3425 2444 
Q 3975 2688 4284 3153 
L 2294 3153 
Q 2134 2981 1963 2809 
z
" transform="scale(0.015625)"/>
     <path id="MicrosoftYaHei-486" d="M 2381 1841 
L 2631 2191 
Q 2916 1997 3247 1738 
Q 3488 2378 3581 3128 
L 2703 3128 
Q 2350 1984 1831 1291 
Q 1700 1491 1531 1678 
Q 2238 2694 2578 4522 
L 1900 4522 
L 1900 4959 
L 4319 4959 
L 4319 4522 
L 3044 4522 
Q 2947 4009 2828 3559 
L 4044 3559 
L 4044 3128 
Q 3788 666 2038 -822 
Q 1900 -634 1694 -416 
Q 2578 297 3063 1303 
Q 2753 1556 2381 1841 
z
M 88 2291 
Q 894 3659 1281 5322 
L 1744 5234 
Q 1578 4534 1325 3853 
L 1325 -809 
L 900 -809 
L 900 2847 
Q 625 2275 288 1716 
Q 213 1966 88 2291 
z
M 5575 5303 
L 6031 5303 
L 6031 84 
Q 6031 -391 5881 -566 
Q 5750 -728 5356 -734 
Q 5088 -741 4488 -722 
Q 4463 -466 4400 -203 
Q 4881 -253 5188 -253 
Q 5431 -259 5500 -166 
Q 5575 -84 5575 234 
L 5575 5303 
z
M 4913 653 
L 4469 653 
L 4469 4322 
L 4913 4322 
L 4913 653 
z
" transform="scale(0.015625)"/>
     <path id="MicrosoftYaHei-5e16" d="M 194 3728 
L 2981 3728 
L 2981 4541 
L 813 4541 
L 813 4978 
L 5588 4978 
L 5588 4541 
L 3469 4541 
L 3469 3728 
L 6206 3728 
L 6206 3291 
L 194 3291 
L 194 3728 
z
M 875 2753 
L 5525 2753 
L 5525 566 
L 5025 566 
L 5025 2316 
L 1375 2316 
L 1375 491 
L 875 491 
L 875 2753 
z
M 2944 2059 
L 3450 2059 
Q 3456 1259 3313 778 
Q 4725 272 6200 -391 
L 5919 -866 
Q 4450 -159 3119 347 
Q 2525 -553 450 -884 
Q 338 -622 175 -409 
Q 2244 -109 2700 659 
Q 2944 991 2944 2059 
z
" transform="scale(0.015625)"/>
     <path id="MicrosoftYaHei-8e3" d="M 838 -803 
L 400 -803 
L 400 3391 
L 1738 3391 
L 1738 4066 
L 250 4066 
L 250 4478 
L 1738 4478 
L 1738 5309 
L 2188 5309 
L 2188 4478 
L 3663 4478 
L 3663 4066 
L 2188 4066 
L 2188 3391 
L 3519 3391 
L 3519 -109 
Q 3519 -791 2894 -791 
Q 2619 -791 2381 -784 
Q 2350 -591 2300 -347 
Q 2606 -372 2838 -372 
Q 3081 -372 3081 -59 
L 3081 2991 
L 838 2991 
L 838 -803 
z
M 3675 3666 
L 4625 3666 
Q 4631 4300 4631 5309 
L 5081 5309 
Q 5081 4491 5072 3666 
L 6288 3666 
L 6288 3241 
L 5066 3241 
L 5066 3203 
Q 5413 628 6269 -466 
Q 6081 -641 5906 -847 
Q 5253 53 4925 1784 
Q 4678 138 3856 -859 
Q 3688 -684 3494 -534 
Q 4581 703 4619 3241 
L 3675 3241 
L 3675 3666 
z
M 1725 -547 
L 1725 697 
L 1013 697 
L 1013 1084 
L 1725 1084 
L 1725 1616 
L 1075 1616 
L 1075 2003 
L 2838 2003 
L 2838 1616 
L 2150 1616 
L 2150 1084 
L 2900 1084 
L 2900 697 
L 2150 697 
L 2150 -547 
L 1725 -547 
z
M 5288 4809 
L 5625 5022 
Q 5963 4609 6225 4216 
L 5856 3966 
Q 5575 4434 5288 4809 
z
M 2031 2228 
Q 2269 2584 2419 2941 
L 2775 2784 
Q 2594 2428 2363 2053 
L 2031 2228 
z
M 1100 2759 
L 1413 2941 
Q 1625 2622 1838 2253 
L 1500 2066 
Q 1306 2453 1100 2759 
z
" transform="scale(0.015625)"/>
     <path id="MicrosoftYaHei-25b2" d="M 100 2703 
L 6313 2703 
L 6313 2153 
L 100 2153 
L 100 2703 
z
" transform="scale(0.015625)"/>
     <path id="MicrosoftYaHei-9cf" d="M 5100 3641 
Q 5625 2934 6175 2047 
Q 5956 1922 5713 1766 
Q 5556 2031 5413 2275 
Q 5122 2256 4813 2241 
L 4813 122 
Q 4813 -259 5094 -259 
L 5400 -259 
Q 5706 -259 5750 53 
Q 5800 428 5813 866 
Q 6019 778 6313 684 
Q 6263 141 6206 -159 
Q 6119 -703 5550 -703 
L 5013 -703 
Q 4331 -703 4331 78 
L 4331 2213 
Q 3981 2194 3606 2169 
Q 3556 809 3256 272 
Q 2900 -416 1925 -866 
Q 1788 -672 1606 -447 
Q 2513 -78 2819 522 
Q 3100 1000 3122 2138 
Q 2994 2128 2863 2122 
Q 2594 2097 2363 2041 
L 2150 2528 
Q 2419 2641 2581 2828 
Q 3050 3388 3463 4047 
L 2100 4047 
L 2100 4491 
L 4094 4491 
Q 3859 4850 3650 5128 
L 4063 5384 
Q 4300 5091 4594 4684 
L 4297 4491 
L 6200 4491 
L 6200 4047 
L 3663 4047 
L 4006 3897 
Q 3488 3197 2988 2609 
Q 4166 2650 5153 2694 
Q 4916 3075 4700 3391 
L 5100 3641 
z
M 894 1534 
Q 1394 1603 2175 1722 
Q 2138 1472 2113 1259 
Q 1331 1153 325 991 
L 225 1441 
Q 616 1841 1153 2744 
Q 503 2700 219 2678 
L 100 3103 
Q 650 3828 1288 5316 
L 1763 5128 
Q 1156 3941 656 3141 
Q 1066 3147 1394 3159 
Q 1581 3494 1788 3884 
L 2256 3678 
Q 1544 2434 894 1534 
z
M 81 222 
Q 1119 422 2225 672 
Q 2200 347 2200 222 
Q 1069 -28 225 -253 
L 81 222 
z
" transform="scale(0.015625)"/>
     <path id="MicrosoftYaHei-a8b" d="M 2100 3153 
L 3919 3153 
L 3919 5303 
L 4456 5303 
L 4456 3153 
L 6288 3153 
L 6288 2703 
L 4456 2703 
L 4456 -822 
L 3919 -822 
L 3919 2703 
L 2100 2703 
L 2100 3153 
z
M 2675 903 
Q 2694 578 2719 359 
Q 1719 -266 1069 -728 
L 769 -303 
Q 988 -116 988 266 
L 988 2741 
L 100 2741 
L 100 3191 
L 1488 3191 
L 1488 153 
Q 2031 484 2675 903 
z
M 738 5222 
Q 1419 4522 1725 4184 
L 1288 3816 
Q 894 4334 356 4891 
L 738 5222 
z
" transform="scale(0.015625)"/>
     <path id="MicrosoftYaHei-49b" d="M 1619 -216 
L 2250 -216 
L 2250 3653 
L 3725 3653 
L 3725 4222 
L 1913 4222 
L 1913 4647 
L 3725 4647 
L 3725 5309 
L 4200 5309 
L 4200 4647 
L 6169 4647 
L 6169 4222 
L 4200 4222 
L 4200 3653 
L 5713 3653 
L 5713 -216 
L 6306 -216 
L 6306 -641 
L 1619 -641 
L 1619 -216 
z
M 69 2247 
Q 906 3497 1369 5278 
L 1831 5141 
Q 1581 4334 1288 3628 
L 1288 -816 
L 831 -816 
L 831 2666 
Q 563 2166 263 1734 
Q 175 1997 69 2247 
z
M 2713 -216 
L 5250 -216 
L 5250 353 
L 2713 353 
L 2713 -216 
z
M 5250 3241 
L 2713 3241 
L 2713 2678 
L 5250 2678 
L 5250 3241 
z
M 2713 1716 
L 5250 1716 
L 5250 2278 
L 2713 2278 
L 2713 1716 
z
M 2713 753 
L 5250 753 
L 5250 1316 
L 2713 1316 
L 2713 753 
z
" transform="scale(0.015625)"/>
    </defs>
    <use xlink:href="#MicrosoftYaHei-98c"/>
    <use xlink:href="#MicrosoftYaHei-90b" transform="translate(100 0)"/>
    <use xlink:href="#MicrosoftYaHei-62b" transform="translate(200 0)"/>
    <use xlink:href="#MicrosoftYaHei-841" transform="translate(300 0)"/>
    <use xlink:href="#MicrosoftYaHei-379" transform="translate(400 0)"/>
    <use xlink:href="#MicrosoftYaHei-83f" transform="translate(500 0)"/>
    <use xlink:href="#MicrosoftYaHei-417" transform="translate(600 0)"/>
    <use xlink:href="#MicrosoftYaHei-bd9" transform="translate(700 0)"/>
    <use xlink:href="#MicrosoftYaHei-829" transform="translate(800 0)"/>
    <use xlink:href="#MicrosoftYaHei-a80" transform="translate(900 0)"/>
    <use xlink:href="#MicrosoftYaHei-879" transform="translate(1000 0)"/>
    <use xlink:href="#MicrosoftYaHei-804" transform="translate(1100 0)"/>
    <use xlink:href="#MicrosoftYaHei-486" transform="translate(1200 0)"/>
    <use xlink:href="#MicrosoftYaHei-5e16" transform="translate(1300 0)"/>
    <use xlink:href="#MicrosoftYaHei-8e3" transform="translate(1400 0)"/>
    <use xlink:href="#MicrosoftYaHei-25b2" transform="translate(1500 0)"/>
    <use xlink:href="#MicrosoftYaHei-417" transform="translate(1600 0)"/>
    <use xlink:href="#MicrosoftYaHei-9cf" transform="translate(1700 0)"/>
    <use xlink:href="#MicrosoftYaHei-a8b" transform="translate(1800 0)"/>
    <use xlink:href="#MicrosoftYaHei-49b" transform="translate(1900 0)"/>
   </g>
  </g>
 </g>
 <defs>
  <clipPath id="p5f77b3994d">
   <rect x="46.75918" y="26.336496" width="385.154955" height="286.784419"/>
  </clipPath>
  <clipPath id="p4f8e6157b4">
   <rect x="480.044565" y="26.336496" width="385.154955" height="286.784419"/>
  </clipPath>
 </defs>
</svg>
